SplineFontDB: 3.2
FontName: xkcdScript
FullName: xkcd-Script-Regular
FamilyName: xkcd Script
Weight: Regular
Copyright: Copyright (c) ipython/xkcd-font contributors, Creative Commons Attribution-NonCommercial 3.0 License
UComments: "Created with FontForge (http://fontforge.org)"
Version: 1.0
ItalicAngle: 0
UnderlinePosition: -102.4
UnderlineWidth: 51.2
Ascent: 600
Descent: 256
InvalidEm: 0
LayerCount: 2
Layer: 0 0 "Back" 1
Layer: 1 0 "Fore" 0
XUID: [-1]
UniqueID: -1
StyleMap: 0x0000
FSType: 0
OS2Version: 0
OS2_WeightWidthSlopeOnly: 0
OS2_UseTypoMetrics: 1
CreationTime: 946684800
ModificationTime: 946684800
PfmFamily: 64
TTFWeight: 400
TTFWidth: 5
LineGap: 77
VLineGap: 77
Panose: 3 0 5 3 0 0 0 0 0 0
OS2TypoAscent: 855
OS2TypoAOffset: 0
OS2TypoDescent: -270
OS2TypoDOffset: 0
OS2TypoLinegap: 77
OS2WinAscent: 855
OS2WinAOffset: 0
OS2WinDescent: 270
OS2WinDOffset: 0
HheadAscent: 855
HheadAOffset: 0
HheadDescent: -270
HheadDOffset: 0
OS2SubXSize: 556
OS2SubYSize: 599
OS2SubXOff: 0
OS2SubYOff: 119
OS2SupXSize: 556
OS2SupYSize: 599
OS2SupXOff: 0
OS2SupYOff: 410
OS2StrikeYSize: 42
OS2StrikeYPos: 221
OS2CapHeight: 592
OS2XHeight: 338
OS2Vendor: 'PfEd'
Lookup: 4 0 1 "ligatures" { "liga"  } ['liga' ('latn' <'dflt' > ) ]
Lookup: 260 0 0 "below" { "below_sub"  } ['mark' ('latn' <'dflt' > ) ]
Lookup: 260 0 0 "above" { "above_sub"  } ['mark' ('latn' <'dflt' > ) ]
Lookup: 258 0 0 "kerning" { "kern"  } ['kern' ('latn' <'dflt' > ) ]
DEI: 91125
Encoding: UnicodeFull
UnicodeInterp: none
NameList: AGL For New Fonts
DisplaySize: -48
AntiAlias: 1
FitToEm: 0
BeginPrivate: 8
BlueValues 24 [-10 20 411 441 573 603]
OtherBlues 11 [-241 -190]
BlueScale 9 0.0208333
BlueShift 2 16
StdHW 2 74
StdVW 2 76
StemSnapH 30 [53 61 70 74 78 83 87 172 220]
StemSnapV 16 [60 70 76 80 85]
EndPrivate
AnchorClass2: "below" "below_sub" "above" "above_sub"
BeginChars: 1114203 613

StartChar: a
Encoding: 97 97 0
Width: 394
VWidth: 527
Flags: HW
AnchorPoint: "above" 192 426 basechar 0
LayerCount: 2
Fore
SplineSet
153 395 m 0
 160 395 169 406 195 406 c 0
 212 406 235 395 236 393 c 0
 238 388 256 376 254 373 c 0
 254 373 272 350 275 333 c 0
 277 323 278 317 280 317 c 0
 281 317 282 318 282 319 c 0
 282 320 289 326 298 326 c 0
 301 326 304 326 310 325 c 0
 335 322 338 319 340 302 c 0
 342 289 344 294 344 281 c 0
 344 237 323 199 323 169 c 0
 323 144 333 104 335 99 c 0
 339 87 354 69 365 62 c 0
 371 58 374 54 374 49 c 0
 374 46 362 -1 338 -1 c 0
 313 -1 278 40 278 44 c 0
 278 45 275 52 271 60 c 2
 264 74 l 1
 255 66 l 2
 254 65 206 23 183 17 c 0
 158 10 140 6 125 6 c 0
 105 6 88 12 63 26 c 0
 43 37 22 85 22 88 c 0
 22 89 10 116 10 137 c 0
 10 143 11 139 11 154 c 0
 11 156 11 172 11 172 c 0
 11 223 55 301 61 309 c 0
 92 350 104 364 143 390 c 0
 147 393 151 395 153 395 c 0
253 273 m 0
 227 273 207 336 197 336 c 0
 194 336 158 312 153 306 c 0
 152 305 87 232 87 163 c 0
 87 129 93 81 130 81 c 0
 168 81 213 125 228 150 c 0
 239 169 250 196 250 209 c 0
 250 225 258 268 258 269 c 0
 259 274 260 273 253 273 c 0
EndSplineSet
EndChar

StartChar: k
Encoding: 107 107 1
Width: 409
VWidth: 715
Flags: HW
AnchorPoint: "above" 199.548 561 basechar 0
LayerCount: 2
Fore
SplineSet
44 517 m 0
 44 520 45 541 67 541 c 0
 82 541 103 540 103 529 c 0
 103 527 104 523 106 521 c 0
 109 516 110 493 110 456 c 0
 110 417 105 330 102 304 c 2
 101 296 l 1
 113 307 l 2
 146 338 206 377 207 377 c 0
 210 377 294 435 295 435 c 0
 302 437 308 439 314 439 c 0
 319 439 322 438 324 436 c 0
 324 436 349 405 349 392 c 0
 349 387 347 381 343 378 c 0
 336 372 324 363 318 360 c 0
 312 356 261 322 245 314 c 0
 244 313 165 258 157 248 c 0
 153 243 170 234 170 234 c 0
 174 234 206 207 211 204 c 0
 237 187 271 135 304 102 c 0
 351 55 378 26 378 24 c 0
 378 16 386 17 387 1 c 0
 388 -5 388 -10 389 -11 c 0
 390 -13 383 -24 380 -24 c 0
 380 -24 349 -39 342 -39 c 0
 337 -39 329 -38 329 -36 c 0
 329 -35 328 -34 327 -34 c 0
 323 -34 324 -28 302 -6 c 0
 287 9 256 39 198 108 c 0
 182 128 147 160 132 169 c 0
 121 176 101 184 97 184 c 0
 94 184 89 105 89 104 c 0
 89 102 89 101 89 99 c 0
 89 69 87 29 86 26 c 0
 83 20 77 11 45 11 c 0
 36 11 10 10 10 39 c 0
 10 47 12 67 12 81 c 0
 12 82 12 85 12 85 c 0
 12 88 28 299 30 368 c 0
 33 465 44 502 44 517 c 0
EndSplineSet
EndChar

StartChar: l
Encoding: 108 108 2
Width: 157
VWidth: 810
Flags: HW
AnchorPoint: "above" 76.1363 639 basechar 0
LayerCount: 2
Fore
SplineSet
26 163 m 0
 26 195 20 215 20 253 c 0
 20 290 37 451 37 531 c 0
 37 561 38 565 44 587 c 0
 51 612 53 619 68 619 c 0
 82 619 109 614 112 610 c 0
 113 608 114 601 114 594 c 0
 113 572 119 586 115 564 c 0
 114 556 112 538 112 522 c 0
 112 489 95 263 95 260 c 0
 95 222 98 256 100 181 c 0
 100 180 102 90 113 51 c 0
 115 46 128 49 130 27 c 0
 131 16 133 16 132 13 c 0
 132 12 131 7 131 4 c 0
 131 4 124 -22 98 -22 c 0
 88 -22 76 -20 72 -17 c 0
 64 -12 50 3 49 8 c 0
 45 25 34 44 32 87 c 0
 32 88 26 146 26 163 c 0
EndSplineSet
EndChar

StartChar: m
Encoding: 109 109 3
Width: 574
VWidth: 609
Flags: HW
AnchorPoint: "above" 274.5 473.114 basechar 0
LayerCount: 2
Fore
SplineSet
27 20 m 0
 27 42 15 52 15 119 c 0
 15 138 16 234 28 256 c 0
 29 258 30 276 31 304 c 2
 32 349 l 1
 38 357 l 2
 43 365 44 365 52 366 c 2
 61 367 l 1
 71 384 l 2
 114 459 162 453 163 453 c 0
 166 452 171 451 179 449 c 0
 190 447 217 430 224 420 c 0
 235 405 262 365 263 326 c 0
 263 309 316 439 435 439 c 0
 444 439 466 440 488 418 c 0
 497 409 517 375 517 368 c 0
 517 367 527 342 529 311 c 0
 530 287 534 278 534 247 c 0
 534 246 531 143 526 120 c 0
 525 115 521 87 516 34 c 0
 514 10 514 9 508 3 c 0
 502 -3 501 -2 481 -3 c 2
 461 -4 l 1
 454 3 l 2
 443 15 441 19 441 31 c 0
 441 66 460 189 460 231 c 0
 460 243 456 257 455 280 c 0
 450 349 439 365 428 365 c 0
 420 365 403 360 391 353 c 0
 379 346 347 312 332 291 c 0
 331 290 286 223 269 129 c 0
 268 123 261 108 257 104 c 0
 254 101 250 101 238 101 c 0
 196 101 193 111 193 194 c 0
 193 240 190 310 187 328 c 0
 185 344 175 363 166 370 c 2
 159 376 l 1
 150 366 l 2
 120 333 105 262 105 261 c 0
 105 254 98 231 98 215 c 0
 98 213 102 34 103 29 c 0
 104 26 105 24 105 22 c 0
 105 19 104 17 102 13 c 0
 96 0 95 -4 55 -4 c 0
 33 -4 27 16 27 20 c 0
EndSplineSet
EndChar

StartChar: n
Encoding: 110 110 4
Width: 363
VWidth: 565
Flags: HW
AnchorPoint: "above" 176.497 448 basechar 0
LayerCount: 2
Fore
SplineSet
68 359 m 0
 68 358 69 355 70 355 c 0
 77 355 110 394 136 407 c 0
 148 413 147 418 162 422 c 0
 168 424 174 426 176 427 c 0
 178 428 183 428 188 428 c 0
 214 428 259 417 284 349 c 0
 285 345 288 341 289 340 c 0
 291 337 308 286 308 281 c 0
 308 270 333 195 333 87 c 0
 333 -21 312 -13 312 -24 c 0
 312 -26 295 -29 292 -29 c 0
 285 -29 273 -18 263 -14 c 0
 254 -10 251 -4 251 7 c 0
 251 8 258 56 258 94 c 0
 258 219 211 352 193 352 c 0
 190 352 175 349 146 320 c 0
 123 297 118 290 109 269 c 0
 99 246 96 236 96 207 c 0
 96 112 108 118 108 47 c 0
 108 27 105 19 105 19 c 0
 105 19 104 15 101 10 c 0
 97 2 91 -7 58 -7 c 0
 34 -7 25 33 25 36 c 0
 23 76 20 24 20 142 c 0
 20 172 20 215 20 278 c 0
 20 366 19 360 41 365 c 0
 48 367 51 367 54 367 c 0
 60 367 68 361 68 359 c 0
EndSplineSet
EndChar

StartChar: o
Encoding: 111 111 5
Width: 386
VWidth: 542
Flags: HW
AnchorPoint: "above" 183 435 basechar 0
LayerCount: 2
Fore
SplineSet
168 408 m 0
 171 408 181 415 204 415 c 0
 224 415 246 410 259 402 c 0
 259 402 265 401 286 386 c 0
 294 381 318 355 319 351 c 0
 321 345 333 327 333 325 c 0
 333 324 356 282 356 228 c 0
 356 175 338 137 337 136 c 0
 334 134 331 125 321 111 c 0
 289 68 290 68 277 55 c 0
 267 45 239 24 235 24 c 0
 234 24 186 -8 136 -8 c 0
 110 -8 83 -2 70 8 c 0
 66 11 60 15 57 17 c 0
 42 26 23 57 14 89 c 0
 11 101 10 106 10 135 c 0
 10 201 10 203 26 253 c 0
 42 304 62 331 62 332 c 0
 62 333 100 391 144 403 c 0
 153 405 165 408 168 408 c 0
173 327 m 0
 163 327 166 331 162 331 c 0
 160 331 103 302 84 172 c 0
 83 162 81 153 81 145 c 0
 81 128 84 114 90 98 c 0
 100 72 108 67 139 67 c 0
 175 67 227 95 264 160 c 0
 280 189 281 228 281 229 c 0
 281 271 255 310 254 310 c 0
 253 310 230 295 226 295 c 0
 222 295 208 310 206 310 c 0
 204 310 202 317 194 322 c 0
 184 327 184 332 182 329 c 0
 181 328 177 327 173 327 c 0
EndSplineSet
EndChar

StartChar: p
Encoding: 112 112 6
Width: 402
VWidth: 639
Flags: HW
AnchorPoint: "above" 189.5 463 basechar 0
LayerCount: 2
Fore
SplineSet
180 441 m 0
 225 441 188 443 202 443 c 0
 203 443 255 436 284 415 c 0
 287 413 293 409 296 409 c 0
 297 409 349 364 366 295 c 0
 369 282 370 286 373 274 c 0
 378 251 382 228 382 207 c 0
 382 207 382 187 379 167 c 0
 379 166 372 128 363 115 c 0
 363 115 356 104 356 102 c 0
 356 101 329 69 307 58 c 0
 300 55 295 51 294 50 c 0
 294 49 253 34 207 34 c 0
 194 34 145 38 98 61 c 2
 84 68 l 1
 84 49 l 2
 84 48 80 25 79 -50 c 0
 78 -107 74 -170 74 -171 c 0
 74 -174 74 -177 74 -177 c 0
 74 -192 63 -211 55 -211 c 0
 53 -211 49 -212 47 -213 c 0
 40 -216 11 -205 10 -204 c 0
 1 -199 -3 -189 -3 -172 c 0
 -3 -170 2 -125 5 -8 c 0
 8 113 17 234 17 236 c 0
 17 264 11 258 11 277 c 0
 11 335 23 338 23 346 c 0
 23 354 57 392 61 398 c 0
 69 410 134 434 135 435 c 0
 137 438 166 441 180 441 c 0
212 109 m 0
 255 109 306 124 306 197 c 0
 306 202 305 295 258 339 c 0
 240 357 225 368 180 368 c 0
 152 368 109 354 91 331 c 2
 84 322 l 1
 85 308 l 2
 86 301 86 261 87 220 c 2
 88 145 l 1
 95 145 l 2
 99 145 107 141 119 134 c 0
 131 127 162 109 212 109 c 0
EndSplineSet
EndChar

StartChar: q
Encoding: 113 113 7
Width: 398
VWidth: 568
Flags: HW
AnchorPoint: "above" 211 419 basechar 0
LayerCount: 2
Fore
SplineSet
81 161 m 0
 81 90 146 88 154 88 c 0
 166 88 200 88 241 114 c 0
 260 126 264 130 265 137 c 0
 265 138 294 283 295 287 c 1
 268 297 246 316 246 316 c 0
 246 316 225 329 208 329 c 0
 176 329 137 288 136 287 c 0
 123 272 105 246 98 232 c 0
 88 212 81 195 81 161 c 0
219 397 m 0
 251 397 305 356 313 345 c 1
 317 352 321 357 333 357 c 0
 373 357 373 346 373 333 c 0
 373 303 364 261 361 258 c 0
 361 257 342 157 342 143 c 0
 342 141 344 137 344 130 c 0
 344 124 342 118 338 112 c 0
 329 97 324 28 324 -1 c 0
 324 -103 358 -142 359 -143 c 1
 362 -141 366 -139 370 -139 c 0
 381 -139 392 -151 398 -153 c 0
 409 -157 412 -173 412 -176 c 0
 412 -185 400 -208 380 -214 c 1
 363 -218 363 -218 360 -218 c 0
 338 -218 304 -199 284 -156 c 0
 275 -138 265 -107 261 -91 c 0
 259 -84 257 -75 256 -73 c 0
 253 -65 251 -51 251 -44 c 0
 251 -42 251 -41 252 -39 c 0
 250 -24 249 -12 249 -0 c 0
 249 12 250 24 252 40 c 1
 251 40 205 19 157 19 c 0
 140 19 139 20 108 26 c 0
 86 31 38 66 37 77 c 0
 37 78 36 78 34 80 c 0
 16 104 11 144 11 147 c 0
 11 151 10 159 10 166 c 0
 10 209 30 251 39 269 c 0
 53 300 108 367 124 369 c 1
 146 383 175 398 204 399 c 0
 209 399 212 397 219 397 c 0
EndSplineSet
EndChar

StartChar: r
Encoding: 114 114 8
Width: 400
VWidth: 554
Flags: HW
AnchorPoint: "above" 200 445 basechar 0
LayerCount: 2
Fore
SplineSet
111 14 m 0
 111 -10 73 -10 62 -10 c 0
 41 -10 34 -10 27 48 c 0
 18 98 10 144 10 217 c 0
 10 225 10 233 10 239 c 0
 10 275 10 279 14 293 c 0
 20 314 36 347 44 355 c 0
 52 362 54 374 56 374 c 0
 57 374 102 420 192 423 c 0
 220 424 222 425 222 425 c 0
 230 425 303 410 355 381 c 0
 358 379 390 353 390 339 c 0
 390 317 378 309 370 307 c 0
 360 305 357 300 348 300 c 0
 326 300 320 318 287 332 c 0
 263 342 222 349 191 349 c 0
 120 349 92 299 92 291 c 0
 92 290 93 289 95 289 c 0
 97 289 98 286 98 276 c 0
 98 274 98 272 98 270 c 0
 98 175 103 146 105 88 c 0
 106 28 111 24 111 14 c 0
EndSplineSet
EndChar

StartChar: s
Encoding: 115 115 9
Width: 365
VWidth: 579
Flags: HW
AnchorPoint: "above" 172.5 469 basechar 0
LayerCount: 2
Fore
SplineSet
92 129 m 0
 92 120 118 89 128 89 c 0
 129 89 182 93 205 114 c 0
 211 119 222 129 230 136 c 0
 230 136 260 163 260 188 c 0
 260 203 252 254 248 259 c 0
 246 261 244 262 240 262 c 0
 234 262 224 259 211 252 c 0
 189 241 154 222 90 222 c 0
 75 222 63 228 51 229 c 0
 47 230 23 246 15 271 c 0
 14 273 14 275 14 275 c 1
 11 289 10 296 10 300 c 0
 10 386 108 449 177 449 c 0
 177 449 200 446 218 437 c 0
 231 431 233 430 237 421 c 0
 239 416 241 411 241 409 c 0
 241 408 237 399 232 389 c 0
 225 377 219 366 203 366 c 0
 196 366 185 373 170 373 c 0
 128 373 86 325 86 303 c 0
 86 297 88 298 91 298 c 0
 96 298 107 298 119 299 c 2
 147 302 l 1
 173 315 l 2
 188 323 216 337 237 337 c 0
 247 337 267 335 270 332 c 0
 270 332 305 316 317 293 c 0
 319 289 321 285 320 285 c 0
 320 285 324 279 324 270 c 0
 324 257 335 226 335 198 c 0
 335 181 335 133 282 83 c 0
 254 57 234 38 221 36 c 0
 216 35 204 27 153 16 c 0
 149 15 136 14 126 14 c 0
 108 14 109 14 89 24 c 0
 73 32 68 36 63 43 c 0
 55 55 44 64 31 85 c 0
 18 107 18 139 18 143 c 0
 18 161 31 173 64 173 c 0
 84 173 76 156 87 140 c 0
 89 137 92 132 92 129 c 0
EndSplineSet
EndChar

StartChar: t
Encoding: 116 116 10
Width: 333
VWidth: 788
Flags: HW
AnchorPoint: "above" 156.5 626 basechar 0
LayerCount: 2
Fore
SplineSet
128 593 m 0
 128 597 138 606 138 606 c 0
 138 606 148 604 159 602 c 0
 178 598 186 599 186 581 c 0
 186 543 161 432 161 430 c 2
 160 421 l 1
 196 421 l 2
 232 421 272 419 281 415 c 0
 288 413 293 404 293 394 c 0
 293 389 293 384 294 383 c 0
 296 381 294 367 292 367 c 0
 291 367 286 346 272 346 c 0
 254 346 186 347 185 347 c 0
 151 347 149 346 148 343 c 0
 148 342 135 261 135 215 c 0
 135 142 145 106 170 82 c 0
 176 76 184 69 203 69 c 0
 222 69 244 77 256 89 c 2
 265 97 l 1
 279 96 l 2
 310 93 313 82 313 73 c 0
 313 40 307 35 298 27 c 0
 292 22 262 4 262 6 c 0
 262 8 237 -4 202 -4 c 0
 179 -4 157 2 139 13 c 0
 118 27 113 31 96 55 c 0
 89 65 77 90 76 97 c 0
 75 100 73 109 71 117 c 0
 65 141 60 179 60 209 c 0
 60 215 66 312 69 320 c 0
 74 338 70 338 61 338 c 0
 55 338 32 337 32 337 c 0
 0 337 0 371 0 381 c 0
 0 399 16 404 16 404 c 0
 21 406 70 413 76 413 c 2
 77 413 l 2
 83 413 83 413 87 439 c 0
 99 516 122 581 122 582 c 0
 122 586 128 588 128 593 c 0
EndSplineSet
EndChar

StartChar: b
Encoding: 98 98 11
Width: 364
VWidth: 789
Flags: HW
AnchorPoint: "above" 169.5 632 basechar 0
LayerCount: 2
Fore
SplineSet
327 181 m 0
 327 161 309 117 309 116 c 0
 309 111 279 67 270 58 c 0
 256 44 218 24 198 19 c 0
 190 17 177 17 164 17 c 0
 120 17 96 35 95 35 c 0
 78 50 65 39 65 40 c 0
 65 44 51 29 40 35 c 0
 31 39 10 50 10 88 c 0
 10 89 17 156 20 221 c 0
 23 295 28 286 31 405 c 0
 32 439 34 473 34 474 c 0
 34 476 34 485 34 485 c 0
 34 505 38 520 40 564 c 0
 41 602 42 612 74 612 c 0
 92 612 98 608 103 597 c 0
 106 591 108 541 108 494 c 0
 108 453 108 452 103 379 c 2
 102 363 l 1
 109 369 l 2
 131 386 154 395 159 399 c 0
 165 404 194 411 209 411 c 0
 210 411 209 411 210 411 c 0
 245 411 257 403 257 403 c 0
 262 403 265 396 269 396 c 0
 270 396 300 376 311 336 c 0
 321 304 329 241 329 209 c 0
 329 189 327 208 327 181 c 0
253 214 m 0
 253 257 249 339 213 339 c 0
 212 339 157 334 126 269 c 0
 116 248 109 229 107 215 c 0
 107 214 91 142 91 133 c 2
 91 124 l 1
 109 111 l 2
 131 96 147 88 164 88 c 0
 188 88 253 110 253 214 c 0
EndSplineSet
EndChar

StartChar: u
Encoding: 117 117 12
Width: 417
VWidth: 546
Flags: HW
AnchorPoint: "above" 196.004 441 basechar 0
LayerCount: 2
Fore
SplineSet
280 387 m 0
 280 407 319 421 324 421 c 0
 333 421 344 421 358 390 c 0
 378 347 377 318 377 234 c 0
 377 226 377 128 342 84 c 0
 330 68 313 51 309 50 c 0
 308 50 275 25 206 10 c 0
 176 3 176 3 159 3 c 0
 118 3 54 12 30 88 c 0
 20 120 15 155 15 189 c 0
 15 229 22 245 23 272 c 0
 25 306 33 309 36 325 c 0
 41 346 43 350 43 356 c 0
 43 363 58 399 62 404 c 0
 67 410 74 414 74 413 c 0
 74 411 76 415 80 415 c 0
 81 415 126 405 126 389 c 0
 126 380 123 381 123 366 c 0
 123 361 104 304 102 281 c 0
 98 236 92 225 92 206 c 0
 92 171 92 117 114 90 c 0
 122 81 124 79 159 79 c 0
 188 79 224 87 245 98 c 0
 279 117 291 134 297 176 c 0
 303 216 302 216 302 239 c 0
 302 305 299 283 298 317 c 0
 296 366 280 373 280 387 c 0
EndSplineSet
EndChar

StartChar: v
Encoding: 118 118 13
Width: 372
VWidth: 559
Flags: HW
AnchorPoint: "above" 178.5 444.482 basechar 0
LayerCount: 2
Fore
SplineSet
70 375 m 0
 70 372 77 360 77 352 c 0
 77 344 92 315 112 234 c 0
 129 166 129 166 149 104 c 2
 155 87 l 1
 173 124 l 1
 263 308 255 382 288 415 c 0
 293 420 298 423 298 423 c 1
 298 421 304 426 310 424 c 0
 316 422 346 404 348 401 c 0
 350 398 352 395 352 391 c 0
 352 381 350 390 317 286 c 0
 282 176 280 174 235 83 c 0
 220 53 207 28 207 27 c 0
 206 22 187 -6 181 -11 c 0
 176 -15 147 -22 142 -22 c 0
 124 -22 102 7 101 14 c 0
 99 22 91 39 83 64 c 0
 80 74 75 92 71 103 c 0
 49 171 28 268 12 325 c 0
 8 339 5 371 5 380 c 0
 5 385 8 403 43 403 c 0
 54 403 60 401 60 396 c 0
 60 391 64 391 64 386 c 0
 64 381 70 378 70 375 c 0
EndSplineSet
EndChar

StartChar: w
Encoding: 119 119 14
Width: 480
VWidth: 608
Flags: HW
AnchorPoint: "above" 230 483.025 basechar 0
LayerCount: 2
Fore
SplineSet
364 381 m 0
 364 413 359 393 359 417 c 0
 359 430 362 446 366 450 c 0
 371 455 384 468 398 461 c 0
 401 459 404 458 405 458 c 0
 410 458 412 458 414 456 c 0
 415 455 418 452 421 450 c 0
 437 440 440 406 440 395 c 0
 440 387 438 391 438 380 c 0
 438 373 439 374 439 362 c 0
 439 325 433 237 433 223 c 0
 433 181 410 105 408 103 c 0
 404 96 389 47 361 18 c 0
 355 12 350 7 350 6 c 0
 350 5 341 -1 331 -8 c 2
 312 -21 l 1
 295 -21 l 2
 279 -21 268 -19 268 -15 c 0
 268 -14 266 -13 265 -13 c 0
 250 -13 216 40 216 43 c 0
 216 46 212 50 204 75 c 0
 198 93 l 0
 194 93 166 10 113 10 c 0
 63 10 45 62 45 63 c 0
 45 73 20 91 20 266 c 0
 20 272 20 278 20 284 c 2
 20 363 l 1
 25 373 l 2
 32 387 35 389 53 389 c 0
 75 389 82 384 82 369 c 0
 82 353 85 389 92 256 c 0
 94 222 104 94 112 94 c 0
 122 94 159 199 159 200 c 0
 159 201 175 239 201 239 c 0
 212 239 229 237 235 225 c 0
 238 218 244 218 244 213 c 0
 244 208 249 204 249 190 c 0
 250 179 255 155 257 152 c 0
 262 145 265 106 284 71 c 0
 289 61 291 57 294 57 c 0
 296 57 299 60 304 65 c 0
 323 85 331 105 346 154 c 0
 364 213 355 244 361 286 c 0
 363 299 364 357 364 381 c 0
EndSplineSet
EndChar

StartChar: x
Encoding: 120 120 15
Width: 397
VWidth: 542
Flags: HW
AnchorPoint: "above" 193.5 441 basechar 0
LayerCount: 2
Fore
SplineSet
296 421 m 0
 299 421 341 407 341 394 c 0
 341 381 326 351 315 341 c 0
 313 339 279 291 279 290 c 0
 260 268 236 239 230 234 c 0
 230 233 l 2
 224 226 228 227 217 214 c 1
 228 205 270 178 299 154 c 0
 329 127 334 123 365 76 c 0
 373 62 377 57 377 49 c 0
 377 40 371 35 357 26 c 0
 347 19 341 16 333 16 c 0
 326 16 317 16 291 51 c 0
 277 71 210 125 167 153 c 1
 156 141 140 124 91 74 c 0
 84 67 77 54 68 49 c 0
 59 48 58 35 45 35 c 0
 39 35 21 45 16 49 c 0
 12 52 10 59 10 66 c 0
 10 73 12 79 15 87 c 0
 35 127 36 115 40 123 c 0
 48 139 70 154 100 194 c 2
 100 194 103 198 105 201 c 1
 70 236 61 244 61 250 c 0
 58 256 43 269 32 293 c 0
 16 330 11 343 11 379 c 0
 11 395 23 397 36 400 c 0
 46 403 l 1
 46 396 50 397 50 404 c 1
 58 398 68 391 76 368 c 0
 84 343 116 295 153 262 c 1
 159 269 176 288 179 290 c 0
 181 292 224 347 224 348 c 0
 224 349 268 410 284 418 c 0
 288 419 292 421 296 421 c 0
EndSplineSet
EndChar

StartChar: y
Encoding: 121 121 16
Width: 429
VWidth: 513
Flags: HW
AnchorPoint: "above" 197.5 378 basechar 0
LayerCount: 2
Fore
SplineSet
349 352 m 0
 354 352 381 346 381 322 c 0
 381 313 379 297 379 287 c 0
 379 273 399 194 399 132 c 0
 399 79 394 47 388 15 c 0
 384 -4 375 -22 372 -36 c 1
 372 -54 335 -111 335 -111 c 0
 292 -162 238 -163 200 -163 c 2
 192 -163 l 2
 127 -163 49 -129 22 -105 c 0
 13 -97 14 -99 11 -95 c 0
 2 -84 -4 -66 -4 -54 c 0
 -4 -33 13 -27 16 -27 c 0
 17 -27 17 -28 18 -28 c 0
 21 -27 23 -26 26 -26 c 0
 41 -26 68 -54 115 -71 c 0
 164 -87 165 -88 220 -88 c 0
 232 -88 234 -88 237 -87 c 0
 244 -84 267 -72 268 -71 c 0
 271 -66 281 -55 290 -40 c 0
 291 -39 319 14 322 91 c 0
 322 91 322 95 322 100 c 1
 296 70 259 43 220 26 c 0
 187 11 193 18 178 13 c 0
 174 10 165 8 152 8 c 0
 81 8 62 56 51 87 c 0
 43 108 42 116 42 133 c 0
 42 153 39 147 39 170 c 0
 39 230 40 231 51 314 c 0
 55 342 55 343 63 350 c 0
 69 356 72 358 82 358 c 0
 83 358 84 358 85 358 c 0
 116 358 124 357 124 295 c 0
 124 268 118 245 118 180 c 0
 118 163 118 113 130 87 c 0
 131 85 140 71 148 71 c 0
 197 71 281 147 293 185 c 1
 293 189 295 195 298 202 c 0
 302 213 302 212 302 256 c 2
 302 291 302 291 307 331 c 0
 307 341 324 350 334 350 c 0
 338 350 345 352 349 352 c 0
EndSplineSet
EndChar

StartChar: z
Encoding: 122 122 17
Width: 380
VWidth: 497
Flags: HW
AnchorPoint: "above" 180 404 basechar 0
LayerCount: 2
Fore
SplineSet
319 18 m 0
 328 18 345 20 345 39 c 2
 345 41 l 2
 345 49 346 58 346 58 c 0
 346 63 338 71 334 73 c 0
 333 73 263 89 246 89 c 0
 245 89 245 89 244 89 c 0
 234 89 211 88 211 88 c 0
 211 87 210 83 205 83 c 0
 200 83 198 89 198 89 c 0
 159 87 167 84 154 84 c 2
 153 84 l 2
 152 84 l 0
 145 84 137 83 99 78 c 1
 121 97 121 97 122 97 c 0
 135 108 217 199 228 214 c 0
 234 222 303 296 313 300 c 0
 315 301 321 310 330 317 c 0
 336 318 346 331 348 336 c 1
 348 344 l 1
 350 344 l 2
 350 345 350 345 350 346 c 0
 350 347 350 347 348 349 c 1
 347 359 345 352 342 362 c 0
 341 364 340 362 338 368 c 0
 337 372 335 372 332 373 c 1
 325 383 297 384 198 384 c 0
 197 384 122 384 95 380 c 0
 94 381 92 381 80 381 c 0
 53 381 34 377 34 377 c 0
 29 377 24 378 20 378 c 0
 16 378 16 377 13 374 c 0
 12 374 0 371 0 360 c 0
 0 353 4 342 4 335 c 0
 4 327 10 317 40 317 c 0
 41 317 149 323 170 323 c 0
 170 323 176 322 178 322 c 2
 242 325 l 1
 220 305 220 305 218 304 c 0
 216 303 197 274 192 273 c 0
 173 258 156 229 147 223 c 0
 146 223 111 180 91 162 c 0
 90 161 33 105 30 100 c 0
 30 100 21 87 20 85 c 0
 12 71 9 67 9 47 c 0
 9 33 18 27 18 22 c 0
 24 15 42 9 52 9 c 0
 53 9 l 0
 54 9 54 9 56 11 c 1
 100 15 93 16 93 16 c 0
 93 24 94 24 94 16 c 1
 99 16 111 20 120 20 c 0
 125 20 153 25 174 25 c 0
 175 25 l 2
 180 25 198 29 236 29 c 0
 262 29 259 26 267 26 c 0
 276 26 304 18 319 18 c 0
342 355 m 1
 342 355 l 1
351 329 m 1
 360 328 l 1
 355 333 l 1
 351 329 l 1
9 374 m 1
 9 367 9 366 9 374 c 1
EndSplineSet
EndChar

StartChar: c
Encoding: 99 99 18
Width: 363
VWidth: 608
Flags: HW
AnchorPoint: "above" 174 492 basechar 0
LayerCount: 2
Fore
SplineSet
175 465 m 0
 181 465 183 472 212 472 c 0
 247 472 248 463 251 463 c 0
 251 463 271 455 282 435 c 0
 291 419 313 390 313 384 c 0
 313 378 319 374 319 365 c 0
 319 361 318 356 316 348 c 0
 311 330 290 329 290 329 c 0
 288 329 287 330 287 332 c 0
 287 334 274 339 268 342 c 0
 256 349 232 398 214 398 c 0
 190 398 133 334 106 261 c 0
 104 255 100 248 99 246 c 0
 92 235 88 202 88 172 c 0
 88 151 88 89 143 89 c 0
 178 89 300 120 307 120 c 0
 327 120 338 86 338 77 c 0
 338 58 317 55 317 51 c 0
 317 50 245 24 218 24 c 0
 207 24 201 16 154 16 c 0
 92 16 78 31 78 32 c 0
 78 33 77 34 75 34 c 0
 74 34 19 67 12 138 c 0
 11 152 10 162 10 171 c 0
 10 206 26 268 28 270 c 0
 30 273 40 300 44 306 c 0
 45 308 50 316 53 324 c 0
 66 355 95 398 120 425 c 0
 132 438 169 465 175 465 c 0
EndSplineSet
EndChar

StartChar: d
Encoding: 100 100 19
Width: 406
VWidth: 842
Flags: HW
AnchorPoint: "above" 190.5 671.241 basechar 0
LayerCount: 2
Fore
SplineSet
241 394 m 0
 271 394 293 382 293 382 c 0
 293 382 293 398 294 417 c 0
 299 507 314 620 322 626 c 0
 323 627 324 630 324 633 c 0
 324 636 325 639 326 639 c 0
 331 642 332 653 342 651 c 0
 345 650 352 650 358 649 c 0
 368 648 369 647 381 635 c 1
 379 613 l 2
 379 609 361 260 361 245 c 0
 361 244 362 220 362 169 c 0
 362 96 362 42 345 35 c 0
 341 34 324 33 310 33 c 0
 285 33 297 42 280 34 c 0
 257 24 185 11 146 11 c 0
 98 11 61 23 30 51 c 0
 29 52 0 83 0 132 c 0
 0 194 14 231 15 232 c 0
 16 233 37 304 94 351 c 0
 101 357 129 374 132 374 c 0
 135 374 157 385 170 386 c 0
 184 387 204 394 241 394 c 0
280 120 m 2
 280 134 283 201 283 233 c 0
 283 238 283 304 255 319 c 0
 252 321 245 322 236 322 c 0
 229 322 173 321 136 292 c 0
 116 276 74 213 74 149 c 0
 74 92 94 84 160 84 c 0
 187 84 245 96 267 106 c 2
 280 111 l 1
 280 120 l 2
EndSplineSet
EndChar

StartChar: e
Encoding: 101 101 20
Width: 400
VWidth: 574
Flags: HW
AnchorPoint: "above" 192.5 463 basechar 0
LayerCount: 2
Fore
SplineSet
187 435 m 0
 188 435 218 443 239 443 c 0
 240 443 299 443 346 396 c 0
 370 372 380 350 380 316 c 0
 380 278 372 262 363 248 c 0
 355 236 332 211 329 211 c 0
 318 209 314 201 272 197 c 0
 213 192 186 189 142 189 c 0
 91 189 114 197 95 197 c 0
 87 197 87 198 80 209 c 1
 80 207 75 185 75 159 c 0
 75 136 101 79 154 79 c 0
 210 79 265 92 274 92 c 0
 277 92 281 91 288 90 c 0
 308 88 312 56 312 56 c 0
 312 47 307 51 303 42 c 0
 301 37 292 28 289 28 c 0
 288 28 250 7 171 7 c 0
 144 7 119 10 104 16 c 0
 25 50 12 112 12 113 c 0
 11 125 5 136 5 165 c 0
 5 167 7 284 64 344 c 0
 68 348 73 355 74 358 c 0
 80 370 124 408 148 420 c 0
 160 426 184 435 187 435 c 0
298 341 m 0
 298 342 275 373 238 373 c 0
 223 373 206 368 185 358 c 0
 124 329 97 262 97 261 c 0
 97 260 97 260 101 260 c 0
 132 260 214 270 248 272 c 0
 284 274 285 275 293 285 c 0
 298 291 303 296 303 317 c 0
 303 327 301 336 298 341 c 0
EndSplineSet
EndChar

StartChar: f
Encoding: 102 102 21
Width: 327
VWidth: 769
Flags: HW
AnchorPoint: "above" 199.5 612 basechar 0
LayerCount: 2
Fore
SplineSet
217 589 m 0
 217 592 240 592 241 592 c 0
 256 592 275 591 281 590 c 0
 282 590 357 574 386 539 c 0
 390 534 394 530 394 529 c 0
 394 526 399 516 399 510 c 0
 399 501 386 485 375 483 c 0
 363 481 363 475 350 477 c 0
 330 479 343 489 302 505 c 0
 289 510 277 515 239 515 c 0
 195 515 179 474 174 402 c 2
 173 382 l 1
 192 383 l 2
 222 385 237 386 245 386 c 0
 261 386 268 375 270 348 c 2
 271 330 l 1
 263 323 l 2
 254 315 250 314 185 309 c 2
 173 308 l 1
 174 299 l 2
 174 297 187 132 189 122 c 0
 194 92 194 35 194 34 c 0
 194 14 184 7 184 7 c 0
 181 5 150 1 143 1 c 0
 115 1 114 56 114 62 c 0
 114 103 97 305 96 306 c 0
 95 307 83 308 68 308 c 0
 13 308 5 323 4 323 c 0
 4 323 0 341 0 347 c 0
 0 355 0 377 82 382 c 2
 98 383 l 1
 98 408 l 2
 99 434 102 463 105 466 c 0
 107 468 114 496 113 496 c 0
 113 496 115 505 126 523 c 0
 143 552 154 563 180 576 c 0
 207 590 217 586 217 589 c 0
EndSplineSet
EndChar

StartChar: g
Encoding: 103 103 22
Width: 399
VWidth: 615
Flags: HW
AnchorPoint: "above" 139 437 basechar 0
LayerCount: 2
Fore
SplineSet
114 389 m 0
 119 389 143 417 207 417 c 0
 247 417 251 408 257 408 c 0
 261 408 272 401 282 399 c 0
 283 399 314 384 323 367 c 0
 325 363 330 355 333 350 c 0
 338 342 339 339 339 329 c 0
 339 304 323 288 326 284 c 0
 327 283 333 281 337 281 c 0
 339 281 356 264 359 259 c 0
 362 254 364 238 364 220 c 0
 364 185 359 178 359 160 c 0
 359 140 364 107 364 58 c 0
 364 42 363 30 362 24 c 0
 358 9 356 -22 348 -45 c 0
 345 -55 343 -66 342 -71 c 0
 342 -72 325 -138 269 -195 c 0
 266 -198 263 -201 263 -202 c 0
 263 -206 207 -238 189 -238 c 0
 188 -238 168 -246 124 -246 c 0
 89 -246 68 -234 57 -234 c 0
 53 -234 11 -215 -8 -204 c 0
 -22 -196 -54 -169 -64 -156 c 0
 -72 -146 -86 -128 -86 -94 c 0
 -86 -77 -70 -64 -61 -64 c 0
 -58 -64 -47 -53 -47 -50 c 0
 -47 -49 -40 -49 -43 -59 c 0
 -47 -73 -34 -56 -21 -86 c 0
 -16 -97 5 -120 18 -131 c 0
 49 -155 102 -172 143 -172 c 0
 170 -172 201 -158 222 -136 c 0
 277 -78 291 44 289 48 c 0
 288 49 256 25 228 17 c 0
 205 10 185 7 163 7 c 0
 146 7 133 10 126 14 c 0
 118 19 108 20 108 22 c 0
 108 23 108 23 106 23 c 0
 97 23 60 55 49 72 c 0
 48 74 15 125 15 187 c 0
 15 225 23 269 26 272 c 0
 36 287 43 331 83 363 c 0
 83 363 113 389 114 389 c 0
279 287 m 0
 279 304 274 310 274 316 c 0
 274 328 226 345 206 345 c 0
 204 345 91 335 91 190 c 0
 91 131 121 83 170 83 c 0
 234 83 263 131 264 132 c 0
 270 142 278 170 280 174 c 0
 281 175 281 184 281 195 c 0
 281 198 281 217 281 217 c 0
 281 232 281 240 283 246 c 0
 286 256 286 257 281 260 c 0
 277 263 276 263 277 272 c 0
 278 277 279 282 279 287 c 0
EndSplineSet
EndChar

StartChar: h
Encoding: 104 104 23
Width: 369
VWidth: 759
Flags: HW
AnchorPoint: "above" 174.5 606 basechar 0
LayerCount: 2
Fore
SplineSet
28 517 m 0
 28 584 35 586 61 586 c 0
 75 586 75 586 82 580 c 2
 89 573 l 1
 90 551 l 1
 107 330 102 330 103 330 c 0
 103 330 103 333 107 334 c 0
 112 335 114 347 125 357 c 0
 140 371 142 374 144 374 c 0
 147 374 151 381 170 388 c 0
 171 388 214 404 222 404 c 0
 266 404 292 381 297 374 c 0
 301 369 304 365 305 365 c 0
 309 363 329 320 329 244 c 0
 329 225 327 214 327 174 c 0
 327 173 327 140 327 113 c 0
 327 26 327 24 317 14 c 0
 307 4 306 10 306 7 c 0
 306 6 305 5 303 5 c 0
 298 5 289 8 277 12 c 0
 258 19 253 22 253 33 c 0
 253 33 254 40 254 67 c 0
 254 68 254 105 254 139 c 0
 254 184 254 236 254 237 c 0
 254 255 251 293 249 308 c 0
 248 318 246 320 233 330 c 1
 217 326 l 2
 196 322 179 311 169 296 c 0
 126 229 107 129 106 96 c 0
 106 87 103 46 83 41 c 0
 75 39 73 33 62 33 c 0
 57 33 54 35 43 43 c 0
 28 54 26 56 23 77 c 0
 21 91 20 106 20 125 c 0
 20 127 27 276 27 374 c 0
 27 400 27 418 26 424 c 0
 24 438 28 420 28 453 c 0
 28 454 28 512 28 517 c 0
EndSplineSet
EndChar

StartChar: i
Encoding: 105 105 24
Width: 209
VWidth: 625
Flags: HW
AnchorPoint: "above" 94.5383 509 basechar 0
LayerCount: 2
Fore
SplineSet
37 395 m 0
 15 395 10 433 10 435 c 0
 10 444 14 451 22 455 c 0
 26 457 32 462 35 464 c 0
 36 465 68 489 112 489 c 0
 144 489 178 460 178 459 c 0
 178 458 179 456 179 453 c 0
 180 449 171 422 164 415 c 0
 161 412 158 409 158 408 c 0
 157 405 144 403 140 403 c 0
 129 403 121 413 107 413 c 0
 103 413 67 402 63 402 c 0
 57 402 44 395 37 395 c 0
121 250 m 0
 121 218 116 221 116 181 c 0
 116 180 120 96 130 76 c 2
 135 65 l 1
 130 55 128 49 124 48 c 0
 110 43 117 33 92 33 c 0
 74 33 52 34 46 109 c 0
 43 148 41 139 41 173 c 0
 41 174 41 288 57 311 c 2
 62 318 l 1
 81 318 l 2
 97 318 101 317 106 314 c 0
 110 312 113 309 113 307 c 0
 113 302 121 294 121 250 c 0
EndSplineSet
EndChar

StartChar: j
Encoding: 106 106 25
Width: 228
VWidth: 731
Flags: HW
AnchorPoint: "above" 125 537 basechar 0
LayerCount: 2
Fore
SplineSet
116 93 m 0
 116 174 108 209 108 210 c 0
 108 211 108 213 108 215 c 0
 108 218 108 218 108 218 c 1
 102 224 103 243 100 258 c 0
 99 259 95 266 95 304 c 0
 95 321 95 345 145 345 c 0
 148 345 155 345 163 334 c 0
 166 330 173 274 176 265 c 0
 178 263 179 260 179 258 c 0
 179 256 178 255 178 254 c 0
 178 249 184 220 184 214 c 0
 184 205 187 210 187 191 c 0
 187 155 192 172 192 136 c 0
 192 130 191 111 191 96 c 0
 191 89 192 56 192 56 c 0
 192 43 191 38 191 38 c 0
 192 36 193 34 193 32 c 0
 193 31 185 -63 165 -91 c 0
 163 -94 163 -97 163 -97 c 0
 163 -98 163 -98 163 -99 c 0
 163 -103 163 -103 151 -119 c 0
 149 -128 114 -159 111 -163 c 0
 109 -171 75 -182 60 -190 c 0
 57 -194 15 -203 8 -203 c 0
 -6 -203 -31 -201 -39 -198 c 0
 -40 -199 -41 -199 -43 -199 c 0
 -43 -199 -70 -187 -85 -177 c 0
 -103 -165 -104 -163 -104 -163 c 0
 -106 -163 -109 -163 -121 -151 c 0
 -128 -145 -131 -136 -131 -117 c 0
 -131 -100 -126 -95 -111 -88 c 0
 -104 -85 -100 -83 -94 -83 c 0
 -91 -83 -70 -86 -64 -96 c 0
 -57 -108 -41 -118 -25 -121 c 0
 -9 -123 -13 -125 -8 -125 c 0
 -7 -125 36 -118 64 -97 c 1
 67 -87 78 -86 95 -56 c 0
 115 -19 116 13 116 93 c 0
117 382 m 0
 97 382 65 400 65 438 c 0
 65 450 78 484 80 487 c 0
 81 499 120 517 131 517 c 0
 135 517 151 514 156 504 c 0
 163 493 185 484 185 461 c 0
 185 455 185 436 177 425 c 0
 177 424 173 419 171 415 c 0
 167 408 145 386 137 386 c 0
 137 386 133 382 117 382 c 0
EndSplineSet
EndChar

StartChar: quotedblright
Encoding: 8221 8221 27
Width: 294
VWidth: 818
Flags: W
LayerCount: 2
Fore
SplineSet
143 668 m 0
 143 678 137 681 137 694 c 0
 137 708 146 711 148 717 c 0
 150 725 163 727 165 727 c 0
 171 727 205 708 205 706 c 0
 204 703 219 699 221 693 c 0
 221 692 254 647 254 646 c 0
 254 646 266 613 268 613 c 0
 269 613 274 583 274 577 c 0
 274 577 273 532 271 532 c 0
 265 532 261 513 241 513 c 0
 231 513 223 518 219 519 c 0
 205 522 201 529 198 556 c 0
 197 565 196 573 196 577 c 0
 196 581 197 579 197 581 c 0
 197 590 177 633 176 633 c 0
 174 633 168 647 166 647 c 0
 163 647 154 659 151 659 c 0
 148 659 143 666 143 668 c 0
0 636 m 0
 0 677 11 678 20 678 c 0
 20 678 66 677 68 671 c 0
 69 669 68 669 71 669 c 0
 82 669 102 633 106 633 c 0
 109 633 108 633 108 627 c 0
 108 621 134 587 134 576 c 0
 135 566 142 563 142 560 c 0
 142 557 148 547 149 540 c 0
 150 534 159 494 159 489 c 0
 159 489 157 468 157 462 c 0
 156 443 155 442 150 442 c 0
 145 442 143 437 134 436 c 0
 131 436 128 435 128 434 c 0
 128 432 124 435 124 433 c 0
 124 431 115 429 110 429 c 0
 107 429 94 435 94 439 c 0
 94 441 93 442 91 442 c 0
 76 442 74 497 74 498 c 0
 72 504 74 508 69 513 c 0
 63 519 62 544 58 549 c 0
 56 552 43 579 43 581 c 0
 43 583 9 616 4 619 c 0
 1 621 0 624 0 636 c 0
EndSplineSet
EndChar

StartChar: Aring
Encoding: 197 197 29
Width: 460
VWidth: 1100
Flags: HW
AnchorPoint: "above" 217.5 859 basechar 0
LayerCount: 2
Fore
SplineSet
221 473 m 0
 259 473 315 350 315 320 c 0
 315 310 306 309 294 308 c 0
 192 297 145 289 143 289 c 0
 141 289 133 291 133 300 c 0
 133 302 157 413 203 462 c 0
 208 467 214 473 221 473 c 0
356 55 m 0
 356 12 352 1 352 -0 c 0
 352 -3 357 -19 361 -20 c 0
 373 -23 375 -29 380 -31 c 0
 388 -31 398 -32 402 -33 c 0
 405 -32 416 -26 420 -23 c 0
 424 -16 422 -14 426 -9 c 0
 435 2 427 12 434 23 c 0
 434 25 435 30 435 35 c 0
 435 128 421 193 398 306 c 0
 386 361 362 425 335 468 c 0
 325 485 300 519 293 525 c 0
 286 527 282 535 264 546 c 0
 257 550 242 559 213 559 c 0
 189 559 188 558 184 554 c 0
 175 543 165 539 155 528 c 1
 153 516 136 516 103 438 c 0
 72 370 58 315 57 314 c 0
 53 306 31 220 28 201 c 0
 24 177 19 148 15 126 c 0
 15 125 0 42 0 1 c 0
 0 -37 0 -38 31 -38 c 0
 43 -38 56 -37 60 -36 c 0
 65 -30 67 -22 67 -21 c 0
 67 -10 74 -5 83 52 c 0
 91 103 105 180 105 181 c 2
 105 182 105 186 105 190 c 2
 105 206 l 1
 132 206 l 2
 156 206 161 210 215 213 c 0
 252 215 269 219 331 230 c 1
 345 194 342 162 353 103 c 0
 355 93 356 74 356 55 c 0
242 769 m 2
 243 769 l 2
 255 769 263 749 263 735 c 0
 263 716 248 687 237 676 c 0
 227 666 221 664 183 647 c 1
 183 657 174 667 174 657 c 1
 168 663 167 672 167 685 c 0
 167 707 168 731 186 753 c 0
 191 759 197 766 205 766 c 0
 210 766 212 763 216 763 c 0
 220 765 236 768 242 769 c 2
316 692 m 1
 316 702 322 709 322 736 c 0
 322 744 320 765 319 771 c 0
 318 777 302 808 295 818 c 0
 292 821 280 829 266 837 c 1
 266 837 257 839 246 839 c 0
 220 839 182 821 182 820 c 0
 182 820 147 798 137 783 c 0
 136 782 115 752 111 698 c 0
 110 688 111 682 110 678 c 0
 111 673 116 645 118 638 c 0
 122 627 144 602 151 598 c 0
 163 592 183 588 188 588 c 0
 206 588 243 604 244 604 c 0
 253 609 271 626 279 630 c 0
 285 634 311 672 316 692 c 1
EndSplineSet
EndChar

StartChar: Udieresis
Encoding: 220 220 30
Width: 433
VWidth: 1007
Flags: HW
AnchorPoint: "above" 206.5 785 basechar 0
LayerCount: 2
Fore
SplineSet
302 143 m 0
 302 142 297 55 206 55 c 0
 103 55 100 218 98 387 c 0
 96 549 96 549 90 552 c 0
 83 556 56 559 52 559 c 0
 51 559 l 0
 47 559 40 544 39 538 c 0
 39 526 33 527 31 504 c 0
 31 502 20 411 20 348 c 0
 20 346 22 198 41 120 c 1
 50 106 55 68 74 40 c 0
 74 39 82 28 83 22 c 0
 86 18 105 -4 115 -11 c 0
 123 -15 142 -25 145 -29 c 0
 148 -31 181 -43 211 -43 c 0
 226 -43 226 -43 272 -32 c 0
 278 -30 293 -19 301 -19 c 1
 320 -9 354 39 355 40 c 0
 388 103 391 192 393 413 c 0
 393 416 393 419 393 422 c 0
 393 462 390 516 388 532 c 0
 386 541 375 562 372 564 c 0
 367 567 362 568 360 568 c 0
 358 568 355 565 346 564 c 0
 332 562 338 559 326 554 c 0
 312 548 312 548 308 537 c 0
 308 519 315 531 315 461 c 0
 315 458 313 213 308 196 c 0
 308 195 302 166 302 143 c 0
55 703 m 0
 55 695 85 660 93 660 c 0
 105 660 147 701 152 708 c 0
 153 710 155 717 155 720 c 0
 155 721 155 722 155 722 c 0
 155 726 154 728 143 743 c 0
 128 764 125 764 116 764 c 0
 115 764 116 764 115 764 c 0
 107 764 55 729 55 705 c 0
 55 704 55 704 55 703 c 0
233 697 m 0
 233 696 235 648 279 648 c 0
 282 648 292 647 308 655 c 0
 311 658 314 660 318 663 c 0
 327 669 341 686 343 695 c 0
 349 722 349 722 349 724 c 0
 349 731 341 746 335 750 c 0
 329 754 314 757 287 765 c 1
 260 749 248 743 236 709 c 0
 234 705 233 701 233 697 c 0
EndSplineSet
EndChar

StartChar: uni226A
Encoding: 8810 8810 31
Width: 579
VWidth: 797
Flags: W
LayerCount: 2
Fore
SplineSet
554 112 m 0
 554 120 559 125 559 127 c 0
 559 141 493 187 474 206 c 0
 457 222 369 281 364 300 c 1
 357 309 357 309 327 339 c 1
 335 346 l 2
 345 355 386 392 387 392 c 0
 407 410 439 437 448 446 c 0
 457 455 521 506 522 506 c 0
 523 507 529 521 529 522 c 0
 529 525 529 527 517 540 c 0
 500 558 496 560 486 560 c 0
 484 560 484 561 476 560 c 0
 467 559 471 563 421 518 c 0
 377 479 358 462 345 453 c 0
 332 444 281 399 275 396 c 0
 272 393 258 377 254 372 c 0
 249 364 251 345 248 320 c 0
 249 313 263 290 267 284 c 0
 279 276 306 249 312 238 c 0
 322 219 385 179 414 152 c 0
 424 143 497 78 518 78 c 0
 522 78 526 79 533 83 c 0
 536 85 550 93 550 93 c 0
 552 94 557 101 557 104 c 0
 557 105 554 107 554 112 c 0
310 114 m 0
 310 120 296 139 288 139 c 0
 285 139 278 139 262 160 c 0
 230 200 171 259 134 287 c 0
 91 320 87 324 87 332 c 0
 87 340 87 340 219 458 c 0
 244 481 296 534 306 546 c 0
 308 554 329 571 329 575 c 0
 329 580 298 612 292 612 c 0
 288 612 289 610 273 602 c 0
 259 594 237 567 228 565 c 0
 224 562 219 556 202 543 c 0
 168 517 112 459 104 457 c 0
 103 456 21 388 8 364 c 0
 4 357 0 347 0 345 c 0
 0 340 16 297 24 286 c 0
 27 282 29 277 31 273 c 0
 51 246 97 225 168 146 c 0
 217 91 249 62 269 62 c 0
 283 62 279 72 294 72 c 0
 299 75 302 82 302 84 c 0
 302 97 310 107 310 114 c 0
EndSplineSet
EndChar

StartChar: uni226B
Encoding: 8811 8811 32
Width: 580
VWidth: 797
Flags: W
LayerCount: 2
Fore
SplineSet
5 112 m 0
 5 107 3 105 3 104 c 0
 3 101 7 95 10 93 c 0
 14 91 21 86 26 83 c 0
 33 79 38 78 42 78 c 0
 63 78 135 142 145 152 c 0
 174 180 238 220 248 239 c 0
 254 250 282 277 293 284 c 0
 293 284 311 311 312 320 c 0
 309 345 311 364 306 372 c 0
 306 372 293 390 282 399 c 0
 269 409 226 446 215 454 c 0
 206 460 201 463 137 520 c 0
 89 563 93 559 84 560 c 0
 75 561 75 560 73 560 c 0
 68 560 66 559 63 558 c 0
 63 558 31 532 31 523 c 0
 31 522 l 0
 31 521 36 507 38 506 c 0
 49 499 72 478 91 464 c 0
 101 456 205 364 206 363 c 2
 233 339 l 1
 225 331 l 2
 206 312 201 306 196 300 c 0
 193 288 149 254 129 240 c 0
 86 209 82 201 48 175 c 0
 36 166 0 137 0 127 c 0
 0 125 5 120 5 112 c 0
272 139 m 0
 264 139 250 120 250 114 c 0
 250 107 257 97 257 84 c 0
 257 82 261 75 266 72 c 0
 268 72 278 72 281 65 c 0
 283 64 289 62 293 62 c 0
 299 62 322 73 346 97 c 0
 382 132 417 180 481 229 c 0
 501 245 523 266 528 272 c 0
 530 274 556 321 560 345 c 1
 552 372 544 379 501 418 c 0
 481 436 462 453 456 457 c 0
 448 459 392 517 358 543 c 0
 341 556 336 562 332 565 c 0
 323 567 301 594 287 602 c 0
 270 610 273 612 268 612 c 0
 260 612 231 579 231 575 c 0
 231 570 250 556 253 547 c 0
 303 487 458 357 470 340 c 0
 471 339 473 337 473 332 c 0
 473 324 470 320 426 287 c 0
 389 259 330 200 298 160 c 0
 293 154 282 139 272 139 c 0
EndSplineSet
EndChar

StartChar: uni203D
Encoding: 8253 8253 33
Width: 432
VWidth: 1123
Flags: W
LayerCount: 2
Fore
SplineSet
193 -14 m 0
 194 -14 254 1 254 62 c 0
 254 66 251 64 248 72 c 1
 246 73 238 77 237 86 c 1
 230 93 213 98 203 98 c 0
 191 98 159 73 154 67 c 1
 154 61 145 53 145 36 c 0
 145 32 148 28 149 20 c 0
 154 -5 192 -14 193 -14 c 0
332 587 m 0
 332 547 302 501 267 487 c 0
 260 484 252 481 245 478 c 1
 245 682 l 1
 274 687 275 687 281 687 c 0
 307 687 315 665 322 643 c 0
 328 625 332 604 332 587 c 0
237 341 m 1
 271 405 273 408 285 409 c 2
 285 409 l 1
 285 409 l 1
 285 409 289 410 318 425 c 0
 328 431 370 473 379 486 c 0
 379 486 381 493 386 497 c 0
 395 511 409 550 410 559 c 0
 411 569 412 579 412 588 c 0
 412 669 365 732 364 733 c 0
 362 734 357 736 354 742 c 1
 344 743 336 755 319 760 c 0
 319 760 296 765 282 765 c 0
 279 765 278 765 251 763 c 1
 243 821 243 825 241 835 c 0
 236 840 239 842 234 846 c 0
 232 848 232 848 226 848 c 0
 216 848 187 845 175 842 c 1
 168 832 168 829 168 807 c 0
 168 805 168 787 168 787 c 0
 168 754 165 755 165 755 c 0
 165 754 165 752 165 749 c 2
 165 732 l 1
 122 707 96 692 73 666 c 0
 65 657 57 649 52 645 c 0
 51 645 46 638 44 633 c 0
 37 614 0 576 0 556 c 0
 0 542 43 521 48 521 c 0
 52 521 58 523 69 534 c 0
 75 541 88 554 97 563 c 0
 113 580 117 591 118 593 c 1
 118 603 130 615 134 619 c 2
 163 648 l 1
 166 584 166 584 166 570 c 0
 166 476 153 385 153 383 c 0
 153 365 158 351 158 322 c 0
 158 282 149 270 149 248 c 0
 149 248 149 239 150 221 c 1
 161 208 171 207 194 205 c 0
 211 205 224 216 232 217 c 0
 237 220 241 223 241 282 c 0
 241 302 241 304 237 341 c 1
EndSplineSet
EndChar

StartChar: Emacron
Encoding: 274 274 34
Width: 471
VWidth: 1039
Flags: HW
AnchorPoint: "above" 235.5 804 basechar 0
LayerCount: 2
Fore
SplineSet
102 333 m 1
 102 335 92 423 92 492 c 0
 92 493 92 495 92 496 c 0
 92 499 93 510 105 511 c 0
 107 511 309 524 324 524 c 0
 342 524 342 520 347 520 c 0
 350 520 360 523 371 523 c 0
 373 523 386 526 395 532 c 0
 395 532 397 553 397 575 c 0
 397 593 396 594 390 595 c 0
 377 598 379 603 370 603 c 0
 368 603 364 603 362 602 c 0
 351 599 201 595 145 590 c 0
 134 589 123 588 119 588 c 0
 93 587 77 573 42 570 c 0
 20 568 20 568 20 544 c 0
 20 498 21 383 22 358 c 1
 22 362 21 361 21 357 c 1
 22 354 23 348 23 296 c 0
 23 183 20 20 20 17 c 0
 20 -7 21 -23 22 -33 c 0
 23 -43 25 -52 25 -57 c 0
 33 -64 37 -64 58 -64 c 0
 127 -64 210 -35 380 -21 c 1
 401 -32 404 -33 412 -33 c 0
 424 -33 422 -25 438 -21 c 0
 444 -19 451 -12 451 12 c 0
 451 14 451 22 450 27 c 0
 426 45 435 44 427 46 c 0
 418 48 415 51 413 53 c 0
 401 55 381 56 372 56 c 0
 286 56 187 26 97 18 c 1
 99 200 101 266 101 270 c 1
 101 272 104 280 111 280 c 2
 117 279 123 277 125 277 c 0
 142 274 189 274 203 272 c 0
 217 270 214 264 222 264 c 0
 230 264 243 271 248 276 c 1
 249 285 258 300 258 309 c 0
 258 316 254 320 250 333 c 0
 248 339 242 337 234 345 c 0
 225 350 196 350 185 350 c 0
 184 350 130 350 123 345 c 0
 116 341 109 337 102 333 c 1
348 784 m 0
 347 784 306 771 278 771 c 0
 277 771 203 774 192 774 c 0
 149 774 125 766 103 766 c 0
 91 766 92 760 63 756 c 0
 40 753 39 751 39 732 c 0
 39 719 39 713 48 703 c 0
 50 703 54 701 58 697 c 0
 61 696 77 694 94 694 c 0
 137 694 127 701 188 701 c 0
 221 701 260 699 282 699 c 0
 282 699 306 699 313 700 c 0
 318 702 344 711 353 711 c 1
 360 712 366 717 368 719 c 0
 371 728 382 740 382 745 c 0
 382 751 361 775 353 783 c 0
 351 783 350 784 348 784 c 0
EndSplineSet
EndChar

StartChar: Ohungarumlaut
Encoding: 336 336 35
Width: 507
VWidth: 1118
Flags: HW
AnchorPoint: "above" 243.5 873 basechar 0
LayerCount: 2
Fore
SplineSet
256 502 m 0
 261 502 268 515 280 528 c 1
 284 528 l 2
 290 528 299 520 321 511 c 0
 334 506 352 486 358 471 c 0
 373 434 392 333 392 250 c 0
 392 211 388 194 373 162 c 0
 368 150 361 137 352 130 c 0
 348 127 338 118 331 112 c 0
 297 81 234 61 206 61 c 0
 199 61 194 63 186 66 c 0
 148 81 131 97 115 132 c 0
 105 153 93 178 93 248 c 0
 93 269 96 259 96 272 c 0
 96 302 112 371 125 403 c 0
 145 454 189 517 210 517 c 0
 218 517 221 513 230 510 c 0
 232 511 l 0
 234 511 234 510 256 502 c 0
462 166 m 1
 462 172 472 187 472 259 c 0
 472 311 446 438 446 440 c 0
 443 461 422 514 409 532 c 0
 360 597 264 610 262 610 c 0
 260 609 255 605 242 605 c 0
 217 605 228 589 197 589 c 0
 187 589 186 588 177 583 c 0
 172 580 166 577 162 575 c 0
 154 570 113 528 93 500 c 0
 75 474 61 435 54 427 c 1
 36 388 16 293 15 241 c 0
 18 217 13 178 24 142 c 0
 32 116 36 102 52 70 c 0
 54 66 55 62 56 58 c 0
 67 44 104 -1 147 -19 c 0
 156 -23 165 -27 169 -29 c 0
 173 -30 190 -31 208 -31 c 0
 208 -31 244 -31 253 -28 c 0
 259 -26 266 -25 270 -24 c 0
 290 -21 345 9 378 35 c 0
 388 43 416 72 422 80 c 0
 423 87 452 120 462 166 c 1
102 715 m 0
 102 704 130 687 133 687 c 0
 139 687 152 705 161 711 c 0
 167 717 180 738 207 767 c 0
 233 796 237 808 237 820 c 0
 237 822 236 824 236 824 c 0
 233 827 216 841 209 846 c 0
 204 845 199 844 195 840 c 0
 187 832 137 778 132 772 c 0
 132 772 102 734 102 715 c 0
279 712 m 0
 279 697 311 681 312 681 c 0
 328 681 343 711 354 713 c 1
 366 722 375 742 391 750 c 0
 398 754 417 772 422 779 c 0
 425 795 442 794 442 825 c 0
 442 827 442 828 438 832 c 0
 421 849 410 851 408 853 c 0
 395 853 348 800 340 798 c 0
 335 793 330 784 322 779 c 1
 310 767 292 742 291 740 c 0
 288 729 279 726 279 712 c 0
EndSplineSet
EndChar

StartChar: quotedblleft
Encoding: 8220 8220 36
Width: 289
VWidth: 798
Flags: W
LayerCount: 2
Fore
SplineSet
45 666 m 0
 45 669 53 672 53 675 c 0
 53 679 70 693 71 696 c 0
 72 698 101 710 115 710 c 0
 123 710 118 707 124 707 c 0
 127 707 141 677 141 665 c 0
 141 664 141 664 140 664 c 0
 139 664 138 663 138 661 c 0
 138 659 137 658 135 658 c 0
 133 658 132 657 132 656 c 0
 132 655 122 638 117 638 c 0
 110 638 100 624 92 600 c 0
 89 590 83 579 83 576 c 0
 83 572 78 570 78 567 c 0
 71 534 70 534 70 524 c 0
 70 500 32 497 32 497 c 0
 23 497 0 500 0 532 c 0
 0 572 16 601 16 607 c 0
 17 611 22 616 20 616 c 0
 18 616 26 626 24 626 c 0
 22 626 30 634 28 634 c 0
 25 634 45 664 45 666 c 0
187 666 m 0
 193 666 209 695 228 695 c 0
 237 695 238 694 251 680 c 0
 259 672 265 664 265 663 c 0
 265 659 269 665 269 655 c 0
 269 647 255 621 249 618 c 0
 247 617 245 615 245 614 c 0
 245 610 241 613 233 597 c 0
 223 578 219 575 220 573 c 0
 222 571 213 566 213 561 c 0
 213 556 206 549 206 545 c 0
 206 541 199 533 201 533 c 0
 202 533 197 525 196 523 c 0
 196 516 183 504 183 463 c 0
 183 441 183 441 176 433 c 0
 172 428 168 424 167 424 c 0
 164 424 160 418 158 419 c 0
 157 420 156 420 156 419 c 0
 156 416 148 413 141 413 c 0
 122 413 122 424 117 424 c 0
 116 424 114 426 114 427 c 0
 114 428 111 432 108 435 c 0
 106 437 100 444 100 476 c 0
 97 486 138 591 138 592 c 0
 138 596 164 639 164 639 c 0
 168 643 183 666 187 666 c 0
EndSplineSet
EndChar

StartChar: c_o
Encoding: 1114113 -1 37
Width: 739
VWidth: -44
Flags: W
LayerCount: 2
Fore
SplineSet
689 332 m 0
 689 327 709 298 709 246 c 0
 709 180 686 149 685 149 c 0
 685 149 680 135 651 104 c 0
 625 76 614 66 598 55 c 0
 574 39 541 18 540 19 c 0
 539 20 519 10 513 9 c 0
 493 6 491 -1 464 -1 c 0
 441 -1 407 3 384 23 c 0
 349 53 345 85 341 78 c 0
 316 40 244 12 178 12 c 0
 162 12 146 13 142 15 c 0
 136 18 87 29 57 60 c 0
 36 82 16 122 14 144 c 0
 13 156 10 171 10 185 c 0
 10 367 169 452 229 445 c 0
 250 442 275 438 300 421 c 0
 306 417 312 414 313 414 c 0
 318 414 354 372 354 357 c 0
 354 333 324 308 313 319 c 0
 307 324 300 326 298 331 c 0
 297 333 295 335 294 335 c 0
 291 335 283 342 273 352 c 0
 258 367 253 369 229 369 c 0
 205 369 199 367 177 354 c 0
 142 333 142 319 124 303 c 0
 111 290 85 240 85 191 c 0
 85 173 92 142 97 133 c 0
 102 123 123 102 133 97 c 0
 144 91 160 88 179 88 c 0
 252 88 286 127 301 128 c 0
 316 128 331 108 333 110 c 0
 334 111 328 119 328 172 c 0
 328 173 328 214 333 225 c 0
 335 231 344 272 347 279 c 0
 348 282 351 288 352 292 c 0
 355 303 376 343 384 355 c 0
 416 401 434 410 457 423 c 0
 467 428 495 429 536 429 c 0
 554 429 566 428 571 427 c 0
 606 418 636 401 657 378 c 0
 667 367 689 335 689 332 c 0
519 333 m 0
 514 333 502 352 494 352 c 0
 491 352 490 357 489 357 c 0
 487 357 404 293 404 168 c 0
 404 127 415 92 434 79 c 0
 440 75 443 74 459 74 c 0
 505 74 561 116 587 146 c 0
 624 188 633 199 633 245 c 0
 633 291 595 347 556 353 c 0
 548 354 547 355 547 352 c 0
 547 348 525 333 519 333 c 0
EndSplineSet
Ligature2: "liga" c o
EndChar

StartChar: o_o
Encoding: 1114114 -1 38
Width: 815
VWidth: -123
Flags: W
LayerCount: 2
Fore
SplineSet
519 392 m 0
 522 392 557 419 589 419 c 0
 632 419 652 378 652 377 c 0
 656 367 790 294 790 193 c 0
 790 155 762 102 762 101 c 0
 731 49 642 8 635 8 c 0
 634 8 601 -10 537 -10 c 0
 504 -10 512 -4 504 -4 c 0
 491 -4 436 24 429 42 c 0
 427 46 408 73 405 86 c 0
 395 124 395 124 395 144 c 0
 395 151 395 160 396 169 c 2
 397 186 l 1
 392 175 l 1
 366 120 350 104 350 103 c 0
 350 102 343 94 334 86 c 0
 305 58 247 23 225 20 c 0
 221 19 170 2 155 8 c 0
 151 10 111 10 100 20 c 0
 97 22 95 25 94 25 c 0
 93 25 59 41 37 86 c 0
 27 105 15 131 15 186 c 0
 15 237 34 279 34 280 c 0
 34 294 77 375 95 386 c 0
 97 387 105 392 114 398 c 0
 123 404 141 416 170 416 c 0
 180 416 191 415 193 413 c 0
 195 411 217 408 221 402 c 0
 222 401 227 400 233 400 c 0
 245 400 296 390 329 360 c 0
 335 355 340 350 341 350 c 0
 342 350 342 351 372 316 c 0
 378 309 394 275 395 267 c 0
 396 254 399 250 399 235 c 0
 399 229 400 224 400 223 c 0
 402 221 393 166 402 204 c 0
 415 258 456 327 462 331 c 0
 463 332 513 392 519 392 c 0
186 338 m 0
 186 341 175 346 174 346 c 0
 148 339 130 320 110 275 c 0
 98 247 99 248 94 210 c 0
 92 196 91 187 91 179 c 0
 91 144 97 131 103 120 c 0
 110 106 114 101 121 96 c 0
 137 84 140 84 162 84 c 0
 218 84 256 119 280 142 c 0
 303 165 307 169 314 184 c 2
 322 201 l 1
 322 226 l 2
 322 249 322 251 317 261 c 0
 299 295 260 318 256 318 c 0
 252 318 243 303 229 317 c 0
 227 319 224 321 224 321 c 1
 224 319 221 323 207 325 c 0
 198 326 186 334 186 338 c 0
589 314 m 0
 582 314 579 313 574 313 c 0
 567 313 560 315 553 318 c 0
 547 321 547 320 536 308 c 0
 535 307 469 227 469 155 c 0
 469 137 473 88 512 71 c 0
 523 66 526 66 546 66 c 0
 561 66 600 66 648 97 c 0
 663 107 714 138 714 190 c 0
 714 226 678 259 677 260 c 0
 673 263 666 270 661 275 c 0
 643 293 606 314 589 314 c 0
EndSplineSet
Ligature2: "liga" o o
EndChar

StartChar: A
Encoding: 65 65 39
Width: 438
VWidth: 761
Flags: HW
AnchorPoint: "above" 201.5 609 basechar 0
LayerCount: 2
Fore
SplineSet
109 237 m 0
 103 237 84 96 84 76 c 0
 84 65 84 55 79 36 c 0
 76 21 67 17 39 17 c 0
 12 17 9 17 7 47 c 0
 6 61 5 73 5 86 c 0
 5 150 34 303 41 323 c 0
 49 344 41 334 64 397 c 0
 83 450 105 510 149 556 c 0
 182 589 208 589 220 589 c 0
 275 589 271 574 282 574 c 0
 286 574 315 547 323 535 c 0
 340 510 340 510 356 474 c 0
 365 453 384 362 389 317 c 0
 398 230 398 230 398 172 c 0
 398 171 397 64 387 56 c 0
 386 55 385 52 383 49 c 0
 379 42 365 34 357 34 c 0
 354 34 342 39 332 45 c 0
 316 54 311 56 311 70 c 0
 311 86 317 95 317 171 c 0
 317 184 316 198 316 210 c 2
 315 234 l 1
 277 239 232 241 180 241 c 0
 135 241 110 237 109 237 c 0
280 447 m 0
 273 455 259 505 227 508 c 0
 225 508 224 508 223 508 c 0
 206 508 171 459 155 411 c 0
 146 384 139 373 137 362 c 0
 136 353 126 327 126 324 c 0
 126 322 306 316 306 317 c 0
 306 324 294 397 292 399 c 0
 287 406 284 443 280 447 c 0
EndSplineSet
EndChar

StartChar: K
Encoding: 75 75 40
Width: 435
VWidth: 771
Flags: HW
AnchorPoint: "above" 210 611 basechar 0
LayerCount: 2
Fore
SplineSet
268 570 m 0
 268 571 292 591 308 591 c 0
 315 591 322 590 324 588 c 0
 340 569 346 559 346 551 c 0
 346 544 338 528 333 522 c 0
 327 515 297 491 291 488 c 0
 286 485 273 472 233 431 c 0
 215 412 172 363 161 349 c 0
 152 337 151 336 154 334 c 0
 177 318 143 332 192 293 c 0
 225 267 245 252 246 252 c 0
 252 252 348 158 348 155 c 0
 348 147 415 86 415 28 c 0
 415 5 402 1 402 1 c 0
 399 1 399 -6 376 -6 c 0
 358 -6 364 -1 356 -1 c 0
 337 -1 338 36 334 44 c 0
 321 69 278 121 244 152 c 0
 231 164 203 196 197 196 c 0
 192 196 119 258 107 264 c 1
 107 217 l 2
 107 206 108 192 108 177 c 0
 108 114 108 60 104 52 c 0
 99 43 96 36 58 36 c 0
 33 36 31 51 31 80 c 0
 31 98 31 111 31 155 c 0
 31 318 14 394 14 419 c 0
 14 452 5 468 5 493 c 0
 5 537 12 566 28 566 c 0
 28 566 65 565 71 557 c 0
 72 555 73 549 73 543 c 0
 73 519 82 510 82 492 c 0
 82 474 83 474 83 473 c 0
 83 472 95 396 93 392 c 0
 92 391 92 388 93 388 c 0
 96 388 108 400 113 409 c 0
 140 453 268 568 268 570 c 0
EndSplineSet
EndChar

StartChar: L
Encoding: 76 76 41
Width: 430
VWidth: 723
Flags: HW
AnchorPoint: "above" 215 575 basechar 0
LayerCount: 2
Fore
SplineSet
129 -5 m 0
 129 -5 123 -5 112 -5 c 0
 111 -5 l 0
 102 -5 75 6 70 12 c 0
 64 19 65 19 58 25 c 0
 46 36 32 64 26 91 c 0
 22 107 20 141 20 181 c 0
 20 256 34 413 36 475 c 0
 39 555 39 555 77 555 c 0
 79 555 82 555 84 555 c 0
 109 555 109 554 112 495 c 0
 113 482 113 472 113 461 c 0
 113 421 101 287 101 285 c 0
 100 254 97 200 97 180 c 0
 97 136 102 98 110 82 c 0
 112 77 115 73 126 73 c 0
 148 73 206 87 232 99 c 0
 262 113 341 124 347 124 c 0
 359 124 395 118 397 112 c 0
 398 110 399 109 400 109 c 0
 403 109 410 92 410 85 c 0
 410 81 408 76 402 65 c 0
 393 48 391 43 378 43 c 0
 369 43 363 45 352 45 c 0
 281 45 188 -5 129 -5 c 0
EndSplineSet
EndChar

StartChar: M
Encoding: 77 77 42
Width: 518
VWidth: 788
Flags: HW
AnchorPoint: "above" 249 623 basechar 0
LayerCount: 2
Fore
SplineSet
361 599 m 0
 372 599 368 603 382 603 c 0
 394 603 410 601 417 598 c 0
 426 594 455 566 455 561 c 0
 455 558 465 531 468 523 c 0
 475 507 478 435 478 393 c 0
 478 300 457 176 457 102 c 0
 457 30 469 50 461 33 c 0
 459 29 457 25 456 25 c 0
 450 25 448 7 419 7 c 0
 415 7 411 7 398 18 c 0
 385 30 379 41 379 88 c 0
 379 91 379 94 379 98 c 0
 379 182 388 177 397 336 c 0
 399 367 401 346 401 384 c 0
 401 418 399 472 395 492 c 0
 392 508 385 526 383 526 c 0
 377 526 339 480 309 435 c 0
 278 390 267 377 240 355 c 0
 234 350 208 340 197 340 c 0
 182 340 164 343 160 346 c 0
 154 352 146 354 134 367 c 0
 129 372 124 376 124 376 c 0
 122 376 117 382 106 395 c 2
 96 407 l 1
 97 346 l 2
 98 292 106 176 106 174 c 0
 106 169 109 135 109 121 c 0
 109 116 109 118 109 114 c 0
 109 99 112 89 112 52 c 0
 112 11 108 3 108 2 c 0
 109 1 99 -15 97 -16 c 0
 94 -17 68 -20 62 -20 c 0
 53 -20 48 -11 48 -10 c 0
 48 -4 40 7 36 45 c 0
 35 52 25 219 25 221 c 0
 25 223 20 270 20 416 c 0
 20 502 23 514 36 528 c 0
 42 534 61 540 69 540 c 0
 81 540 91 530 93 530 c 0
 96 530 127 499 127 496 c 0
 127 495 181 418 194 418 c 0
 206 418 286 535 287 536 c 0
 296 549 325 580 328 580 c 0
 330 580 352 596 353 598 c 0
 353 599 357 599 361 599 c 0
EndSplineSet
EndChar

StartChar: N
Encoding: 78 78 43
Width: 445
VWidth: 799
Flags: HW
AnchorPoint: "above" 217.5 641 basechar 0
LayerCount: 2
Fore
SplineSet
314 433 m 0
 314 490 314 621 370 621 c 0
 383 621 413 604 414 593 c 0
 414 589 415 585 415 583 c 0
 415 569 395 563 395 405 c 0
 395 403 400 286 400 230 c 0
 400 119 394 102 385 88 c 0
 380 80 374 74 374 76 c 0
 374 78 356 70 350 70 c 0
 343 70 329 75 324 79 c 0
 317 85 311 87 310 92 c 0
 307 100 266 160 253 174 c 0
 251 176 171 272 115 365 c 2
 99 391 l 1
 101 360 l 1
 109 186 108 186 109 179 c 0
 110 165 111 151 111 147 c 0
 111 134 115 109 115 76 c 0
 115 56 114 39 111 35 c 0
 104 25 62 23 61 23 c 0
 46 23 42 42 42 43 c 0
 42 44 29 80 29 174 c 0
 29 236 20 240 20 387 c 0
 20 525 20 547 29 555 c 0
 42 568 54 574 64 574 c 0
 66 574 74 574 77 574 c 0
 83 573 94 561 100 559 c 0
 104 558 113 534 113 534 c 0
 113 528 155 447 205 371 c 0
 228 336 272 276 292 253 c 0
 300 244 310 232 313 228 c 2
 319 221 l 1
 318 267 l 2
 318 269 314 412 314 433 c 0
EndSplineSet
EndChar

StartChar: O
Encoding: 79 79 44
Width: 479
VWidth: 759
Flags: HW
AnchorPoint: "above" 229.5 602 basechar 0
LayerCount: 2
Fore
SplineSet
164 570 m 0
 177 573 188 582 206 582 c 0
 228 582 226 573 267 566 c 0
 304 560 345 530 346 530 c 0
 348 530 374 507 378 502 c 0
 380 500 383 497 385 495 c 0
 415 466 444 394 444 365 c 0
 444 364 444 364 444 357 c 0
 444 349 444 345 444 341 c 0
 444 307 444 251 404 173 c 0
 387 140 368 106 364 102 c 0
 363 101 357 94 351 87 c 0
 322 51 262 -11 186 -11 c 0
 158 -11 157 -11 127 4 c 0
 98 19 74 44 58 76 c 0
 48 96 32 136 27 157 c 0
 22 177 22 178 19 209 c 0
 15 245 15 244 15 250 c 0
 15 287 17 327 25 360 c 0
 27 367 29 375 29 378 c 0
 30 386 38 412 41 415 c 0
 47 422 82 508 136 552 c 0
 151 565 157 569 164 570 c 0
367 346 m 0
 367 381 355 386 355 400 c 0
 355 414 295 491 245 491 c 0
 233 491 233 483 222 486 c 0
 211 488 195 505 194 505 c 0
 187 505 91 406 91 281 c 0
 91 200 116 66 185 66 c 0
 192 66 200 67 208 70 c 0
 216 73 224 75 226 76 c 0
 239 80 291 131 308 157 c 0
 319 173 337 205 348 231 c 0
 365 269 367 308 367 346 c 0
EndSplineSet
EndChar

StartChar: P
Encoding: 80 80 45
Width: 429
VWidth: 786
Flags: HW
AnchorPoint: "above" 209.5 626 basechar 0
LayerCount: 2
Fore
SplineSet
108 245 m 0
 105 245 103 245 103 224 c 0
 103 223 107 91 113 79 c 0
 115 75 117 56 117 44 c 0
 117 22 108 18 90 12 c 0
 80 9 75 7 72 7 c 0
 66 7 56 14 50 19 c 0
 28 40 28 152 28 208 c 0
 28 212 28 217 28 221 c 0
 28 273 35 448 35 450 c 2
 36 468 l 1
 27 471 l 2
 15 475 10 481 10 495 c 0
 10 496 11 528 31 541 c 0
 36 544 40 548 42 550 c 0
 49 557 86 577 99 581 c 0
 101 582 108 585 114 588 c 0
 123 592 171 606 193 606 c 0
 298 606 359 536 361 536 c 0
 365 536 365 530 381 513 c 0
 388 505 390 495 394 492 c 0
 396 490 409 455 409 430 c 0
 409 388 405 389 405 384 c 0
 405 378 394 361 396 361 c 0
 399 361 381 336 381 332 c 0
 381 331 358 300 323 279 c 0
 319 276 314 273 312 271 c 0
 309 268 268 252 252 248 c 0
 237 244 199 241 166 241 c 0
 130 241 123 245 108 245 c 0
333 416 m 0
 333 421 330 420 330 431 c 0
 330 480 268 518 228 526 c 0
 217 528 196 529 180 529 c 0
 151 529 119 517 114 515 c 0
 110 513 109 512 109 506 c 0
 109 492 112 509 112 478 c 0
 112 445 109 370 109 336 c 0
 109 332 109 331 110 323 c 1
 122 321 l 2
 130 319 153 318 175 318 c 0
 192 318 209 319 219 320 c 0
 251 324 298 347 312 367 c 0
 324 383 333 406 333 416 c 0
EndSplineSet
EndChar

StartChar: Q
Encoding: 81 81 46
Width: 554
VWidth: 795
Flags: HW
AnchorPoint: "above" 274.5 633 basechar 0
LayerCount: 2
Fore
SplineSet
219 9 m 0
 214 9 211 11 201 11 c 0
 183 11 131 38 106 60 c 0
 95 70 64 99 35 177 c 0
 27 198 21 216 20 233 c 0
 19 251 15 263 15 294 c 0
 15 482 168 588 188 594 c 0
 189 594 223 613 246 613 c 0
 264 613 289 599 296 599 c 0
 297 599 351 591 399 527 c 0
 426 491 465 398 465 373 c 0
 465 372 473 309 473 289 c 0
 473 271 468 288 468 262 c 0
 468 251 463 229 458 216 c 0
 452 201 445 178 439 168 c 0
 434 159 428 149 428 148 c 0
 428 145 442 142 472 123 c 0
 482 117 491 112 492 112 c 0
 493 112 503 103 514 92 c 2
 534 73 l 1
 533 63 l 2
 532 53 530 51 523 45 c 0
 518 41 510 33 504 28 c 0
 491 16 485 14 460 37 c 0
 444 52 424 65 390 82 c 2
 380 87 l 1
 371 78 l 2
 359 66 338 49 329 45 c 0
 328 45 285 21 267 16 c 0
 251 12 229 9 219 9 c 0
331 491 m 1
 323 485 321 484 315 484 c 0
 310 484 305 486 301 490 c 0
 301 490 268 526 257 526 c 0
 247 526 234 509 213 509 c 0
 206 509 204 512 201 512 c 0
 193 512 149 461 136 443 c 0
 135 442 93 373 93 307 c 0
 93 224 100 209 125 161 c 0
 134 144 140 136 154 121 c 0
 174 100 185 93 209 89 c 0
 209 89 227 85 228 85 c 0
 252 85 306 118 306 123 c 0
 306 127 263 153 242 175 c 0
 235 182 228 190 225 192 c 0
 220 195 213 202 213 216 c 0
 213 221 215 224 223 234 c 0
 233 246 237 251 254 251 c 0
 257 252 301 219 334 198 c 2
 359 182 l 1
 368 198 l 2
 377 214 381 223 389 252 c 0
 393 265 393 270 393 302 c 0
 393 350 389 368 375 406 c 0
 370 419 352 466 331 491 c 1
EndSplineSet
EndChar

StartChar: R
Encoding: 82 82 47
Width: 422
VWidth: 788
Flags: HW
AnchorPoint: "above" 208.543 625 basechar 0
LayerCount: 2
Fore
SplineSet
27 346 m 0
 27 431 21 441 21 458 c 0
 21 471 17 476 18 489 c 0
 19 503 27 530 32 535 c 0
 34 537 36 540 38 543 c 0
 40 547 46 552 54 556 c 0
 61 560 69 564 72 566 c 0
 134 602 245 601 248 604 c 0
 249 605 251 605 254 605 c 0
 285 605 331 591 332 591 c 0
 335 591 349 582 354 583 c 0
 358 584 363 576 366 576 c 0
 369 576 371 567 377 566 c 0
 382 565 395 538 395 537 c 0
 395 530 403 520 402 515 c 0
 402 513 400 505 400 497 c 0
 398 469 369 410 333 377 c 0
 283 331 246 310 186 284 c 1
 213 260 l 2
 228 247 243 232 246 228 c 0
 247 226 252 222 254 222 c 0
 257 222 298 180 304 171 c 0
 304 170 350 111 350 102 c 0
 350 101 350 101 352 101 c 0
 355 101 389 29 389 23 c 0
 389 -2 346 -13 345 -13 c 0
 343 -13 341 -11 338 -11 c 0
 335 -11 324 -6 321 -2 c 0
 314 6 283 76 257 106 c 0
 251 113 244 121 242 125 c 0
 219 158 163 192 103 261 c 1
 101 231 l 2
 100 199 96 142 96 121 c 0
 96 107 101 108 101 57 c 0
 101 25 83 4 79 4 c 0
 76 4 76 4 76 4 c 0
 76 3 68 3 59 3 c 0
 38 3 28 5 20 29 c 2
 15 44 l 1
 16 91 l 2
 18 173 27 221 27 346 c 0
95 471 m 0
 95 470 104 399 104 361 c 2
 104 343 l 1
 118 346 l 2
 125 348 138 350 146 352 c 0
 178 359 240 396 273 427 c 0
 304 456 323 487 323 506 c 2
 323 515 l 1
 312 520 l 2
 294 528 287 531 271 532 c 0
 249 534 250 534 248 534 c 0
 178 534 89 519 89 490 c 0
 89 481 95 483 95 471 c 0
EndSplineSet
EndChar

StartChar: S
Encoding: 83 83 48
Width: 452
VWidth: 768
Flags: HW
AnchorPoint: "above" 218.5 609 basechar 0
LayerCount: 2
Fore
SplineSet
23 341 m 0
 20 341 15 372 15 390 c 0
 15 409 21 435 37 464 c 0
 59 503 59 504 100 540 c 0
 105 544 149 574 181 581 c 0
 188 583 197 585 201 587 c 0
 206 589 223 589 236 589 c 0
 262 589 251 586 260 586 c 0
 281 586 351 549 351 542 c 0
 351 540 358 535 358 530 c 0
 360 516 370 519 370 511 c 0
 370 505 359 478 346 478 c 0
 339 478 333 483 325 483 c 0
 318 483 318 486 316 486 c 0
 302 486 270 512 228 512 c 0
 158 512 94 429 94 400 c 0
 94 400 95 374 97 367 c 0
 98 362 103 361 106 364 c 0
 109 367 109 367 185 386 c 0
 228 397 242 399 270 399 c 0
 273 399 276 399 280 399 c 2
 310 399 l 1
 335 386 l 2
 390 355 422 312 422 222 c 0
 422 120 366 65 337 36 c 0
 335 34 293 -7 236 -7 c 0
 227 -7 217 -7 213 -7 c 0
 212 -7 l 0
 160 -7 74 68 62 92 c 0
 57 102 39 124 39 127 c 0
 39 130 33 133 33 136 c 0
 33 141 20 155 20 172 c 0
 20 187 44 204 51 204 c 0
 64 204 89 175 120 140 c 0
 165 89 190 71 232 71 c 0
 261 71 270 76 298 107 c 0
 328 141 344 159 344 234 c 0
 344 269 338 286 318 304 c 0
 300 321 295 323 274 323 c 0
 216 323 126 285 90 285 c 0
 59 285 31 314 27 332 c 0
 25 337 24 341 23 341 c 0
EndSplineSet
EndChar

StartChar: T
Encoding: 84 84 49
Width: 446
VWidth: 795
Flags: HW
AnchorPoint: "above" 213 643 basechar 0
LayerCount: 2
Fore
SplineSet
136 133 m 0
 136 136 133 375 133 411 c 2
 133 510 l 1
 105 505 98 500 65 496 c 0
 62 496 58 496 55 496 c 0
 37 496 15 502 7 510 c 2
 0 516 l 1
 1 533 l 2
 3 563 9 570 34 572 c 0
 64 574 210 612 301 618 c 0
 302 618 344 622 377 622 c 2
 409 623 l 1
 414 618 419 612 424 607 c 1
 425 586 l 2
 425 580 426 576 426 572 c 0
 426 548 409 548 398 548 c 0
 396 548 279 537 222 527 c 0
 205 524 222 508 216 493 c 0
 214 489 214 442 214 390 c 0
 214 387 218 102 218 96 c 0
 218 67 217 63 215 61 c 0
 213 59 212 56 212 54 c 0
 212 50 206 45 200 43 c 0
 194 41 183 45 164 45 c 0
 164 45 136 47 136 76 c 0
 136 79 136 89 136 133 c 0
EndSplineSet
EndChar

StartChar: B
Encoding: 66 66 50
Width: 412
VWidth: 759
Flags: HW
AnchorPoint: "above" 190.883 600 basechar 0
LayerCount: 2
Fore
SplineSet
72 555 m 0
 72 557 139 578 174 578 c 0
 187 578 199 580 199 580 c 0
 202 579 212 579 222 578 c 0
 273 575 313 549 314 549 c 0
 316 549 326 540 329 540 c 0
 331 540 337 532 340 532 c 0
 343 532 354 512 359 512 c 0
 360 512 370 488 370 468 c 0
 370 459 367 463 366 447 c 0
 362 398 304 347 296 343 c 0
 296 343 267 321 248 314 c 0
 244 312 241 311 241 310 c 0
 241 308 306 277 322 262 c 0
 326 258 330 254 331 254 c 0
 332 254 346 243 369 196 c 0
 373 187 377 155 377 129 c 0
 377 67 352 31 352 30 c 0
 352 26 330 5 318 -1 c 0
 312 -4 282 -13 270 -16 c 0
 262 -18 238 -19 217 -19 c 0
 137 -19 91 19 90 20 c 0
 88 22 83 23 72 23 c 0
 36 23 36 24 33 150 c 0
 31 251 22 335 22 337 c 0
 22 341 23 340 23 344 c 0
 23 378 9 448 9 466 c 0
 9 493 2 510 6 519 c 0
 11 531 32 531 37 539 c 0
 39 544 49 549 55 549 c 0
 61 549 72 553 72 555 c 0
246 497 m 0
 237 497 211 504 194 504 c 0
 159 504 97 492 84 487 c 0
 80 486 80 483 84 474 c 0
 86 470 86 470 86 460 c 0
 86 434 93 460 97 356 c 0
 97 354 109 199 109 163 c 0
 109 162 109 151 109 151 c 0
 109 142 109 129 110 119 c 2
 112 95 l 1
 120 92 124 90 124 88 c 0
 124 83 164 61 178 59 c 0
 188 57 237 56 238 56 c 0
 264 56 284 69 284 69 c 0
 293 77 301 110 301 133 c 0
 301 134 300 182 276 202 c 0
 240 232 151 265 128 287 c 0
 118 297 116 298 116 311 c 0
 116 320 117 334 120 339 c 0
 124 345 149 360 155 360 c 0
 156 360 219 373 260 413 c 0
 269 422 292 444 292 466 c 0
 292 483 247 497 246 497 c 0
EndSplineSet
EndChar

StartChar: U
Encoding: 85 85 51
Width: 455
VWidth: 776
Flags: HW
AnchorPoint: "above" 217.5 609 basechar 0
LayerCount: 2
Fore
SplineSet
307 586 m 0
 315 586 312 589 323 589 c 0
 327 589 334 589 343 588 c 0
 347 588 372 567 375 552 c 0
 377 543 405 458 411 374 c 0
 412 358 415 368 415 318 c 0
 415 317 413 229 404 207 c 0
 403 205 401 198 399 192 c 0
 387 154 343 81 310 47 c 0
 306 43 298 35 293 29 c 0
 283 18 258 -3 255 -3 c 0
 251 -3 208 -31 184 -31 c 0
 102 -31 67 33 67 34 c 0
 67 36 34 97 28 143 c 0
 28 147 26 155 25 162 c 0
 21 186 20 212 20 249 c 0
 20 251 22 415 35 448 c 0
 36 450 37 458 37 464 c 0
 37 487 52 547 72 557 c 2
 79 560 l 1
 99 550 l 2
 116 542 123 537 123 532 c 0
 123 530 121 530 120 516 c 0
 116 450 110 482 110 456 c 0
 110 450 97 349 97 261 c 0
 97 260 98 192 111 127 c 0
 111 126 130 60 160 50 c 0
 166 48 170 47 175 47 c 0
 218 47 319 155 334 255 c 0
 336 267 337 291 337 311 c 0
 337 371 310 511 305 511 c 0
 301 511 288 525 288 552 c 0
 288 571 295 586 307 586 c 0
EndSplineSet
EndChar

StartChar: V
Encoding: 86 86 52
Width: 387
VWidth: 747
Flags: HW
AnchorPoint: "above" 183.5 596 basechar 0
LayerCount: 2
Fore
SplineSet
46 298 m 0
 46 310 21 368 21 379 c 0
 21 384 13 391 10 409 c 0
 7 427 0 435 0 445 c 0
 0 458 2 462 19 472 c 0
 30 479 35 481 40 481 c 0
 42 481 41 481 51 480 c 1
 69 453 l 2
 79 438 87 425 87 424 c 0
 87 421 96 407 97 398 c 0
 97 396 139 249 141 241 c 0
 156 169 183 105 184 104 c 0
 185 104 198 151 201 176 c 0
 205 204 208 220 210 222 c 0
 211 223 212 227 212 230 c 0
 212 249 223 273 225 290 c 0
 227 306 233 329 242 364 c 0
 243 366 291 561 297 567 c 0
 305 575 307 576 330 576 c 0
 331 576 331 576 332 576 c 0
 345 576 352 574 352 570 c 0
 352 570 367 556 367 545 c 0
 367 532 328 392 328 390 c 0
 328 388 290 236 287 208 c 0
 282 166 264 93 264 92 c 0
 264 87 253 56 247 46 c 0
 240 33 221 11 216 11 c 0
 214 11 214 11 214 10 c 0
 214 7 207 4 198 4 c 0
 197 4 157 5 146 26 c 0
 144 30 140 35 138 36 c 0
 116 52 74 173 74 192 c 0
 74 206 47 281 46 298 c 0
EndSplineSet
EndChar

StartChar: W
Encoding: 87 87 53
Width: 602
VWidth: 813
Flags: HW
AnchorPoint: "above" 286 644 basechar 0
LayerCount: 2
Fore
SplineSet
464 609 m 0
 468 609 478 624 491 624 c 0
 497 624 522 614 527 610 c 0
 533 604 546 577 549 563 c 0
 562 500 567 362 567 360 c 0
 567 327 557 297 557 291 c 0
 555 273 552 258 547 249 c 0
 546 248 517 176 501 158 c 0
 499 155 497 152 497 151 c 0
 497 149 475 119 471 113 c 0
 466 106 437 76 435 76 c 0
 431 76 393 37 358 37 c 0
 308 37 285 60 285 61 c 0
 285 63 275 71 267 88 c 0
 263 95 260 101 259 101 c 0
 255 101 210 -10 142 -10 c 0
 82 -10 61 60 61 61 c 0
 61 63 48 89 46 109 c 0
 45 124 35 173 31 254 c 0
 30 264 29 295 28 322 c 0
 22 463 5 476 5 505 c 0
 5 519 5 519 27 532 c 0
 39 539 45 543 52 543 c 0
 54 543 57 542 60 541 c 0
 65 540 96 487 92 487 c 0
 90 487 97 483 98 467 c 0
 108 356 98 405 112 229 c 0
 114 202 116 176 116 170 c 0
 116 166 128 89 140 73 c 0
 155 53 226 215 249 231 c 0
 258 237 269 240 279 240 c 0
 287 240 293 238 296 234 c 0
 299 228 311 230 313 217 c 0
 315 205 318 211 318 201 c 0
 318 200 324 115 348 115 c 0
 375 115 444 192 465 257 c 0
 468 266 471 274 472 276 c 0
 474 280 481 315 481 322 c 0
 481 335 488 325 488 368 c 0
 488 473 471 553 469 555 c 0
 464 559 457 575 457 588 c 0
 457 598 461 609 464 609 c 0
EndSplineSet
EndChar

StartChar: X
Encoding: 88 88 54
Width: 431
VWidth: 777
Flags: HW
AnchorPoint: "above" 204.931 618 basechar 0
LayerCount: 2
Fore
SplineSet
57 21 m 2
 55 21 46 16 42 16 c 0
 37 16 2 39 1 43 c 0
 0 45 0 47 0 50 c 0
 0 60 5 72 13 86 c 0
 20 97 33 122 47 146 c 0
 52 155 110 256 111 257 c 2
 146 316 l 1
 135 337 l 2
 129 348 123 359 123 360 c 0
 123 361 98 401 66 464 c 0
 53 490 60 471 21 550 c 0
 19 554 19 554 21 570 c 0
 24 588 59 598 59 598 c 0
 63 598 72 593 76 587 c 0
 79 583 85 576 89 572 c 0
 107 554 150 465 157 454 c 0
 158 453 166 439 175 422 c 2
 192 391 l 1
 215 430 l 2
 216 431 294 555 295 559 c 0
 299 596 338 597 339 597 c 0
 365 597 361 582 370 578 c 0
 376 575 378 571 378 561 c 0
 378 546 376 543 350 503 c 0
 279 396 245 332 236 319 c 0
 236 318 235 318 235 317 c 0
 235 315 269 247 339 155 c 0
 387 93 386 82 398 66 c 0
 403 59 404 49 408 38 c 0
 415 20 400 12 400 12 c 0
 394 12 374 -2 364 -2 c 0
 364 -2 344 -2 337 14 c 0
 305 87 264 117 205 216 c 0
 197 229 191 240 190 240 c 0
 186 240 66 21 59 21 c 2
 57 21 l 2
EndSplineSet
EndChar

StartChar: Y
Encoding: 89 89 55
Width: 481
VWidth: 734
Flags: HW
AnchorPoint: "above" 230.5 586 basechar 0
LayerCount: 2
Fore
SplineSet
411 564 m 0
 426 564 435 566 435 566 c 0
 455 566 461 533 461 533 c 0
 461 532 460 500 429 459 c 0
 394 412 310 302 277 246 c 0
 257 213 264 167 258 148 c 0
 256 142 251 74 251 43 c 0
 251 22 248 13 241 10 c 0
 237 9 202 3 195 3 c 0
 188 3 180 11 179 19 c 0
 175 47 173 58 173 70 c 0
 173 72 186 213 189 224 c 0
 191 231 190 231 183 238 c 0
 174 246 159 268 150 283 c 0
 129 320 51 434 45 438 c 0
 41 440 0 505 0 525 c 0
 0 548 16 552 30 557 c 2
 45 562 l 1
 53 558 l 2
 62 553 68 547 78 527 c 0
 108 470 123 472 214 322 c 0
 221 311 226 305 226 305 c 1
 226 307 264 365 268 368 c 0
 269 369 335 459 336 460 c 0
 378 517 384 526 384 536 c 0
 385 548 385 549 389 554 c 0
 394 559 405 564 411 564 c 0
EndSplineSet
EndChar

StartChar: Z
Encoding: 90 90 56
Width: 469
VWidth: 750
Flags: HW
AnchorPoint: "above" 224.5 603 basechar 0
LayerCount: 2
Fore
SplineSet
312 579 m 0
 320 579 322 583 365 583 c 0
 387 583 432 567 432 564 c 0
 432 561 445 558 445 547 c 0
 445 539 449 534 449 525 c 0
 449 506 438 500 438 495 c 0
 438 494 433 485 427 476 c 0
 401 438 271 318 199 232 c 0
 189 220 175 204 170 198 c 0
 150 176 101 109 101 105 c 0
 101 104 104 104 110 104 c 0
 160 104 172 111 275 111 c 0
 278 111 427 111 435 105 c 0
 440 101 446 75 446 62 c 0
 446 36 403 32 378 32 c 0
 345 32 308 37 280 37 c 0
 268 37 98 27 50 27 c 0
 30 27 21 29 17 34 c 0
 5 48 0 55 0 64 c 0
 0 75 15 122 60 180 c 0
 118 255 153 301 241 390 c 0
 260 410 349 502 349 505 c 0
 349 506 348 506 343 506 c 0
 300 506 173 483 138 480 c 0
 114 478 59 468 52 468 c 0
 36 468 35 469 24 491 c 0
 19 500 17 507 17 513 c 0
 17 521 18 525 46 539 c 0
 62 547 70 549 77 550 c 0
 145 555 275 578 312 579 c 0
EndSplineSet
EndChar

StartChar: I_hyphen_p_r_o_n_o_u_n
Encoding: 1114115 -1 57
Width: 410
VWidth: 189
Flags: W
LayerCount: 2
Fore
SplineSet
120 507 m 2
 49 507 34 513 34 554 c 0
 34 565 37 568 50 577 c 2
 58 583 l 1
 100 583 l 2
 156 583 252 589 254 592 c 0
 255 593 263 593 273 593 c 0
 316 593 325 605 336 606 c 0
 344 607 355 613 359 611 c 0
 360 610 362 609 363 609 c 0
 370 609 390 576 390 571 c 0
 390 564 384 548 380 546 c 0
 366 539 382 536 344 526 c 0
 311 518 283 515 249 514 c 2
 238 513 l 1
 238 475 l 2
 238 451 224 211 222 155 c 0
 221 127 220 117 218 115 c 0
 215 113 214 101 217 99 c 0
 217 99 243 104 265 104 c 0
 266 104 331 103 339 97 c 0
 341 95 346 92 349 91 c 0
 358 88 363 72 365 72 c 0
 368 72 375 48 368 37 c 0
 364 30 362 20 361 22 c 0
 360 23 348 9 327 9 c 0
 319 9 312 21 302 25 c 0
 299 26 286 27 275 27 c 0
 240 27 274 25 212 21 c 0
 211 21 118 13 118 13 c 0
 113 10 123 18 105 14 c 0
 99 13 93 12 92 12 c 0
 25 12 14 25 10 25 c 0
 10 25 0 28 0 45 c 0
 0 70 0 85 18 86 c 0
 34 88 34 91 47 91 c 0
 59 91 74 89 93 89 c 0
 99 89 105 89 112 89 c 0
 137 91 138 92 139 103 c 0
 146 173 153 323 153 325 c 0
 158 387 161 424 161 454 c 0
 161 467 161 478 160 490 c 2
 158 507 l 1
 120 507 l 2
EndSplineSet
Ligature2: "liga" I hyphen p r o n o u n
EndChar

StartChar: C
Encoding: 67 67 58
Width: 443
VWidth: 802
Flags: HW
AnchorPoint: "above" 219 639 basechar 0
LayerCount: 2
Fore
SplineSet
16 252 m 0
 16 302 40 371 40 372 c 0
 40 391 122 566 192 601 c 0
 204 607 228 619 250 619 c 0
 266 619 284 615 290 611 c 0
 293 609 318 601 339 585 c 0
 348 578 365 560 368 554 c 0
 386 522 386 523 386 512 c 0
 386 496 357 484 357 484 c 0
 353 483 343 486 343 488 c 0
 343 489 342 490 340 490 c 0
 331 490 290 542 248 542 c 0
 221 542 152 468 119 366 c 0
 113 349 108 332 107 330 c 0
 100 314 92 263 92 234 c 0
 92 199 92 119 154 88 c 0
 163 83 168 81 192 81 c 0
 213 81 237 86 253 92 c 0
 315 117 362 166 370 167 c 0
 376 168 380 173 387 173 c 0
 393 173 423 157 423 138 c 0
 423 110 370 70 369 70 c 0
 366 70 343 56 338 51 c 0
 329 44 265 14 257 14 c 0
 249 14 238 5 200 5 c 0
 177 5 152 8 135 14 c 0
 88 31 50 71 32 125 c 0
 30 131 27 137 26 138 c 0
 26 139 15 160 15 203 c 0
 15 213 15 223 15 229 c 0
 15 231 16 242 16 252 c 0
EndSplineSet
EndChar

StartChar: D
Encoding: 68 68 59
Width: 486
VWidth: 767
Flags: HW
AnchorPoint: "above" 235.273 616 basechar 0
LayerCount: 2
Fore
SplineSet
15 95 m 0
 15 99 31 363 31 499 c 0
 31 500 31 501 31 503 c 0
 31 512 30 518 30 522 c 0
 30 534 34 541 51 565 c 0
 61 579 62 580 68 581 c 0
 77 581 86 587 103 591 c 0
 123 595 123 596 137 596 c 0
 192 596 235 588 267 572 c 0
 279 566 288 566 315 549 c 0
 326 542 336 537 337 537 c 0
 339 537 358 520 360 520 c 0
 363 520 378 503 381 503 c 0
 382 503 384 500 386 498 c 0
 399 477 405 484 428 438 c 0
 444 406 444 407 446 399 c 0
 448 387 449 392 451 372 c 0
 453 349 457 357 455 350 c 0
 450 326 457 317 442 273 c 0
 437 259 433 245 432 242 c 0
 428 228 405 196 405 195 c 0
 405 192 398 186 398 182 c 0
 398 180 345 114 265 75 c 0
 254 69 244 63 243 62 c 0
 236 53 148 27 125 27 c 0
 113 27 108 23 85 23 c 0
 74 23 65 24 60 26 c 0
 56 28 50 29 47 30 c 0
 24 35 27 48 23 48 c 0
 22 48 20 50 18 54 c 0
 16 59 15 67 15 95 c 0
259 495 m 0
 258 495 197 527 138 527 c 0
 116 527 98 521 98 516 c 0
 98 515 106 500 106 409 c 0
 106 406 100 139 93 115 c 0
 92 111 91 108 91 106 c 0
 91 103 94 101 98 101 c 0
 109 101 147 109 162 115 c 0
 236 142 257 150 313 205 c 0
 328 220 350 251 357 266 c 0
 361 276 375 322 375 348 c 0
 375 362 373 377 369 383 c 0
 368 385 364 392 362 398 c 0
 357 410 337 435 323 446 c 0
 318 450 308 460 301 466 c 0
 290 475 262 495 259 495 c 0
EndSplineSet
EndChar

StartChar: E
Encoding: 69 69 60
Width: 440
VWidth: 752
Flags: HW
AnchorPoint: "above" 212.5 592 basechar 0
LayerCount: 2
Fore
SplineSet
20 56 m 0
 20 63 17 72 17 94 c 0
 17 170 30 217 31 375 c 2
 31 453 l 1
 26 465 l 2
 23 472 21 480 21 482 c 0
 21 487 32 508 36 513 c 0
 41 518 53 522 62 522 c 0
 76 522 180 556 204 559 c 0
 259 564 256 572 306 572 c 0
 351 572 380 572 396 563 c 0
 414 554 416 553 416 540 c 0
 416 524 420 527 420 520 c 0
 420 506 403 501 400 495 c 0
 397 489 389 487 379 487 c 0
 364 487 358 493 348 491 c 0
 336 489 344 496 319 496 c 0
 317 496 242 495 141 462 c 0
 130 458 118 455 115 454 c 0
 110 453 109 452 109 444 c 0
 109 439 110 418 110 398 c 2
 110 361 l 1
 141 367 174 369 210 369 c 0
 231 369 236 369 259 361 c 0
 274 356 279 354 281 350 c 0
 284 344 297 338 294 333 c 0
 294 333 298 331 298 321 c 0
 298 313 296 302 293 299 c 0
 289 294 264 282 259 282 c 0
 242 282 262 295 178 295 c 0
 172 295 164 294 157 294 c 2
 107 294 l 1
 106 262 l 2
 105 231 95 154 95 83 c 0
 95 74 96 55 103 55 c 0
 141 55 286 105 365 105 c 0
 373 105 377 104 377 103 c 0
 377 102 380 102 383 102 c 0
 392 102 400 98 407 91 c 0
 413 85 413 84 413 69 c 0
 413 54 414 35 372 32 c 0
 286 26 143 -26 92 -26 c 0
 91 -26 l 0
 57 -26 23 -14 22 -14 c 0
 21 -14 5 -2 5 12 c 0
 5 48 20 46 20 56 c 0
EndSplineSet
EndChar

StartChar: F
Encoding: 70 70 61
Width: 458
VWidth: 746
Flags: HW
AnchorPoint: "above" 221.5 600 basechar 0
LayerCount: 2
Fore
SplineSet
438 526 m 0
 438 522 433 483 411 483 c 0
 411 483 289 487 285 489 c 0
 284 490 185 503 169 503 c 0
 154 503 153 499 147 489 c 0
 135 468 116 361 113 317 c 2
 112 297 l 1
 121 298 l 2
 122 298 242 309 245 309 c 0
 245 309 285 306 289 304 c 0
 294 301 304 281 304 272 c 0
 304 266 296 257 293 257 c 0
 287 257 283 238 241 233 c 0
 193 227 194 227 147 223 c 2
 104 220 l 1
 101 188 l 2
 101 187 86 61 75 49 c 0
 70 43 75 39 63 33 c 0
 59 31 57 30 53 30 c 0
 50 30 46 31 40 32 c 0
 24 35 5 38 5 60 c 0
 5 94 18 145 23 201 c 0
 36 357 38 373 49 429 c 0
 61 491 72 511 87 542 c 0
 87 543 111 580 159 580 c 0
 189 580 245 575 262 570 c 0
 276 565 412 560 421 554 c 0
 423 553 425 551 427 551 c 0
 431 551 438 535 438 526 c 0
EndSplineSet
EndChar

StartChar: G
Encoding: 71 71 62
Width: 467
VWidth: 750
Flags: HW
AnchorPoint: "above" 226 601 basechar 0
LayerCount: 2
Fore
SplineSet
172 575 m 0
 180 575 168 581 209 581 c 0
 229 581 251 580 265 576 c 0
 337 557 384 535 385 534 c 0
 386 533 392 530 397 528 c 0
 403 526 416 520 416 502 c 0
 416 492 400 463 397 461 c 0
 394 460 388 459 384 459 c 0
 366 459 251 507 222 507 c 0
 219 507 191 505 178 497 c 0
 169 492 145 470 145 467 c 0
 145 465 121 429 120 423 c 0
 120 419 101 384 98 359 c 0
 97 347 91 328 91 311 c 0
 91 310 93 267 99 237 c 0
 108 190 108 190 117 171 c 0
 128 149 130 147 147 132 c 0
 163 118 194 96 236 96 c 0
 278 96 334 162 350 208 c 0
 353 216 361 254 361 260 c 0
 361 263 340 267 321 267 c 0
 296 267 273 262 247 262 c 0
 237 262 215 262 215 311 c 0
 215 323 225 329 227 329 c 0
 229 329 230 330 230 331 c 0
 230 335 294 343 326 343 c 0
 347 343 371 340 375 337 c 0
 378 335 388 333 399 327 c 0
 403 325 410 321 414 320 c 0
 420 318 426 309 426 303 c 0
 426 303 437 296 437 258 c 0
 437 223 419 166 415 163 c 0
 413 162 404 142 394 128 c 0
 390 123 387 118 387 117 c 0
 387 109 322 44 314 44 c 0
 304 44 290 20 234 20 c 0
 191 20 153 38 152 39 c 0
 150 41 138 43 130 49 c 0
 127 51 121 55 117 57 c 0
 106 63 69 100 64 110 c 0
 63 112 62 114 61 114 c 0
 59 114 51 135 46 141 c 0
 29 160 15 261 15 289 c 0
 15 299 22 387 28 387 c 0
 29 387 29 389 29 390 c 0
 29 394 36 412 38 420 c 0
 41 438 87 517 104 533 c 0
 120 548 164 575 172 575 c 0
EndSplineSet
EndChar

StartChar: H
Encoding: 72 72 63
Width: 417
VWidth: 710
Flags: HW
AnchorPoint: "above" 196 568 basechar 0
LayerCount: 2
Fore
SplineSet
10 45 m 0
 10 61 18 118 18 128 c 0
 18 129 20 209 28 266 c 0
 39 347 38 521 48 536 c 0
 57 548 70 548 85 548 c 0
 107 548 109 547 111 536 c 0
 112 532 113 529 114 528 c 0
 117 526 119 493 119 450 c 0
 119 370 114 315 115 315 c 0
 124 315 213 335 261 335 c 0
 265 335 269 334 273 334 c 2
 296 333 l 1
 296 345 296 345 296 346 c 0
 296 347 302 424 303 460 c 0
 305 531 310 535 323 547 c 1
 345 545 l 2
 362 543 376 541 380 526 c 0
 382 519 382 456 382 455 c 0
 382 347 367 239 367 122 c 0
 367 23 380 42 372 29 c 0
 367 22 336 5 325 5 c 0
 319 5 313 7 309 11 c 0
 290 31 286 36 286 141 c 0
 286 184 287 178 288 218 c 2
 290 253 l 1
 280 254 l 2
 277 254 273 254 269 254 c 0
 267 254 134 242 106 231 c 1
 104 204 l 2
 98 142 94 46 89 29 c 0
 87 22 82 15 78 15 c 0
 73 15 77 10 62 10 c 0
 51 10 23 12 23 14 c 0
 23 16 10 28 10 45 c 0
EndSplineSet
EndChar

StartChar: I
Encoding: 73 73 64
Width: 147
VWidth: 731
Flags: HW
AnchorPoint: "above" 68.5 585 basechar 0
LayerCount: 2
Fore
SplineSet
117 40 m 0
 117 6 98 5 77 5 c 0
 59 5 45 5 37 52 c 0
 25 122 20 461 20 490 c 0
 20 504 22 559 43 563 c 0
 43 563 55 565 69 565 c 0
 89 565 92 562 95 551 c 0
 96 547 103 243 103 240 c 0
 103 166 109 68 114 58 c 0
 116 55 117 47 117 40 c 0
EndSplineSet
EndChar

StartChar: J
Encoding: 74 74 65
Width: 512
VWidth: 759
Flags: HW
AnchorPoint: "above" 246 609 basechar 0
LayerCount: 2
Fore
SplineSet
230 485 m 0
 220 485 178 473 157 473 c 0
 138 473 115 477 105 484 c 0
 98 489 95 492 95 501 c 0
 95 542 105 546 152 550 c 0
 276 561 329 589 415 589 c 0
 482 589 492 588 492 566 c 0
 492 561 491 553 490 541 c 0
 488 523 487 514 463 514 c 0
 463 514 442 515 441 515 c 0
 380 515 308 501 308 497 c 0
 308 496 329 414 329 376 c 0
 329 348 332 366 332 328 c 0
 332 249 314 199 314 198 c 0
 314 176 273 113 274 113 c 0
 279 113 239 70 228 62 c 0
 224 60 221 57 220 56 c 0
 213 46 157 22 117 22 c 0
 92 22 44 51 43 51 c 0
 43 51 0 87 0 122 c 0
 0 148 8 150 27 155 c 0
 36 157 42 158 46 158 c 0
 55 158 67 143 69 139 c 0
 77 125 89 113 104 105 c 2
 119 97 l 1
 137 102 l 2
 164 108 170 110 192 133 c 0
 228 169 238 198 250 262 c 0
 255 287 255 303 255 320 c 0
 255 350 251 399 248 411 c 0
 240 445 235 485 230 485 c 0
EndSplineSet
EndChar

StartChar: E_A
Encoding: 1114116 -1 66
Width: 900
VWidth: 12
Flags: W
LayerCount: 2
Fore
SplineSet
68 568 m 0
 70 568 99 581 102 581 c 0
 105 581 143 596 146 594 c 0
 147 593 202 615 257 615 c 0
 264 615 347 615 352 607 c 0
 354 604 361 604 362 599 c 0
 363 597 364 595 365 595 c 0
 366 595 367 591 367 587 c 0
 367 575 374 573 371 568 c 0
 369 565 369 564 369 561 c 0
 369 558 360 556 360 552 c 0
 360 550 351 537 325 537 c 0
 317 537 312 541 285 541 c 0
 182 541 90 493 89 492 c 0
 88 491 95 472 94 470 c 0
 93 466 101 451 104 401 c 0
 107 361 106 362 113 362 c 0
 124 362 159 371 197 371 c 0
 233 371 245 362 259 350 c 0
 277 334 263 317 264 311 c 0
 265 307 259 298 255 298 c 0
 251 298 248 287 237 287 c 0
 221 286 217 286 213 290 c 0
 208 295 203 296 200 296 c 0
 164 296 128 287 112 290 c 1
 112 266 l 2
 116 115 116 114 120 104 c 1
 130 108 l 2
 135 110 141 112 143 113 c 0
 154 119 271 149 332 149 c 0
 370 149 398 136 399 136 c 0
 403 136 408 202 412 224 c 0
 413 230 415 244 417 256 c 0
 425 303 443 372 443 373 c 0
 443 376 454 411 456 414 c 0
 461 422 482 490 519 545 c 0
 531 562 555 588 559 588 c 0
 562 588 574 599 578 599 c 0
 582 599 588 607 597 607 c 0
 605 607 605 609 610 609 c 0
 617 609 632 606 635 604 c 0
 635 604 662 597 687 578 c 0
 691 575 695 572 695 573 c 0
 695 574 725 545 735 534 c 0
 802 462 847 328 847 301 c 0
 848 281 860 290 860 164 c 0
 860 163 860 80 859 75 c 0
 858 70 841 55 835 54 c 0
 832 53 828 51 826 50 c 0
 815 43 801 57 797 57 c 0
 790 57 781 75 781 89 c 0
 781 102 784 91 784 155 c 0
 784 226 781 240 774 274 c 0
 771 288 766 326 765 326 c 0
 764 326 756 318 750 313 c 0
 746 309 602 305 581 299 c 0
 574 296 548 292 536 286 c 0
 531 284 525 282 524 282 c 0
 522 282 515 280 509 278 c 0
 496 274 497 275 494 252 c 0
 494 251 483 186 478 134 c 0
 475 99 472 71 451 71 c 0
 442 71 418 75 409 75 c 0
 398 75 400 70 382 70 c 0
 366 70 359 73 333 73 c 0
 293 73 222 58 221 57 c 0
 220 56 110 23 85 23 c 0
 59 23 57 52 57 52 c 0
 57 55 46 65 45 73 c 0
 39 98 36 394 20 450 c 0
 18 457 17 465 17 469 c 0
 18 484 -2 487 0 506 c 0
 2 531 16 530 16 536 c 0
 16 537 58 568 68 568 c 0
724 420 m 0
 681 497 629 531 617 531 c 0
 585 531 546 437 545 432 c 0
 544 420 529 395 529 395 c 0
 530 395 528 388 525 379 c 2
 519 363 l 1
 550 367 537 368 562 371 c 0
 580 373 596 378 628 379 c 0
 663 380 637 384 699 384 c 0
 723 384 742 384 742 385 c 0
 742 387 733 404 724 420 c 0
EndSplineSet
Ligature2: "liga" E A
EndChar

StartChar: C_O
Encoding: 1114117 -1 67
Width: 762
VWidth: 91
Flags: W
LayerCount: 2
Fore
SplineSet
149 581 m 0
 150 581 178 595 199 595 c 0
 237 595 247 586 282 559 c 0
 287 555 293 548 296 544 c 0
 301 536 315 497 315 491 c 0
 315 481 283 454 270 463 c 0
 268 465 265 466 265 467 c 0
 265 469 241 493 238 499 c 0
 236 504 207 521 202 521 c 0
 195 521 177 511 167 500 c 0
 147 479 120 431 110 398 c 0
 103 374 91 334 91 273 c 0
 91 190 106 197 110 168 c 0
 112 159 125 141 143 124 c 0
 160 107 161 106 177 100 c 2
 194 94 l 1
 228 94 l 2
 309 94 328 121 338 121 c 0
 346 121 351 136 369 123 c 0
 376 118 381 118 374 123 c 0
 372 125 335 184 335 262 c 0
 335 368 360 402 360 418 c 0
 360 423 371 449 374 452 c 0
 379 457 386 476 404 503 c 0
 414 519 439 547 442 547 c 0
 445 547 478 580 518 580 c 0
 560 580 573 544 595 537 c 0
 608 533 607 529 610 529 c 0
 612 529 630 516 632 516 c 0
 638 516 691 457 709 413 c 0
 718 390 732 354 732 288 c 0
 732 263 726 260 724 250 c 0
 718 215 695 186 695 185 c 0
 695 184 695 182 694 182 c 0
 693 182 646 120 608 99 c 0
 580 83 553 67 534 64 c 0
 534 64 558 67 494 58 c 0
 480 56 483 60 471 60 c 0
 463 60 446 64 444 67 c 0
 442 69 411 83 410 85 c 0
 408 88 388 104 387 104 c 0
 386 104 386 103 386 102 c 0
 386 99 379 91 378 85 c 0
 376 71 374 67 366 59 c 0
 352 45 301 18 244 18 c 0
 210 18 159 24 151 30 c 0
 150 31 113 45 81 78 c 0
 72 87 65 95 65 96 c 0
 65 97 28 154 28 173 c 0
 28 189 15 186 15 268 c 0
 15 324 15 324 32 398 c 0
 39 431 62 482 95 532 c 0
 105 548 141 581 149 581 c 0
530 463 m 0
 516 463 499 492 495 492 c 0
 493 492 471 467 465 458 c 0
 456 445 436 409 435 403 c 0
 432 386 410 337 410 276 c 0
 410 263 412 133 490 133 c 0
 542 133 618 186 643 250 c 0
 649 265 652 264 653 269 c 0
 653 275 655 280 655 294 c 0
 655 385 606 439 601 439 c 0
 601 439 583 430 573 430 c 0
 562 430 564 442 558 445 c 0
 553 448 544 467 542 467 c 0
 539 466 535 463 530 463 c 0
EndSplineSet
Ligature2: "liga" C O
EndChar

StartChar: C_R
Encoding: 1114118 -1 68
Width: 759
VWidth: 113
Flags: W
LayerCount: 2
Fore
SplineSet
489 611 m 0
 489 611 496 617 524 617 c 0
 563 617 597 606 601 600 c 0
 603 597 638 585 664 564 c 0
 672 558 679 553 680 553 c 0
 682 553 688 544 690 545 c 0
 692 546 697 535 699 535 c 0
 700 535 727 497 729 477 c 0
 730 471 732 464 733 462 c 0
 734 461 737 449 725 410 c 0
 720 392 695 359 695 358 c 0
 695 354 662 325 647 317 c 0
 638 312 628 306 624 303 c 0
 616 298 571 282 553 279 c 1
 560 273 l 2
 569 265 607 237 608 237 c 0
 612 237 661 191 665 183 c 0
 668 176 668 180 683 157 c 0
 688 149 693 143 694 142 c 0
 696 141 711 103 711 100 c 0
 711 96 724 44 721 44 c 0
 720 44 720 41 721 38 c 0
 722 33 721 30 715 24 c 0
 708 16 707 15 678 13 c 2
 664 12 l 1
 656 20 l 2
 651 24 649 28 649 31 c 0
 649 33 647 47 643 61 c 0
 631 107 616 129 575 165 c 0
 549 188 485 237 465 249 c 0
 444 262 432 276 432 276 c 0
 431 276 427 185 427 128 c 0
 427 110 427 100 428 100 c 0
 429 100 429 99 433 76 c 0
 434 69 424 46 407 46 c 0
 398 45 396 41 388 41 c 0
 377 41 364 49 356 63 c 0
 347 78 353 133 349 133 c 0
 346 133 336 106 336 101 c 0
 336 95 302 39 198 39 c 0
 155 39 116 56 116 59 c 0
 116 61 40 94 20 207 c 0
 17 226 15 245 15 258 c 0
 15 271 18 278 18 293 c 0
 18 308 24 342 30 361 c 0
 47 416 58 439 94 488 c 0
 104 502 136 536 140 536 c 0
 148 536 178 572 229 572 c 0
 237 572 262 569 268 563 c 0
 271 560 297 545 297 537 c 0
 297 535 307 524 308 522 c 0
 308 522 313 502 313 477 c 0
 313 462 301 442 301 434 c 0
 301 429 295 430 295 427 c 0
 295 427 288 412 276 412 c 0
 260 412 246 421 250 427 c 0
 252 431 248 425 247 456 c 0
 247 473 246 476 241 486 c 0
 235 496 234 496 228 496 c 0
 209 495 185 479 163 453 c 0
 142 428 92 368 92 260 c 0
 92 229 92 210 107 177 c 0
 117 153 142 115 197 115 c 0
 240 115 283 136 283 135 c 0
 283 134 290 142 300 142 c 0
 313 142 320 159 327 159 c 0
 329 159 336 155 341 150 c 2
 350 142 l 1
 352 173 l 2
 353 190 353 218 353 236 c 0
 353 251 355 290 355 291 c 0
 355 373 349 428 349 429 c 0
 349 431 349 442 349 446 c 0
 349 448 348 478 348 478 c 0
 348 517 356 519 376 523 c 0
 391 526 393 527 397 533 c 0
 434 588 486 611 489 611 c 0
655 456 m 0
 655 488 574 544 522 544 c 0
 501 544 460 516 436 467 c 0
 433 461 429 455 428 454 c 0
 427 453 427 447 427 439 c 0
 427 408 433 395 431 389 c 0
 430 387 430 380 430 370 c 0
 430 366 430 362 430 358 c 2
 431 331 l 1
 443 343 444 344 480 346 c 0
 481 346 520 348 538 353 c 0
 573 364 593 371 603 377 c 0
 616 385 638 406 646 419 c 0
 651 426 655 446 655 456 c 0
EndSplineSet
Ligature2: "liga" C R
EndChar

StartChar: O_C_H
Encoding: 1114119 -1 69
Width: 1205
VWidth: -222
Flags: W
LayerCount: 2
Fore
SplineSet
461 314 m 1
 474 417 549 524 549 526 c 0
 549 531 595 580 600 580 c 0
 605 580 616 592 641 594 c 0
 671 596 684 592 707 569 c 0
 722 554 732 537 732 530 c 0
 732 519 745 522 745 482 c 0
 745 467 743 465 728 458 c 0
 714 452 712 452 700 464 c 0
 687 475 687 483 681 485 c 0
 674 487 663 528 645 518 c 0
 615 501 565 417 547 352 c 0
 541 330 532 300 532 241 c 0
 532 201 535 188 546 156 c 0
 555 130 557 128 576 109 c 0
 602 82 612 81 643 81 c 0
 718 81 746 113 775 115 c 0
 785 116 798 134 808 134 c 2
 813 134 l 1
 814 177 l 2
 815 219 817 275 817 282 c 0
 817 305 811 297 811 325 c 0
 811 334 812 343 814 346 c 0
 817 350 818 355 818 381 c 0
 818 421 815 431 815 476 c 0
 815 557 815 558 852 558 c 0
 870 558 872 558 877 553 c 0
 880 550 882 545 882 543 c 0
 882 542 890 530 893 414 c 2
 894 362 l 1
 901 361 905 360 1021 360 c 0
 1054 360 1081 360 1081 360 c 0
 1082 361 1099 502 1101 525 c 0
 1104 568 1111 574 1122 586 c 1
 1142 585 l 2
 1171 583 1162 580 1167 580 c 0
 1167 580 1180 577 1180 559 c 0
 1180 478 1137 278 1137 147 c 0
 1137 146 1140 90 1149 72 c 0
 1152 65 1155 60 1156 60 c 0
 1156 60 1169 58 1169 31 c 0
 1169 11 1157 16 1152 6 c 0
 1144 -9 1108 -6 1089 25 c 0
 1088 27 1085 31 1083 34 c 0
 1073 49 1063 79 1063 145 c 0
 1063 146 1063 251 1069 277 c 0
 1070 283 1070 284 1067 285 c 0
 1065 285 1043 286 1013 286 c 0
 1012 286 973 286 973 286 c 0
 942 286 914 285 908 286 c 2
 894 288 l 1
 893 244 l 2
 893 243 890 142 890 131 c 0
 890 87 901 90 893 78 c 0
 891 75 889 73 888 73 c 0
 882 73 871 51 856 51 c 0
 855 51 827 52 815 88 c 1
 810 78 l 2
 804 65 795 56 795 54 c 0
 795 53 783 46 779 41 c 0
 776 37 743 23 738 23 c 0
 734 23 693 6 636 6 c 0
 569 6 520 56 519 57 c 0
 519 58 479 103 469 144 c 0
 455 201 456 202 456 247 c 2
 456 281 l 1
 451 267 l 2
 445 249 442 248 442 246 c 0
 442 244 427 214 425 211 c 0
 422 208 407 184 394 166 c 0
 378 145 313 84 307 84 c 0
 305 84 237 29 160 29 c 0
 155 29 115 37 103 44 c 0
 80 57 79 57 74 63 c 0
 71 66 67 69 66 69 c 0
 63 70 43 95 43 98 c 0
 43 108 15 133 15 220 c 0
 15 313 37 368 38 369 c 0
 40 373 42 384 50 402 c 0
 74 453 81 466 86 472 c 0
 89 476 91 480 91 481 c 0
 91 484 118 521 119 524 c 0
 120 528 148 556 150 556 c 0
 154 556 193 599 242 589 c 0
 263 585 270 545 283 548 c 0
 286 549 290 549 295 549 c 0
 392 549 462 442 462 361 c 0
 462 361 461 317 461 314 c 1
229 495 m 0
 229 497 219 514 217 514 c 0
 216 514 132 450 102 314 c 0
 94 279 91 249 91 222 c 0
 91 189 91 188 109 138 c 0
 112 130 128 114 137 110 c 0
 143 107 148 106 163 106 c 0
 255 106 339 219 340 221 c 0
 346 230 353 238 355 240 c 0
 356 241 386 284 386 351 c 0
 386 369 376 403 376 404 c 0
 364 441 323 476 297 476 c 0
 283 476 265 464 261 465 c 0
 242 465 229 494 229 495 c 0
456 287 m 1
 460 296 460 296 459 307 c 1
 458 301 l 2
 458 297 457 293 456 287 c 1
EndSplineSet
Ligature2: "liga" O C H
EndChar

StartChar: T_H
Encoding: 1114120 -1 70
Width: 724
VWidth: 122
Flags: W
LayerCount: 2
Fore
SplineSet
147 13 m 0
 138 13 122 9 122 12 c 0
 122 13 121 14 120 14 c 0
 120 14 105 17 102 41 c 0
 101 49 101 62 101 81 c 0
 101 170 108 226 110 265 c 0
 117 415 117 416 118 457 c 2
 119 507 l 1
 101 505 l 2
 90 504 34 493 33 493 c 0
 18 487 13 503 4 529 c 2
 0 540 l 1
 4 548 l 2
 6 553 10 557 14 559 c 0
 15 559 65 580 93 581 c 0
 96 581 372 609 392 609 c 0
 395 609 398 610 400 610 c 0
 414 610 423 609 426 570 c 0
 426 565 427 562 427 559 c 0
 427 553 426 551 423 548 c 0
 414 537 416 537 377 534 c 0
 375 534 236 522 194 515 c 1
 194 503 l 1
 193 354 177 126 177 119 c 0
 177 91 184 58 184 57 c 0
 184 42 172 6 172 15 c 0
 172 16 171 15 169 13 c 0
 167 11 165 11 158 12 c 0
 153 13 150 13 147 13 c 0
610 381 m 0
 610 419 617 439 617 474 c 0
 617 497 614 530 611 554 c 2
 609 573 l 1
 619 588 618 588 654 593 c 0
 670 595 673 595 673 593 c 0
 673 590 681 591 681 586 c 0
 681 585 694 552 694 491 c 0
 694 445 665 199 665 125 c 0
 665 74 679 31 679 30 c 0
 679 25 675 18 671 16 c 0
 669 15 662 10 656 6 c 0
 649 0 643 -3 637 -3 c 0
 615 -3 592 34 592 74 c 0
 592 100 590 76 590 108 c 0
 590 212 601 290 601 292 c 0
 601 295 600 297 596 297 c 0
 594 297 487 277 413 277 c 0
 383 277 383 277 383 276 c 0
 383 269 375 216 368 154 c 2
 364 119 l 1
 374 105 378 101 378 76 c 0
 378 49 375 45 365 35 c 0
 360 29 349 19 337 19 c 0
 330 19 314 20 300 34 c 0
 293 41 287 67 287 90 c 0
 287 127 306 268 306 270 c 0
 306 271 313 350 313 392 c 0
 313 410 311 447 311 448 c 0
 311 470 316 473 339 481 c 0
 347 484 353 485 358 485 c 0
 368 485 371 485 383 452 c 0
 391 431 393 424 393 414 c 0
 393 397 388 403 388 373 c 2
 388 353 l 1
 408 352 l 2
 411 352 415 352 418 352 c 0
 485 352 610 372 610 381 c 0
EndSplineSet
Ligature2: "liga" T H
EndChar

StartChar: T_R
Encoding: 1114121 -1 71
Width: 778
VWidth: 69
Flags: W
LayerCount: 2
Fore
SplineSet
126 121 m 0
 126 228 130 354 130 477 c 0
 130 497 130 509 130 509 c 0
 123 509 83 492 83 489 c 0
 83 486 71 483 62 467 c 0
 57 459 54 455 48 455 c 0
 47 455 0 465 0 493 c 0
 0 500 13 545 44 556 c 0
 51 559 85 577 107 581 c 0
 116 582 140 595 219 600 c 0
 229 601 238 601 238 601 c 0
 238 601 276 602 320 602 c 0
 398 602 401 602 405 598 c 0
 411 592 418 560 418 556 c 0
 418 543 406 527 349 527 c 0
 331 527 338 529 311 529 c 0
 273 529 203 526 203 523 c 0
 203 515 206 541 206 476 c 0
 206 385 201 156 201 153 c 0
 201 122 201 97 205 89 c 0
 208 82 208 81 206 67 c 0
 202 44 201 43 189 36 c 0
 179 30 179 30 162 32 c 0
 128 36 126 61 126 121 c 0
487 554 m 0
 488 554 524 567 547 567 c 0
 584 567 628 566 672 547 c 0
 699 535 692 540 701 534 c 0
 704 532 708 530 709 530 c 0
 718 530 732 509 735 509 c 0
 736 509 737 509 737 508 c 0
 737 505 747 497 749 487 c 0
 751 476 754 480 754 471 c 0
 754 467 755 465 756 465 c 0
 759 465 754 462 757 455 c 0
 757 454 758 453 758 452 c 0
 758 443 745 409 740 403 c 0
 732 393 731 392 731 391 c 0
 731 388 697 358 688 353 c 0
 663 338 645 328 612 318 c 0
 606 316 598 313 594 312 c 0
 576 305 513 295 513 292 c 0
 513 289 529 288 579 264 c 0
 624 243 663 224 680 177 c 0
 682 172 684 167 685 166 c 0
 687 163 703 108 703 89 c 0
 703 74 695 70 672 65 c 2
 651 61 l 1
 643 65 l 2
 618 78 633 119 603 162 c 0
 596 172 570 187 527 205 c 0
 398 259 418 264 417 264 c 0
 415 264 412 202 412 130 c 0
 412 37 416 46 416 45 c 0
 416 38 398 24 386 23 c 0
 383 23 378 22 374 21 c 0
 335 12 335 62 335 114 c 0
 335 152 341 371 341 374 c 0
 341 400 337 391 337 441 c 0
 337 468 338 471 347 476 c 0
 353 480 379 487 385 487 c 0
 392 487 407 511 431 526 c 0
 448 536 478 554 487 554 c 0
678 457 m 0
 678 464 624 494 558 494 c 0
 549 494 549 494 518 490 c 0
 491 488 445 458 433 434 c 0
 430 427 425 421 424 420 c 0
 420 417 418 411 418 403 c 0
 418 395 420 385 418 380 c 0
 417 378 417 365 417 350 c 2
 417 323 l 1
 420 330 l 2
 425 338 451 353 470 357 c 0
 489 362 495 366 515 370 c 0
 561 380 561 380 563 380 c 0
 569 380 562 381 596 391 c 0
 628 401 678 431 678 457 c 0
EndSplineSet
Ligature2: "liga" T R
EndChar

StartChar: E_E
Encoding: 1114122 -1 72
Width: 871
VWidth: -1
Flags: W
LayerCount: 2
Fore
SplineSet
354 576 m 0
 428 576 429 574 429 570 c 0
 429 569 451 557 447 547 c 0
 445 542 454 537 450 530 c 0
 448 526 448 526 452 528 c 0
 458 531 486 536 488 539 c 0
 491 543 514 553 522 554 c 0
 526 555 536 557 544 559 c 0
 565 565 661 588 814 588 c 0
 823 588 828 588 832 582 c 0
 834 580 837 578 838 578 c 0
 842 578 842 570 844 570 c 0
 846 570 845 562 849 553 c 0
 856 539 841 529 841 524 c 0
 841 522 835 517 828 511 c 0
 826 510 826 510 785 510 c 0
 716 510 624 498 622 497 c 0
 604 492 582 497 542 478 c 0
 526 470 525 470 526 464 c 0
 529 449 531 427 531 409 c 0
 531 407 531 406 531 404 c 2
 530 383 l 1
 539 389 540 388 555 385 c 0
 565 383 579 383 601 383 c 0
 613 383 l 0
 660 383 707 378 719 373 c 0
 734 368 734 368 740 363 c 0
 744 359 748 356 749 356 c 0
 749 356 759 348 749 323 c 0
 748 321 748 320 748 319 c 0
 748 319 732 300 729 299 c 0
 727 298 723 298 718 298 c 0
 716 298 554 308 530 329 c 0
 528 331 525 333 525 299 c 0
 525 247 494 84 493 82 c 0
 489 67 534 81 534 81 c 0
 539 84 645 104 685 107 c 0
 763 114 763 114 769 114 c 0
 789 114 817 112 820 109 c 0
 831 100 832 100 835 87 c 0
 837 79 838 74 838 70 c 0
 838 63 835 59 827 51 c 2
 815 39 l 1
 787 38 l 2
 700 34 676 29 654 24 c 0
 638 21 598 16 562 8 c 0
 521 -1 504 -4 482 -4 c 0
 462 -4 461 -4 453 2 c 0
 439 12 428 9 420 19 c 0
 419 21 417 28 415 36 c 2
 412 50 l 1
 395 33 395 33 373 33 c 0
 370 33 368 33 365 33 c 0
 350 33 300 35 299 35 c 0
 298 35 214 28 165 15 c 0
 134 7 99 1 80 1 c 0
 66 1 49 4 48 4 c 0
 41 4 34 14 32 25 c 0
 29 50 11 48 10 71 c 0
 10 75 10 78 10 81 c 0
 10 129 21 163 23 210 c 0
 24 222 36 331 37 332 c 0
 39 336 38 531 43 540 c 0
 45 545 55 551 61 551 c 0
 75 551 87 569 160 571 c 0
 196 571 266 576 354 576 c 0
451 391 m 0
 451 462 446 455 446 494 c 0
 446 507 446 519 445 519 c 0
 438 519 433 497 410 497 c 0
 409 497 372 501 352 501 c 0
 334 501 297 498 291 498 c 0
 169 497 122 488 120 488 c 0
 118 488 117 476 117 435 c 2
 117 383 l 1
 122 382 126 381 135 381 c 2
 166 381 l 2
 167 381 169 381 170 381 c 0
 202 381 203 384 235 384 c 0
 257 384 280 383 282 380 c 0
 283 377 293 376 296 373 c 0
 305 366 308 364 311 363 c 0
 314 362 315 361 315 344 c 0
 315 327 313 334 313 323 c 0
 313 317 311 314 307 309 c 0
 301 302 300 302 286 302 c 0
 255 302 296 307 214 307 c 0
 170 307 161 308 141 312 c 0
 128 314 116 315 115 315 c 0
 114 315 112 311 112 306 c 0
 112 304 100 195 93 138 c 2
 90 113 l 1
 95 102 l 2
 103 84 97 79 102 80 c 0
 113 83 226 105 243 108 c 0
 254 110 293 110 329 110 c 0
 362 110 392 110 393 108 c 0
 395 105 414 103 414 94 c 0
 414 92 414 92 414 92 c 0
 416 92 443 250 445 282 c 0
 451 358 451 359 451 391 c 0
EndSplineSet
Ligature2: "liga" E E
EndChar

StartChar: T_T
Encoding: 1114123 -1 73
Width: 868
VWidth: 27
Flags: W
LayerCount: 2
Fore
SplineSet
797 620 m 0
 810 620 803 622 818 622 c 0
 832 622 839 615 841 604 c 0
 842 600 844 594 846 589 c 0
 854 570 833 554 833 554 c 0
 830 554 829 548 817 547 c 0
 754 537 718 533 700 533 c 0
 687 533 597 517 559 517 c 0
 558 517 558 494 558 465 c 0
 557 370 549 349 548 329 c 0
 548 308 526 158 526 156 c 0
 525 137 516 74 516 74 c 0
 516 74 522 55 518 45 c 0
 512 29 522 29 512 20 c 0
 509 17 506 14 506 13 c 0
 506 10 499 4 494 2 c 0
 488 0 456 6 454 6 c 0
 449 6 436 25 436 44 c 0
 436 117 481 358 481 488 c 2
 481 513 l 1
 455 513 l 2
 453 513 452 513 450 513 c 0
 428 513 393 516 392 516 c 0
 351 516 238 501 210 496 c 1
 211 446 l 2
 211 441 211 436 211 430 c 0
 211 324 199 186 199 183 c 0
 199 127 189 98 186 53 c 0
 186 53 183 23 159 23 c 0
 143 23 116 28 111 34 c 0
 107 40 104 44 104 50 c 0
 104 51 113 98 117 152 c 0
 119 187 124 241 126 254 c 0
 130 280 133 367 133 422 c 0
 133 431 133 468 133 468 c 0
 133 474 134 479 136 485 c 1
 124 484 l 2
 108 482 86 481 70 481 c 0
 43 481 19 490 19 491 c 0
 19 492 18 493 16 493 c 0
 15 493 11 496 7 500 c 0
 0 508 0 508 0 526 c 0
 0 555 1 554 70 557 c 0
 170 561 284 592 379 592 c 0
 412 592 397 586 420 588 c 0
 422 588 606 596 634 601 c 0
 669 607 788 620 797 620 c 0
EndSplineSet
Ligature2: "liga" T T
EndChar

StartChar: L_B
Encoding: 1114124 -1 74
Width: 795
VWidth: 78
Flags: W
LayerCount: 2
Fore
SplineSet
150 107 m 0
 206 107 278 144 331 144 c 0
 362 144 366 135 366 135 c 0
 367 135 367 170 367 210 c 0
 367 369 360 330 357 414 c 0
 357 420 349 513 349 514 c 0
 347 530 347 532 351 536 c 0
 355 541 366 545 372 545 c 0
 381 545 378 565 407 579 c 0
 442 596 462 605 524 605 c 0
 587 605 606 600 638 589 c 0
 647 586 655 583 657 583 c 0
 661 583 677 574 682 574 c 0
 686 574 705 553 708 553 c 0
 709 553 722 533 722 528 c 0
 722 518 730 515 728 499 c 0
 722 461 723 461 722 460 c 0
 722 460 708 432 692 413 c 0
 670 387 638 360 638 360 c 0
 639 359 668 350 681 344 c 0
 708 330 722 318 722 318 c 0
 726 318 756 283 757 277 c 0
 758 274 761 268 763 263 c 0
 770 247 770 209 770 208 c 0
 770 143 686 5 623 -28 c 0
 600 -40 584 -48 580 -51 c 0
 576 -54 558 -55 558 -58 c 0
 558 -59 552 -59 543 -59 c 0
 497 -59 487 -54 486 -54 c 0
 482 -54 464 -44 459 -43 c 0
 451 -40 434 -17 425 -17 c 0
 424 -17 422 -18 420 -18 c 0
 419 -18 376 -25 370 54 c 0
 369 73 367 81 366 81 c 0
 360 81 375 72 326 66 c 0
 303 63 282 59 278 56 c 0
 276 55 225 43 215 39 c 0
 205 34 172 29 151 29 c 0
 129 29 107 33 101 38 c 0
 97 41 91 44 78 51 c 0
 70 55 47 79 47 83 c 0
 47 84 25 135 22 171 c 0
 21 181 20 227 20 271 c 0
 20 316 20 366 24 401 c 0
 26 416 28 512 29 512 c 0
 34 512 26 545 39 557 c 0
 45 563 46 562 83 567 c 0
 88 568 96 562 98 557 c 0
 100 552 108 490 108 476 c 0
 108 468 106 475 106 459 c 0
 106 447 107 436 107 426 c 0
 107 419 106 415 105 414 c 0
 101 409 98 336 98 269 c 0
 98 150 103 107 150 107 c 0
649 496 m 0
 649 508 599 535 501 535 c 0
 451 535 441 521 441 520 c 0
 441 517 431 515 426 505 c 0
 416 487 435 452 437 396 c 0
 440 304 444 370 446 176 c 2
 447 83 l 1
 480 49 483 33 498 24 c 0
 504 20 507 20 526 20 c 0
 538 20 550 20 554 22 c 0
 568 27 591 43 608 60 c 0
 637 89 648 104 674 154 c 0
 684 174 691 201 691 220 c 0
 691 235 683 262 634 278 c 0
 624 281 613 286 608 288 c 0
 597 293 576 294 545 294 c 0
 498 294 496 291 491 291 c 0
 472 291 463 319 463 346 c 0
 463 350 463 353 464 353 c 0
 468 353 459 361 504 375 c 0
 538 386 572 405 608 435 c 0
 629 452 649 484 649 496 c 0
EndSplineSet
Ligature2: "liga" L B
EndChar

StartChar: E_R
Encoding: 1114125 -1 75
Width: 860
VWidth: 876
Flags: W
LayerCount: 2
Fore
SplineSet
19 32 m 0
 19 45 10 48 10 59 c 0
 10 83 25 174 27 231 c 0
 28 243 29 262 30 274 c 0
 31 293 38 492 38 494 c 0
 42 519 44 527 49 532 c 0
 60 543 99 570 114 576 c 0
 116 577 249 626 363 626 c 0
 384 626 403 625 408 622 c 0
 414 619 428 618 430 612 c 0
 431 607 439 603 439 595 c 0
 439 592 440 586 442 582 c 0
 449 565 435 560 435 557 c 0
 435 552 418 543 418 542 c 0
 418 542 414 536 393 536 c 0
 383 536 373 537 372 539 c 0
 372 539 363 549 353 549 c 0
 295 549 151 515 130 500 c 0
 127 498 122 496 119 495 c 0
 115 494 111 492 111 470 c 0
 111 448 114 424 114 397 c 0
 114 375 114 375 118 374 c 0
 119 374 121 374 125 374 c 0
 126 374 184 377 199 377 c 0
 235 377 260 372 267 366 c 0
 270 364 272 362 273 362 c 0
 280 362 297 333 288 327 c 0
 287 326 287 307 280 307 c 0
 279 307 263 293 244 293 c 0
 234 293 241 300 202 300 c 0
 182 300 171 298 154 298 c 0
 135 298 123 301 117 301 c 0
 110 301 111 296 110 276 c 0
 107 218 101 159 97 138 c 0
 96 135 96 135 96 121 c 0
 96 115 95 110 91 78 c 1
 98 78 l 2
 134 78 314 108 335 108 c 0
 341 108 368 109 376 109 c 0
 401 109 404 106 408 91 c 0
 410 85 411 81 412 81 c 0
 414 82 414 119 422 173 c 0
 434 246 441 398 441 428 c 0
 441 436 441 440 440 444 c 0
 437 463 444 473 444 494 c 0
 444 542 471 520 481 533 c 0
 486 539 526 569 557 579 c 0
 588 589 592 589 598 589 c 0
 602 589 605 590 605 591 c 0
 605 592 610 593 617 593 c 0
 719 593 758 549 769 549 c 0
 779 549 817 512 826 493 c 0
 830 486 834 479 835 478 c 0
 838 476 840 455 840 440 c 0
 840 403 811 379 811 375 c 0
 811 369 768 338 768 338 c 0
 763 332 684 297 635 297 c 2
 627 297 l 1
 655 276 l 2
 730 222 795 172 816 104 c 0
 818 96 821 90 822 89 c 0
 824 87 829 55 829 41 c 0
 829 25 822 25 822 21 c 0
 822 20 819 17 816 14 c 0
 810 9 810 9 795 10 c 0
 766 12 763 13 756 20 c 0
 750 26 750 28 750 39 c 0
 750 58 738 97 727 113 c 0
 700 152 552 258 548 261 c 0
 541 265 519 285 516 290 c 0
 512 297 512 263 509 246 c 0
 509 245 494 103 494 102 c 0
 488 47 489 49 482 42 c 0
 476 36 475 36 455 35 c 0
 432 33 417 33 414 60 c 2
 413 70 l 1
 398 43 398 59 386 47 c 0
 384 45 382 43 381 43 c 0
 380 43 374 34 307 27 c 0
 291 25 255 19 252 20 c 0
 246 22 196 7 137 4 c 0
 121 3 88 -4 61 -4 c 0
 45 -4 29 6 27 8 c 0
 22 13 19 22 19 32 c 0
761 441 m 0
 761 475 687 524 627 524 c 0
 577 524 532 486 528 486 c 0
 527 486 523 483 519 480 c 2
 511 475 l 1
 513 460 l 2
 514 452 514 444 515 442 c 0
 516 440 517 419 517 395 c 0
 517 361 517 354 519 354 c 0
 519 354 535 368 557 369 c 0
 658 376 675 380 702 392 c 0
 728 403 729 404 747 422 c 0
 759 434 761 437 761 441 c 0
EndSplineSet
Ligature2: "liga" E R
Ligature2: "liga" E R
EndChar

StartChar: R_R
Encoding: 1114126 -1 76
Width: 831
VWidth: 26
Flags: W
LayerCount: 2
Fore
SplineSet
95 587 m 0
 109 587 108 590 144 590 c 0
 165 590 213 586 233 582 c 0
 254 578 300 568 324 553 c 0
 340 543 335 551 347 540 c 0
 353 535 357 532 358 533 c 0
 359 534 365 520 367 520 c 0
 369 520 373 504 378 501 c 0
 381 499 381 495 381 470 c 0
 381 439 381 438 368 416 c 0
 341 370 291 333 223 307 c 0
 198 298 203 298 179 290 c 2
 162 285 l 1
 177 278 l 2
 178 277 271 233 297 215 c 0
 300 213 303 210 304 210 c 0
 307 210 325 194 328 194 c 0
 331 194 362 160 370 148 c 0
 385 126 393 100 394 100 c 0
 395 100 396 208 396 320 c 0
 396 368 396 417 396 458 c 2
 395 514 l 1
 417 543 419 521 436 541 c 0
 448 556 474 588 588 588 c 0
 648 588 705 571 706 571 c 0
 713 571 747 554 747 554 c 0
 755 554 790 521 790 514 c 0
 790 510 797 511 797 478 c 0
 797 447 780 423 780 423 c 0
 779 422 759 382 698 349 c 0
 689 344 681 339 680 338 c 0
 673 330 589 308 573 300 c 0
 569 298 569 297 584 286 c 0
 607 269 630 246 638 243 c 0
 659 234 811 63 811 40 c 0
 811 27 811 27 787 11 c 0
 772 1 768 -2 763 -2 c 0
 742 -2 738 22 725 34 c 0
 721 38 694 73 692 74 c 0
 689 75 656 115 656 117 c 0
 656 121 577 196 573 196 c 0
 569 196 552 215 518 240 c 0
 504 250 492 260 490 262 c 0
 484 268 476 273 475 271 c 0
 474 270 473 252 473 232 c 0
 473 154 479 175 479 113 c 0
 479 105 485 102 485 80 c 0
 485 65 484 62 472 53 c 0
 460 44 462 44 459 44 c 0
 458 44 448 33 435 40 c 0
 430 42 423 43 419 45 c 0
 416 47 403 66 403 69 c 0
 403 72 400 69 401 53 c 0
 401 45 400 40 399 40 c 0
 398 40 397 38 397 37 c 0
 397 33 393 24 357 22 c 2
 341 21 l 1
 335 27 l 2
 313 48 328 70 309 99 c 0
 302 111 279 134 264 144 c 0
 236 164 104 231 103 230 c 0
 102 229 104 113 112 88 c 0
 114 82 115 73 115 66 c 0
 115 54 108 31 93 23 c 0
 90 21 84 21 76 21 c 0
 50 21 25 25 25 114 c 0
 25 134 27 135 27 150 c 0
 27 162 24 166 23 286 c 0
 22 383 20 443 18 447 c 0
 16 450 16 473 14 476 c 0
 12 479 10 497 10 511 c 0
 10 519 11 526 12 528 c 0
 23 549 32 563 36 567 c 0
 39 570 41 571 41 570 c 0
 41 569 44 571 47 574 c 0
 57 584 70 577 81 583 c 0
 84 585 90 587 95 587 c 0
284 495 m 0
 282 495 224 523 132 523 c 0
 104 523 86 519 86 513 c 0
 86 513 96 478 98 455 c 0
 100 438 102 433 101 424 c 0
 100 414 99 389 99 371 c 0
 99 358 99 348 100 348 c 0
 101 348 170 369 181 374 c 0
 186 376 200 382 211 386 c 0
 245 399 268 413 286 432 c 0
 305 452 310 459 310 469 c 0
 310 483 284 495 284 495 c 0
477 354 m 0
 480 354 500 364 507 364 c 0
 520 364 591 388 596 389 c 0
 610 391 651 408 669 420 c 0
 696 437 721 465 721 478 c 0
 721 495 653 512 634 515 c 0
 621 517 585 519 554 519 c 0
 504 519 483 499 483 498 c 0
 483 494 475 498 475 465 c 0
 475 454 478 433 478 390 c 0
 478 374 474 354 477 354 c 0
EndSplineSet
Ligature2: "liga" R R
EndChar

StartChar: T_I
Encoding: 1114127 -1 77
Width: 449
VWidth: 190
Flags: W
LayerCount: 2
Fore
SplineSet
135 425 m 0
 135 457 131 429 131 460 c 0
 131 466 130 474 127 495 c 1
 117 494 l 2
 94 491 66 485 65 485 c 0
 59 485 51 483 44 480 c 2
 32 475 l 1
 23 479 l 2
 15 483 14 484 7 500 c 0
 3 510 0 519 0 526 c 0
 0 534 3 541 9 545 c 0
 10 546 56 573 121 573 c 0
 127 573 208 585 230 589 c 0
 232 589 374 617 387 617 c 0
 391 617 392 616 392 615 c 0
 392 609 407 620 423 596 c 2
 429 587 l 1
 426 576 l 2
 422 560 416 548 411 546 c 0
 405 543 403 544 368 537 c 0
 292 523 292 522 285 521 c 0
 241 515 260 515 223 509 c 2
 202 506 l 1
 213 468 215 464 215 454 c 0
 215 452 210 318 202 280 c 0
 199 264 192 218 182 181 c 0
 176 158 161 74 161 62 c 0
 161 57 161 53 161 49 c 0
 161 39 152 34 152 29 c 0
 152 26 137 11 135 11 c 0
 127 11 132 10 127 10 c 0
 123 10 118 10 109 13 c 0
 86 20 79 25 79 45 c 0
 79 111 135 271 135 425 c 0
318 413 m 0
 318 428 312 450 312 457 c 0
 312 475 328 478 342 481 c 0
 342 481 360 485 362 485 c 0
 368 485 379 475 379 470 c 0
 379 469 388 456 396 416 c 0
 401 388 404 369 404 362 c 0
 404 357 402 360 403 357 c 0
 404 356 404 343 404 326 c 0
 404 258 401 245 399 145 c 2
 398 74 l 1
 404 69 406 66 406 62 c 0
 406 57 402 42 400 40 c 0
 399 39 397 36 395 33 c 0
 390 24 369 19 357 19 c 0
 347 19 336 24 334 30 c 0
 333 32 330 37 328 40 c 0
 322 47 321 59 321 98 c 0
 321 155 326 301 326 314 c 0
 326 341 320 359 322 370 c 0
 322 371 322 373 322 375 c 0
 322 385 318 398 318 413 c 0
EndSplineSet
Ligature2: "liga" T I
EndChar

StartChar: L_A
Encoding: 1114128 -1 78
Width: 834
VWidth: 40
Flags: W
LayerCount: 2
Fore
SplineSet
361 164 m 0
 375 164 377 163 384 159 c 1
 393 213 l 2
 393 215 427 394 439 415 c 0
 440 417 441 420 441 421 c 0
 441 422 477 511 491 533 c 0
 497 542 502 550 502 551 c 0
 502 551 527 580 537 582 c 0
 545 584 546 588 555 589 c 0
 564 590 566 592 575 592 c 0
 624 592 668 547 668 546 c 0
 668 543 715 503 748 419 c 0
 750 413 754 406 755 404 c 0
 758 400 768 368 771 352 c 0
 786 287 786 286 788 270 c 0
 795 219 800 194 800 178 c 0
 800 177 804 151 804 59 c 0
 804 46 804 31 804 16 c 0
 804 8 796 7 796 3 c 0
 796 -4 774 -17 762 -17 c 0
 753 -17 750 -11 746 -11 c 0
 737 -11 722 17 724 21 c 0
 725 23 726 33 726 48 c 0
 726 98 721 203 716 230 c 2
 713 242 l 1
 677 241 l 2
 587 240 547 227 497 227 c 0
 475 227 475 226 475 226 c 0
 475 226 470 185 467 181 c 0
 466 180 451 58 447 51 c 0
 447 51 435 16 420 4 c 0
 416 1 408 -2 404 -2 c 0
 400 -2 396 0 384 8 c 0
 367 19 367 19 364 29 c 0
 360 40 359 49 362 51 c 0
 364 52 370 81 370 88 c 0
 370 89 370 89 369 89 c 0
 337 89 233 31 156 31 c 0
 135 31 106 34 94 43 c 0
 86 50 73 54 66 62 c 0
 59 70 51 77 50 81 c 0
 50 82 22 126 22 173 c 0
 22 202 20 174 20 216 c 0
 20 292 27 390 34 441 c 0
 48 541 49 540 64 548 c 2
 72 553 l 1
 91 550 l 2
 104 548 126 544 122 520 c 0
 121 515 120 504 120 496 c 0
 120 484 108 388 107 384 c 0
 107 383 99 261 99 237 c 0
 99 211 102 166 105 149 c 0
 106 141 114 108 149 108 c 0
 210 108 312 164 361 164 c 0
670 405 m 0
 661 439 604 512 580 512 c 0
 567 512 562 502 543 464 c 0
 501 380 492 310 492 308 c 0
 492 306 493 305 494 305 c 0
 494 305 496 307 524 308 c 0
 525 308 556 311 670 318 c 1
 699 320 l 1
 694 353 676 383 670 405 c 0
EndSplineSet
Ligature2: "liga" L A
EndChar

StartChar: L_L
Encoding: 1114129 -1 79
Width: 752
VWidth: 43
Flags: W
LayerCount: 2
Fore
SplineSet
30 87 m 0
 30 101 20 90 20 168 c 0
 20 218 21 286 27 351 c 0
 29 373 30 396 30 422 c 0
 30 482 29 482 29 484 c 0
 27 493 27 501 27 507 c 0
 27 533 40 536 56 540 c 0
 66 543 73 544 79 544 c 0
 93 544 95 534 103 504 c 0
 110 477 111 464 111 425 c 0
 111 391 111 379 109 376 c 0
 103 364 97 199 97 197 c 0
 97 167 100 131 104 113 c 0
 112 76 118 68 141 68 c 0
 172 68 246 88 261 96 c 0
 275 103 329 117 345 111 c 0
 349 109 350 110 349 112 c 0
 339 137 339 161 339 206 c 0
 339 264 340 350 349 401 c 0
 353 423 358 487 361 491 c 0
 365 498 359 517 370 531 c 0
 375 537 376 539 398 539 c 0
 429 539 429 526 429 463 c 0
 429 377 416 318 416 220 c 0
 416 154 420 118 449 101 c 0
 454 98 460 95 486 95 c 0
 540 95 655 126 703 126 c 0
 709 126 711 125 717 121 c 0
 726 115 726 115 730 97 c 0
 732 89 732 83 732 78 c 0
 732 62 723 57 700 53 c 0
 655 46 531 17 486 17 c 0
 392 17 366 79 366 66 c 0
 366 57 355 43 348 43 c 0
 333 43 270 16 254 14 c 0
 247 14 213 -2 198 -2 c 0
 185 -2 185 -9 144 -9 c 0
 102 -9 107 -2 99 -2 c 0
 94 -2 82 7 79 7 c 0
 77 7 50 35 48 40 c 0
 29 81 30 81 30 87 c 0
EndSplineSet
Ligature2: "liga" L L
EndChar

StartChar: O_N
Encoding: 1114130 -1 80
Width: 851
VWidth: 42
Flags: W
LayerCount: 2
Fore
SplineSet
464 597 m 0
 482 597 487 584 491 584 c 0
 497 584 520 508 583 393 c 0
 595 371 607 350 608 347 c 0
 608 346 659 255 689 216 c 0
 700 201 726 165 735 154 c 1
 734 185 l 2
 733 202 732 247 730 284 c 0
 728 330 726 376 726 416 c 0
 726 441 727 556 741 579 c 0
 745 585 758 601 768 601 c 0
 771 601 808 588 814 576 c 0
 820 564 813 575 809 525 c 0
 805 472 803 441 803 415 c 0
 803 402 816 154 816 111 c 0
 816 59 809 56 810 56 c 0
 812 56 805 45 801 43 c 0
 794 39 792 34 786 32 c 0
 784 31 778 31 773 31 c 0
 757 31 754 33 750 33 c 0
 746 34 720 56 720 56 c 0
 720 57 712 66 702 76 c 0
 661 118 585 232 579 245 c 0
 578 246 547 299 506 376 c 0
 500 388 493 397 493 397 c 0
 491 397 501 251 501 149 c 0
 501 107 500 69 498 67 c 0
 497 66 497 62 497 58 c 0
 497 49 491 45 491 42 c 0
 491 41 489 38 487 36 c 0
 484 33 481 32 461 32 c 0
 449 32 438 32 438 33 c 0
 438 36 432 34 427 42 c 0
 424 47 423 53 423 112 c 0
 423 198 417 350 417 297 c 0
 417 285 411 259 406 247 c 0
 403 240 398 230 396 224 c 0
 365 142 326 120 326 114 c 0
 326 112 285 75 282 74 c 0
 281 74 221 25 161 25 c 0
 114 25 99 39 99 39 c 0
 95 44 86 44 69 62 c 0
 49 82 34 115 25 153 c 0
 20 174 20 229 20 257 c 0
 20 307 29 320 29 327 c 0
 29 338 46 408 50 413 c 0
 51 414 74 471 92 503 c 0
 112 538 142 566 158 568 c 0
 170 569 174 574 182 571 c 0
 185 570 188 570 189 571 c 0
 190 572 190 571 190 570 c 0
 190 566 208 564 217 549 c 0
 220 544 224 541 226 541 c 0
 230 541 267 526 281 519 c 0
 322 498 377 439 377 436 c 0
 377 433 409 387 412 352 c 0
 413 343 413 339 414 339 c 0
 415 339 416 365 416 425 c 0
 416 569 416 597 464 597 c 0
207 446 m 0
 189 446 195 466 190 468 c 0
 189 469 183 469 175 470 c 2
 161 471 l 1
 155 462 153 459 137 426 c 0
 99 344 109 297 99 286 c 0
 98 285 97 269 97 244 c 0
 97 240 97 237 97 233 c 2
 97 182 l 1
 104 159 l 2
 119 105 141 102 159 102 c 0
 198 102 227 129 268 165 c 0
 278 174 306 202 326 259 c 0
 329 269 333 279 335 282 c 0
 338 287 339 295 339 305 c 0
 339 369 307 400 292 415 c 0
 271 435 264 442 247 451 c 0
 236 457 234 457 233 454 c 0
 232 450 217 446 207 446 c 0
EndSplineSet
Ligature2: "liga" O N
EndChar

StartChar: C_A
Encoding: 1114131 -1 81
Width: 776
VWidth: 102
Flags: W
LayerCount: 2
Fore
SplineSet
43 85 m 0
 43 86 20 126 20 209 c 0
 20 251 20 335 56 413 c 0
 84 475 102 512 151 561 c 0
 174 584 206 616 270 616 c 0
 294 616 289 611 296 610 c 0
 301 610 331 594 333 591 c 0
 337 582 358 580 384 520 c 0
 394 494 358 483 356 483 c 0
 342 483 303 544 265 544 c 0
 229 544 107 459 96 229 c 0
 96 225 96 222 96 218 c 0
 96 106 145 43 192 43 c 0
 237 43 308 91 317 91 c 0
 323 91 332 113 347 111 c 0
 356 110 355 111 355 122 c 0
 355 124 372 273 376 291 c 0
 380 306 383 341 390 367 c 0
 408 441 408 441 421 472 c 0
 421 473 445 523 467 539 c 0
 482 551 487 553 487 553 c 0
 487 557 506 560 523 560 c 0
 545 560 555 555 555 555 c 0
 555 557 579 540 581 540 c 0
 584 540 626 503 644 468 c 0
 647 462 652 453 654 450 c 0
 671 427 685 371 692 359 c 0
 700 344 730 245 738 190 c 0
 739 182 741 170 743 163 c 0
 748 139 751 103 751 75 c 0
 751 21 742 32 742 26 c 0
 742 24 734 18 734 14 c 0
 734 8 709 7 709 7 c 0
 702 7 684 12 682 14 c 0
 679 18 672 33 672 35 c 0
 672 40 667 38 667 49 c 0
 667 55 668 61 671 64 c 0
 676 70 673 110 661 184 c 0
 655 222 656 225 642 225 c 0
 640 225 638 224 636 224 c 0
 611 224 588 228 567 228 c 0
 547 228 521 226 476 222 c 2
 443 218 l 1
 444 205 l 2
 444 186 435 139 435 128 c 0
 432 88 413 5 386 5 c 0
 384 5 348 12 346 17 c 0
 345 21 343 23 341 23 c 0
 338 23 333 20 324 13 c 0
 300 -5 247 -30 233 -30 c 0
 233 -30 232 -30 231 -30 c 0
 221 -30 199 -33 188 -33 c 0
 178 -33 177 -30 167 -30 c 0
 150 -30 103 -3 103 -2 c 0
 103 -1 77 14 54 59 c 0
 48 71 43 83 43 85 c 0
632 300 m 1
 619 323 615 345 615 345 c 0
 615 346 592 427 547 468 c 0
 535 479 531 482 526 482 c 0
 485 482 457 302 457 300 c 0
 457 297 458 297 461 298 c 0
 462 298 526 304 559 304 c 0
 582 304 608 303 622 301 c 2
 632 300 l 1
EndSplineSet
Ligature2: "liga" C A
EndChar

StartChar: P_S
Encoding: 1114132 -1 82
Width: 830
VWidth: 45
Flags: W
LayerCount: 2
Fore
SplineSet
103 42 m 1
 91 32 90 30 59 30 c 2
 39 30 l 1
 35 35 30 41 26 46 c 1
 27 119 l 2
 27 186 31 261 31 262 c 0
 31 304 24 280 26 307 c 0
 28 332 35 317 35 391 c 0
 35 397 35 402 35 408 c 2
 34 446 l 1
 24 449 l 2
 11 452 6 457 3 470 c 0
 1 479 0 484 0 490 c 0
 0 538 65 606 185 606 c 0
 207 606 239 606 293 580 c 0
 305 574 315 570 316 570 c 0
 320 570 353 543 356 543 c 0
 359 543 411 487 411 470 c 0
 411 464 420 488 425 496 c 0
 427 499 428 502 428 503 c 0
 428 506 443 522 443 524 c 0
 443 526 476 553 478 553 c 0
 479 553 531 585 553 588 c 0
 569 591 602 604 642 605 c 0
 647 605 652 605 656 605 c 0
 682 605 714 592 715 591 c 0
 722 587 737 575 737 572 c 0
 737 571 740 559 738 548 c 0
 738 548 726 523 709 521 c 0
 694 519 668 529 650 529 c 0
 630 529 541 512 506 476 c 0
 471 439 478 354 498 354 c 0
 516 354 564 378 568 378 c 0
 574 378 607 400 635 400 c 0
 664 400 666 392 671 392 c 0
 672 392 724 371 750 343 c 0
 753 339 759 334 762 331 c 0
 767 326 782 296 782 291 c 0
 782 290 800 251 800 202 c 0
 800 134 765 95 765 84 c 0
 765 80 734 50 727 47 c 0
 726 47 661 8 627 3 c 0
 617 1 624 -1 597 -3 c 0
 593 -3 589 -3 585 -3 c 0
 571 -3 525 -3 476 47 c 0
 458 65 456 69 444 92 c 2
 432 116 l 1
 431 138 l 2
 431 144 430 149 430 152 c 0
 430 183 455 185 467 186 c 0
 477 187 487 189 487 178 c 0
 487 176 488 174 489 174 c 0
 490 174 491 172 491 168 c 0
 491 159 496 158 496 154 c 0
 496 149 508 127 521 110 c 0
 544 78 565 75 595 75 c 0
 609 75 612 76 633 85 c 0
 679 104 694 115 705 137 c 0
 710 147 723 182 723 195 c 0
 723 217 714 271 699 287 c 0
 690 297 654 321 641 321 c 0
 610 321 552 284 537 284 c 0
 535 284 532 283 532 282 c 0
 532 281 530 280 527 280 c 0
 512 280 515 271 491 277 c 0
 484 279 475 281 471 281 c 0
 470 281 419 288 403 375 c 1
 397 363 l 2
 386 343 373 331 373 328 c 0
 373 326 341 296 333 291 c 0
 288 261 252 241 174 241 c 0
 141 241 109 247 109 247 c 0
 107 245 103 141 103 82 c 0
 103 77 103 72 103 68 c 2
 103 42 l 1
330 401 m 0
 330 405 339 420 339 434 c 0
 339 457 275 535 176 535 c 0
 154 535 132 532 120 527 c 2
 109 523 l 1
 110 513 l 2
 110 507 111 462 111 414 c 2
 112 326 l 1
 123 323 l 2
 134 320 156 318 190 318 c 0
 279 318 330 397 330 401 c 0
EndSplineSet
Ligature2: "liga" P S
EndChar

StartChar: T_O
Encoding: 1114133 -1 83
Width: 720
VWidth: 97
Flags: W
LayerCount: 2
Fore
SplineSet
45 441 m 0
 23 441 0 477 0 486 c 0
 0 504 56 541 83 541 c 0
 102 541 136 556 199 566 c 0
 222 570 290 582 342 582 c 0
 393 582 397 575 403 564 c 0
 406 559 407 557 407 552 c 0
 407 549 408 546 407 541 c 2
 405 526 l 1
 417 526 430 527 442 527 c 1
 446 523 449 518 453 514 c 1
 471 514 l 2
 473 514 473 514 475 514 c 0
 542 514 595 469 596 469 c 0
 598 469 635 432 640 425 c 0
 676 368 690 346 690 285 c 0
 690 226 668 182 667 181 c 0
 666 180 620 84 559 42 c 0
 521 16 502 6 481 1 c 0
 462 -4 438 -9 429 -9 c 0
 429 -9 388 -6 385 -4 c 0
 379 -1 352 11 349 14 c 0
 321 39 275 96 275 204 c 0
 275 428 370 504 370 507 c 0
 370 507 369 508 365 508 c 0
 318 508 211 492 210 491 c 0
 207 489 214 317 202 111 c 0
 197 27 197 23 191 18 c 0
 188 15 186 13 180 13 c 0
 131 13 121 24 121 42 c 0
 121 46 131 173 131 396 c 0
 131 477 131 477 118 470 c 0
 100 460 64 458 52 443 c 0
 51 441 48 441 45 441 c 0
431 429 m 0
 420 428 410 437 410 437 c 0
 406 437 388 403 379 376 c 0
 371 352 353 297 353 220 c 0
 353 192 359 128 376 100 c 0
 384 86 395 68 430 68 c 0
 479 68 532 119 544 131 c 0
 545 132 612 205 612 295 c 0
 612 318 590 389 526 424 c 0
 517 429 493 437 488 437 c 0
 485 437 490 408 486 404 c 0
 482 400 448 388 445 406 c 0
 444 409 442 415 440 420 c 0
 437 428 436 429 431 429 c 0
EndSplineSet
Ligature2: "liga" T O
EndChar

StartChar: plus
Encoding: 43 43 84
Width: 463
VWidth: 611
Flags: W
LayerCount: 2
Fore
SplineSet
195 346 m 0
 195 412 191 438 191 439 c 0
 191 444 192 447 195 454 c 0
 203 473 204 474 219 477 c 0
 229 479 237 479 244 479 c 0
 252 479 257 478 259 476 c 0
 261 474 275 457 276 361 c 2
 276 320 l 1
 303 316 370 313 385 312 c 0
 429 310 428 311 433 306 c 0
 439 299 443 260 443 260 c 0
 443 232 406 232 390 232 c 0
 341 232 277 239 276 239 c 0
 266 239 274 85 264 75 c 0
 263 73 261 72 261 71 c 0
 261 69 247 62 247 60 c 0
 247 59 236 56 236 57 c 0
 236 59 234 53 227 53 c 0
 214 53 205 69 197 71 c 0
 191 73 185 87 185 93 c 0
 185 94 188 89 190 175 c 2
 191 246 l 1
 156 245 l 2
 80 242 83 231 30 231 c 0
 4 231 0 272 0 273 c 0
 0 276 4 290 15 295 c 0
 54 313 85 323 162 324 c 0
 179 324 193 324 194 325 c 0
 195 326 195 334 195 346 c 0
EndSplineSet
EndChar

StartChar: brokenbar
Encoding: 166 166 85
Width: 145
VWidth: 937
Flags: W
LayerCount: 2
Fore
SplineSet
28 631 m 0
 28 631 28 631 30 662 c 0
 30 664 33 669 37 673 c 0
 43 680 43 679 84 683 c 0
 85 683 101 676 101 661 c 0
 101 657 102 652 104 650 c 0
 109 644 110 545 110 544 c 0
 110 501 101 452 101 404 c 0
 101 403 104 310 104 304 c 0
 104 273 97 260 71 259 c 1
 92 253 102 234 102 234 c 0
 106 226 108 191 108 105 c 0
 108 21 110 -51 110 -53 c 0
 110 -91 104 -141 103 -143 c 0
 102 -145 101 -149 100 -152 c 0
 99 -159 86 -165 80 -165 c 0
 77 -165 72 -165 63 -163 c 0
 34 -158 27 -156 27 -127 c 0
 27 -108 30 -81 30 -51 c 0
 30 -8 26 7 26 57 c 0
 26 229 38 240 38 242 c 0
 38 251 49 259 58 259 c 0
 59 259 59 258 60 258 c 0
 74 256 48 265 48 265 c 0
 44 265 30 271 30 273 c 0
 30 274 28 276 26 279 c 0
 18 288 27 307 22 325 c 0
 20 330 20 361 20 391 c 0
 20 490 28 419 28 551 c 0
 28 572 28 598 28 631 c 0
EndSplineSet
EndChar

StartChar: ampersand
Encoding: 38 38 86
Width: 482
VWidth: 749
Flags: W
LayerCount: 2
Fore
SplineSet
82 554 m 0
 86 554 98 572 162 572 c 0
 217 572 297 516 302 451 c 0
 302 445 303 439 303 434 c 0
 303 420 301 410 299 406 c 0
 299 405 291 373 271 346 c 0
 255 324 253 321 243 310 c 2
 233 300 l 1
 245 290 l 2
 261 278 261 278 307 238 c 2
 325 223 l 1
 328 231 l 2
 330 235 332 241 333 244 c 0
 334 247 350 273 360 273 c 0
 364 273 370 272 379 269 c 2
 393 265 l 1
 396 255 l 2
 397 250 398 241 398 234 c 0
 398 205 386 171 386 170 c 0
 386 163 434 124 434 124 c 0
 436 124 450 102 457 94 c 0
 460 90 462 85 462 80 c 0
 462 76 461 72 459 69 c 0
 456 63 418 39 411 39 c 0
 389 39 387 60 360 82 c 2
 347 93 l 1
 270 -13 210 -5 199 -14 c 0
 198 -15 185 -16 173 -16 c 0
 161 -16 150 -15 150 -14 c 0
 150 -13 144 -11 137 -9 c 0
 121 -5 121 -5 96 10 c 0
 56 33 36 60 25 104 c 0
 18 130 15 156 15 178 c 0
 15 230 34 248 34 256 c 0
 34 261 61 291 71 296 c 0
 71 296 95 308 95 314 c 0
 95 318 39 376 39 451 c 0
 39 461 39 492 52 516 c 0
 59 529 79 554 82 554 c 0
171 353 m 0
 175 353 222 395 222 432 c 0
 222 451 219 457 205 470 c 0
 193 482 175 494 152 494 c 0
 149 494 141 492 133 491 c 0
 121 489 113 473 113 452 c 0
 113 408 158 353 171 353 c 0
269 163 m 2
 254 178 180 241 179 242 c 2
 159 258 l 1
 149 252 l 2
 108 230 97 213 97 175 c 0
 97 159 103 109 117 93 c 0
 126 83 159 65 175 65 c 0
 213 65 240 93 252 106 c 0
 264 118 278 132 281 137 c 2
 287 146 l 1
 269 163 l 2
EndSplineSet
EndChar

StartChar: asciicircum
Encoding: 94 94 87
Width: 384
VWidth: 721
Flags: W
LayerCount: 2
Fore
SplineSet
0 371 m 0
 0 385 6 380 6 387 c 0
 6 389 23 414 27 418 c 0
 50 442 75 532 113 582 c 0
 116 586 121 593 122 596 c 0
 128 611 159 611 159 611 c 0
 171 611 181 608 181 604 c 0
 181 603 183 602 184 602 c 0
 187 602 211 577 211 574 c 0
 211 562 330 453 347 423 c 0
 356 408 360 397 360 393 c 0
 360 380 364 380 364 372 c 0
 364 354 312 343 311 343 c 0
 311 343 298 342 285 368 c 0
 272 395 242 418 224 441 c 0
 222 444 219 447 218 447 c 0
 216 447 216 446 174 492 c 2
 160 508 l 1
 156 497 l 2
 152 487 126 434 126 433 c 0
 126 430 108 398 107 388 c 0
 107 384 93 371 93 367 c 0
 93 365 59 326 40 326 c 0
 33 326 29 331 17 343 c 0
 1 359 0 359 0 371 c 0
EndSplineSet
EndChar

StartChar: underscore
Encoding: 95 95 88
Width: 471
VWidth: 168
Flags: W
LayerCount: 2
Fore
SplineSet
47 24 m 0
 48 24 110 22 147 22 c 0
 150 22 400 27 409 31 c 0
 412 32 414 33 417 33 c 0
 431 33 437 22 443 7 c 2
 451 -13 l 1
 445 -26 l 2
 439 -39 433 -44 426 -44 c 0
 425 -44 420 -47 416 -49 c 0
 401 -57 301 -52 295 -55 c 0
 292 -57 216 -59 148 -59 c 0
 121 -59 96 -59 77 -58 c 0
 24 -57 15 -55 5 -41 c 0
 1 -36 0 -33 0 -26 c 0
 0 -21 1 -15 2 -5 c 0
 5 19 7 24 47 24 c 0
EndSplineSet
EndChar

StartChar: emdash
Encoding: 8212 8212 89
Width: 747
VWidth: 510
Flags: W
LayerCount: 2
Fore
SplineSet
655 282 m 1
 660 289 664 293 683 293 c 0
 697 293 715 271 719 271 c 0
 720 271 727 263 727 256 c 0
 727 253 725 248 724 241 c 0
 720 218 719 216 708 209 c 2
 699 203 l 1
 621 202 l 2
 500 201 355 194 352 194 c 0
 351 194 256 196 210 196 c 0
 167 196 65 195 64 195 c 0
 39 195 34 196 30 198 c 0
 22 203 9 204 3 211 c 0
 -4 220 0 273 18 273 c 0
 20 273 23 273 24 274 c 0
 25 275 106 276 203 276 c 0
 341 276 576 282 580 282 c 0
 583 282 585 282 588 282 c 2
 655 282 l 1
EndSplineSet
EndChar

StartChar: endash
Encoding: 8211 8211 90
Width: 474
VWidth: 435
Flags: W
LayerCount: 2
Fore
SplineSet
0 256 m 0
 0 289 84 289 120 289 c 0
 138 289 426 300 429 300 c 0
 444 301 447 284 449 270 c 0
 451 259 453 247 454 244 c 0
 454 244 456 228 430 223 c 0
 406 219 373 215 354 215 c 0
 337 215 343 218 329 218 c 0
 326 218 188 206 72 206 c 0
 9 206 6 219 1 246 c 0
 0 251 0 254 0 256 c 0
EndSplineSet
EndChar

StartChar: hyphen
Encoding: 45 45 91
Width: 442
VWidth: 446
Flags: W
LayerCount: 2
Fore
SplineSet
0 268 m 0
 0 296 36 299 36 303 c 0
 36 312 184 310 230 316 c 0
 245 318 320 320 373 320 c 0
 406 320 407 319 413 313 c 0
 415 311 422 303 422 269 c 0
 422 242 401 240 377 239 c 0
 366 238 262 235 261 235 c 0
 259 235 72 227 65 226 c 0
 56 225 47 224 41 224 c 0
 15 224 11 234 4 252 c 0
 1 259 0 264 0 268 c 0
EndSplineSet
EndChar

StartChar: parenleft
Encoding: 40 40 92
Width: 263
VWidth: 868
Flags: W
LayerCount: 2
Fore
SplineSet
227 -79 m 0
 227 -81 214 -102 194 -102 c 0
 175 -102 126 -48 111 -27 c 0
 97 -7 70 42 60 66 c 0
 44 104 42 108 34 137 c 0
 18 194 15 208 15 242 c 0
 15 243 15 321 19 343 c 0
 28 391 40 421 40 422 c 0
 40 432 96 552 121 574 c 0
 123 576 125 580 125 581 c 0
 125 584 143 608 153 618 c 0
 158 624 191 644 206 644 c 0
 217 644 223 636 233 617 c 2
 243 597 l 1
 240 588 l 2
 234 574 228 576 223 567 c 0
 221 564 217 560 213 558 c 0
 201 552 95 433 95 267 c 0
 95 213 98 204 130 108 c 0
 139 81 169 13 230 -36 c 0
 250 -52 227 -74 227 -79 c 0
EndSplineSet
EndChar

StartChar: parenright
Encoding: 41 41 93
Width: 259
VWidth: 861
Flags: W
LayerCount: 2
Fore
SplineSet
33 -100 m 0
 20 -100 0 -77 0 -68 c 0
 0 -64 4 -54 7 -40 c 0
 13 -17 24 -26 38 -6 c 0
 42 0 52 11 59 20 c 0
 79 44 114 83 129 178 c 0
 131 194 135 215 137 226 c 0
 139 237 140 244 140 254 c 0
 140 255 137 347 130 362 c 0
 129 363 112 437 84 485 c 0
 79 493 76 501 76 502 c 0
 76 507 33 558 17 573 c 0
 -1 589 2 597 6 611 c 0
 12 630 14 639 32 640 c 0
 40 640 77 629 81 625 c 0
 83 623 85 623 86 623 c 0
 88 623 90 615 109 591 c 0
 133 562 165 511 173 488 c 0
 184 461 192 438 198 415 c 0
 220 334 219 335 219 286 c 0
 219 202 210 180 210 170 c 0
 210 147 192 95 192 94 c 0
 192 90 173 48 165 33 c 0
 137 -18 87 -68 80 -82 c 0
 73 -96 34 -100 33 -100 c 0
EndSplineSet
EndChar

StartChar: bracketleft
Encoding: 91 91 94
Width: 301
VWidth: 855
Flags: W
LayerCount: 2
Fore
SplineSet
18 407 m 0
 18 436 20 490 20 530 c 0
 20 548 19 561 18 577 c 2
 17 601 l 1
 23 607 28 613 31 619 c 0
 35 627 59 637 64 636 c 0
 78 633 93 631 102 631 c 0
 107 631 110 632 110 633 c 0
 110 635 132 635 132 630 c 0
 132 627 133 628 144 629 c 0
 150 630 173 630 198 630 c 0
 270 630 281 630 281 608 c 0
 281 592 282 558 270 558 c 0
 268 558 265 558 265 557 c 0
 264 555 172 551 132 551 c 0
 125 551 120 551 117 551 c 2
 103 553 l 1
 101 512 l 2
 100 489 100 461 100 437 c 0
 100 400 101 368 103 366 c 0
 105 364 105 341 105 262 c 0
 105 208 108 96 108 94 c 0
 108 63 105 20 105 19 c 2
 105 -10 l 1
 129 -10 l 2
 142 -10 153 -10 153 -9 c 0
 153 -7 169 -10 170 -7 c 0
 171 -5 180 -5 190 -5 c 0
 225 -5 223 -10 240 -11 c 0
 250 -11 251 -12 258 -19 c 0
 262 -23 268 -29 268 -66 c 0
 268 -85 251 -88 251 -88 c 0
 237 -88 266 -90 215 -90 c 0
 183 -90 142 -89 141 -89 c 0
 121 -89 102 -94 67 -94 c 0
 31 -94 15 -70 15 -51 c 0
 15 -35 20 -25 22 23 c 0
 23 63 28 67 28 127 c 0
 28 161 23 147 23 179 c 0
 23 186 24 215 24 248 c 0
 24 274 24 287 24 308 c 0
 24 321 24 321 24 322 c 0
 24 337 18 361 18 407 c 0
EndSplineSet
EndChar

StartChar: bracketright
Encoding: 93 93 95
Width: 328
VWidth: 837
Flags: W
LayerCount: 2
Fore
SplineSet
63 619 m 0
 78 619 106 621 106 621 c 0
 136 621 106 616 171 616 c 0
 183 616 199 616 221 616 c 0
 247 616 255 616 261 613 c 0
 265 611 269 609 269 608 c 0
 269 607 271 604 274 600 c 0
 281 592 283 584 284 550 c 0
 289 369 288 369 288 307 c 0
 288 303 281 -68 281 -70 c 0
 279 -86 274 -91 263 -91 c 0
 253 -91 255 -98 243 -98 c 0
 229 -98 236 -93 187 -93 c 0
 140 -93 98 -95 94 -97 c 0
 92 -98 83 -98 72 -98 c 0
 27 -98 34 -87 23 -87 c 0
 22 -87 21 -87 21 -86 c 0
 21 -82 13 -79 13 -70 c 0
 13 -61 21 -24 27 -24 c 0
 31 -24 37 -16 53 -16 c 0
 58 -16 65 -17 73 -17 c 0
 108 -17 181 -12 182 -12 c 0
 183 -12 184 -12 185 -12 c 2
 201 -12 l 1
 203 -1 l 2
 204 5 204 51 204 101 c 0
 204 153 208 310 208 312 c 0
 208 365 205 516 203 530 c 2
 201 538 l 1
 160 539 l 2
 91 540 106 545 94 541 c 0
 91 540 85 539 77 539 c 0
 10 539 8 551 4 566 c 0
 1 576 0 584 0 590 c 0
 0 598 5 614 20 614 c 0
 30 614 17 619 43 619 c 0
 43 619 62 619 63 619 c 0
EndSplineSet
EndChar

StartChar: braceleft
Encoding: 123 123 96
Width: 251
VWidth: 874
Flags: W
LayerCount: 2
Fore
SplineSet
129 642 m 0
 145 642 148 648 161 648 c 0
 172 648 193 645 202 643 c 0
 210 640 217 631 217 623 c 0
 217 609 213 585 208 580 c 0
 196 568 154 573 135 561 c 0
 116 549 109 542 104 533 c 2
 99 524 l 1
 103 506 l 2
 106 489 117 464 121 462 c 0
 126 460 148 400 153 400 c 0
 154 400 161 384 161 345 c 0
 161 321 158 330 156 319 c 0
 154 308 145 303 145 296 c 0
 145 288 160 279 160 275 c 0
 160 269 175 247 175 211 c 0
 175 153 119 67 119 60 c 0
 119 52 103 45 103 19 c 0
 103 6 107 -3 121 -15 c 0
 129 -22 129 -22 139 -21 c 0
 145 -20 153 -20 157 -20 c 0
 169 -20 173 -15 186 -15 c 0
 193 -15 199 -17 206 -20 c 2
 218 -26 l 1
 225 -44 l 2
 229 -56 231 -64 231 -70 c 0
 231 -86 217 -91 209 -91 c 0
 201 -91 189 -104 165 -104 c 0
 117 -104 109 -91 106 -91 c 0
 99 -91 40 -49 40 -41 c 0
 40 -40 39 -38 37 -36 c 0
 32 -30 23 10 23 28 c 0
 23 88 76 132 91 203 c 2
 94 219 l 1
 89 229 l 2
 84 238 81 241 74 241 c 0
 68 241 64 240 58 240 c 0
 53 240 47 241 35 245 c 0
 13 251 11 253 10 267 c 0
 9 276 5 282 5 293 c 0
 5 304 12 316 18 317 c 0
 24 318 26 323 30 323 c 0
 34 323 46 331 53 331 c 0
 56 331 63 334 69 339 c 0
 79 346 84 350 71 374 c 0
 63 389 61 399 43 432 c 0
 11 489 17 537 18 538 c 0
 19 539 20 543 20 547 c 0
 20 551 21 553 22 553 c 0
 23 553 24 555 24 556 c 0
 24 558 31 572 38 585 c 0
 42 592 63 612 68 614 c 0
 72 615 107 642 129 642 c 0
EndSplineSet
EndChar

StartChar: braceright
Encoding: 125 125 97
Width: 264
VWidth: 893
Flags: W
LayerCount: 2
Fore
SplineSet
35 631 m 0
 35 650 53 655 53 655 c 0
 59 655 68 664 84 662 c 0
 130 658 157 653 174 633 c 0
 178 629 181 626 183 626 c 0
 185 626 186 625 185 624 c 0
 181 617 216 610 216 535 c 0
 216 469 182 419 181 419 c 0
 180 419 178 418 178 417 c 0
 178 414 151 374 151 362 c 0
 151 345 214 331 216 328 c 0
 218 324 234 323 237 312 c 0
 237 311 239 309 240 308 c 0
 242 306 244 300 244 294 c 0
 244 284 241 286 238 273 c 0
 237 267 236 265 228 261 c 0
 223 259 217 256 214 254 c 0
 204 247 171 249 171 231 c 0
 171 204 192 162 192 159 c 0
 192 158 207 127 207 68 c 0
 207 -6 184 -43 184 -44 c 0
 184 -47 173 -61 171 -61 c 0
 170 -61 168 -63 168 -64 c 0
 168 -74 145 -94 127 -100 c 0
 91 -111 91 -111 90 -110 c 0
 82 -104 0 -118 0 -75 c 0
 0 -60 13 -28 17 -26 c 0
 19 -25 24 -24 30 -24 c 0
 51 -24 60 -30 73 -30 c 0
 103 -30 111 -7 116 9 c 0
 121 23 126 61 126 80 c 0
 126 122 98 169 98 177 c 0
 98 186 88 208 88 232 c 0
 88 265 101 274 101 278 c 0
 101 280 102 283 104 285 c 0
 112 296 86 296 75 329 c 0
 71 340 70 347 70 365 c 0
 70 374 70 401 86 421 c 0
 87 422 136 488 136 535 c 0
 136 554 133 567 103 579 c 0
 95 582 92 582 80 580 c 0
 75 579 72 579 69 579 c 0
 58 579 35 597 35 631 c 0
EndSplineSet
EndChar

StartChar: slash
Encoding: 47 47 98
Width: 363
VWidth: 773
Flags: W
LayerCount: 2
Fore
SplineSet
0 -35 m 0
 0 -5 53 88 52 88 c 0
 50 88 70 120 69 122 c 0
 69 124 84 154 83 155 c 0
 82 156 122 255 122 256 c 0
 122 259 148 317 149 326 c 0
 150 330 163 353 163 356 c 0
 163 360 211 460 218 469 c 0
 225 478 231 489 231 491 c 0
 231 492 l 0
 230 492 263 539 267 557 c 0
 268 564 273 579 289 579 c 0
 301 579 322 569 328 568 c 0
 330 568 343 559 343 546 c 0
 343 524 314 470 307 464 c 0
 286 427 l 0
 288 427 270 400 268 392 c 0
 267 385 252 361 253 360 c 0
 254 359 236 327 236 325 c 0
 236 324 209 264 209 258 c 0
 209 253 183 199 183 192 c 0
 183 184 142 92 142 91 c 0
 142 88 124 56 125 56 c 0
 126 56 92 -10 92 -10 c 0
 93 -10 80 -32 78 -46 c 0
 77 -51 58 -67 46 -67 c 0
 39 -67 18 -54 13 -54 c 0
 13 -54 0 -51 0 -35 c 0
EndSplineSet
EndChar

StartChar: backslash
Encoding: 92 92 99
Width: 363
VWidth: 773
Flags: W
LayerCount: 2
Fore
SplineSet
160 192 m 0
 160 199 135 253 135 258 c 0
 135 272 66 411 65 412 c 0
 60 420 56 427 57 427 c 0
 60 427 0 513 0 546 c 0
 0 561 8 564 31 573 c 0
 40 576 50 579 54 579 c 0
 66 579 74 572 77 557 c 0
 81 539 112 492 112 492 c 0
 112 491 l 0
 112 485 133 460 132 458 c 0
 131 456 140 445 146 431 c 0
 151 417 180 359 180 356 c 0
 180 353 194 330 195 326 c 0
 196 317 221 259 221 256 c 0
 221 252 233 232 236 220 c 0
 247 180 275 123 275 122 c 0
 274 120 293 88 291 88 c 0
 289 88 327 21 326 20 c 0
 326 17 343 -15 343 -35 c 0
 343 -51 331 -54 331 -54 c 0
 326 -54 304 -67 297 -67 c 0
 285 -67 267 -51 266 -46 c 0
 264 -32 251 -10 252 -10 c 0
 254 -10 235 18 234 23 c 0
 233 28 217 56 218 56 c 0
 219 56 202 88 202 91 c 0
 202 92 160 184 160 192 c 0
EndSplineSet
EndChar

StartChar: less
Encoding: 60 60 100
Width: 359
VWidth: 729
Flags: W
LayerCount: 2
Fore
SplineSet
295 556 m 0
 306 556 339 518 339 508 c 0
 339 499 323 484 249 409 c 0
 169 329 139 300 133 300 c 0
 131 300 101 277 101 275 c 0
 101 271 117 261 155 220 c 0
 206 165 223 155 228 143 c 0
 230 138 280 81 293 69 c 0
 320 42 314 43 324 33 c 0
 328 29 330 24 330 20 c 0
 330 14 327 8 319 -3 c 0
 308 -19 303 -26 286 -26 c 0
 258 -26 239 13 233 16 c 0
 221 22 158 106 145 115 c 0
 119 133 113 155 44 217 c 0
 30 230 -4 262 0 277 c 0
 0 278 1 282 2 286 c 0
 4 302 9 308 23 314 c 0
 28 316 31 323 65 348 c 0
 122 390 189 463 193 463 c 0
 194 463 197 466 200 469 c 0
 219 493 268 544 278 549 c 0
 292 556 293 556 295 556 c 0
EndSplineSet
EndChar

StartChar: greater
Encoding: 62 62 101
Width: 359
VWidth: 729
Flags: W
LayerCount: 2
Fore
SplineSet
0 508 m 0
 0 518 33 556 44 556 c 0
 64 556 126 486 139 469 c 0
 142 466 145 463 146 463 c 0
 150 463 217 390 274 348 c 0
 291 336 315 314 316 314 c 0
 330 308 335 302 337 286 c 0
 339 269 341 258 295 217 c 0
 226 155 220 133 194 115 c 0
 190 112 183 103 177 96 c 0
 172 90 115 20 106 16 c 0
 100 13 81 -26 53 -26 c 0
 36 -26 31 -19 20 -3 c 0
 12 8 9 14 9 20 c 0
 9 29 19 34 24 45 c 0
 28 53 64 85 69 93 c 0
 73 100 108 135 111 143 c 0
 116 156 132 164 184 220 c 0
 199 236 218 255 225 261 c 0
 232 267 238 274 238 275 c 0
 238 277 208 300 206 300 c 0
 200 300 169 329 90 409 c 0
 15 484 0 499 0 508 c 0
EndSplineSet
EndChar

StartChar: divide
Encoding: 247 247 102
Width: 472
VWidth: 641
Flags: W
LayerCount: 2
Fore
SplineSet
170 436 m 0
 170 474 198 486 198 487 c 0
 198 489 204 489 211 496 c 0
 214 499 216 500 216 500 c 1
 216 498 225 504 234 505 c 0
 242 505 255 499 256 495 c 0
 260 485 280 484 280 466 c 0
 280 456 263 422 260 422 c 0
 260 422 259 422 259 423 c 0
 259 423 l 0
 258 423 251 417 248 411 c 0
 245 406 241 399 210 399 c 0
 197 399 191 402 186 409 c 0
 184 411 181 417 177 421 c 0
 172 427 170 429 170 436 c 0
368 329 m 0
 452 329 452 323 452 294 c 0
 452 281 451 273 449 268 c 0
 446 261 436 250 432 250 c 0
 370 247 121 250 57 243 c 0
 51 242 46 242 42 242 c 0
 36 242 39 243 25 245 c 0
 7 247 2 257 1 286 c 2
 0 300 l 1
 8 307 l 2
 12 311 16 314 18 314 c 0
 19 314 21 314 21 315 c 0
 21 317 39 321 62 323 c 0
 65 323 351 329 368 329 c 0
166 104 m 0
 166 108 169 114 169 120 c 0
 169 127 182 153 187 156 c 0
 191 158 213 165 226 165 c 0
 249 165 256 150 267 130 c 0
 273 119 276 112 276 106 c 0
 276 95 263 89 263 85 c 0
 263 82 249 61 247 61 c 0
 245 61 233 49 215 49 c 0
 207 49 192 59 188 59 c 0
 187 59 186 60 186 61 c 0
 186 63 176 65 173 77 c 0
 172 83 166 97 166 104 c 0
EndSplineSet
EndChar

StartChar: plusminus
Encoding: 177 177 103
Width: 476
VWidth: 745
Flags: W
LayerCount: 2
Fore
SplineSet
180 460 m 0
 180 512 176 548 176 549 c 0
 176 565 181 567 196 576 c 0
 217 589 218 589 226 589 c 0
 231 589 237 589 238 588 c 0
 238 588 244 578 251 566 c 2
 265 544 l 1
 264 513 l 2
 263 487 262 451 262 450 c 0
 262 448 262 447 262 446 c 0
 263 437 258 438 310 433 c 0
 327 431 348 430 367 430 c 0
 408 430 420 434 424 434 c 0
 432 434 441 421 441 418 c 0
 444 402 447 382 447 375 c 0
 447 353 402 350 359 350 c 0
 340 350 321 350 307 352 c 0
 293 354 278 356 271 357 c 2
 259 358 l 1
 257 325 l 2
 257 315 257 307 257 300 c 0
 257 252 267 255 265 244 c 0
 264 238 260 231 258 231 c 0
 254 231 249 213 234 213 c 0
 228 213 223 207 217 208 c 0
 194 213 193 219 193 219 c 0
 193 220 191 224 188 228 c 0
 179 242 177 253 177 302 c 0
 177 304 177 307 177 310 c 2
 177 360 l 1
 131 358 l 2
 111 357 99 356 87 356 c 0
 0 356 0 370 0 395 c 0
 0 398 1 405 5 405 c 0
 8 405 8 411 12 411 c 0
 18 411 19 420 51 424 c 0
 52 424 128 437 146 438 c 0
 163 439 178 440 179 441 c 0
 180 441 180 449 180 460 c 0
264 99 m 0
 148 99 62 71 48 71 c 0
 46 71 39 72 30 77 c 0
 24 81 23 83 18 98 c 0
 12 120 11 120 16 130 c 0
 20 139 25 149 108 164 c 0
 141 170 198 179 251 179 c 0
 291 179 370 178 403 176 c 0
 451 173 451 173 451 149 c 0
 451 95 439 95 420 95 c 0
 408 95 294 99 266 99 c 0
 266 99 265 99 264 99 c 0
EndSplineSet
EndChar

StartChar: radical
Encoding: 8730 8730 104
Width: 533
VWidth: 857
Flags: W
LayerCount: 2
Fore
SplineSet
36 224 m 0
 51 224 96 181 96 174 c 0
 96 168 132 91 132 90 c 0
 138 75 141 70 142 73 c 0
 142 75 167 227 171 244 c 0
 175 264 203 511 203 514 c 0
 210 585 210 587 216 595 c 0
 234 620 255 636 256 636 c 0
 261 636 262 640 266 638 c 0
 299 625 318 622 384 622 c 0
 389 622 444 623 445 623 c 0
 472 623 477 622 483 619 c 0
 488 617 492 616 493 616 c 0
 497 616 504 605 504 599 c 0
 504 587 517 582 511 567 c 0
 508 561 482 534 462 540 c 0
 453 543 435 544 414 544 c 0
 407 544 347 541 346 541 c 0
 327 541 312 543 296 547 c 2
 286 550 l 1
 284 518 l 2
 283 501 282 478 281 467 c 0
 278 423 248 214 248 211 c 0
 248 208 210 -38 196 -68 c 0
 192 -77 185 -83 179 -83 c 0
 163 -83 173 -88 158 -88 c 0
 138 -88 131 -76 124 -64 c 0
 111 -42 97 -20 92 -12 c 0
 60 34 33 131 19 143 c 0
 17 144 13 149 11 153 c 0
 0 175 0 175 0 180 c 0
 0 191 22 224 36 224 c 0
EndSplineSet
EndChar

StartChar: multiply
Encoding: 215 215 105
Width: 471
VWidth: 638
Flags: W
LayerCount: 2
Fore
SplineSet
107 449 m 0
 110 449 220 340 226 340 c 0
 229 340 303 437 312 446 c 0
 326 461 318 467 328 474 c 0
 341 483 338 495 355 495 c 0
 365 495 380 492 380 488 c 0
 380 482 409 476 409 450 c 0
 409 437 373 395 373 395 c 0
 366 388 288 289 288 283 c 0
 288 269 352 258 430 117 c 0
 437 104 446 92 448 89 c 0
 450 86 451 82 451 78 c 0
 451 73 441 45 429 45 c 0
 423 45 413 34 409 35 c 0
 408 35 404 35 400 36 c 0
 392 37 388 44 382 46 c 0
 376 48 341 115 331 128 c 0
 312 154 268 198 252 208 c 0
 249 210 244 214 241 217 c 0
 237 220 233 224 223 210 c 0
 217 200 158 137 150 126 c 0
 148 124 148 124 88 51 c 0
 69 27 59 18 48 18 c 0
 37 18 0 42 0 57 c 0
 0 72 26 104 33 111 c 0
 46 123 74 162 100 190 c 0
 123 214 152 252 158 256 c 0
 159 257 164 261 168 266 c 2
 175 274 l 1
 166 284 l 2
 161 290 155 294 154 294 c 0
 151 294 54 389 54 396 c 0
 54 401 40 413 40 427 c 0
 40 442 70 465 75 465 c 0
 90 465 100 449 107 449 c 0
EndSplineSet
EndChar

StartChar: Sigma
Encoding: 931 931 106
Width: 515
Flags: HW
AnchorPoint: "above" 257.52 609 basechar 0
LayerCount: 2
Fore
SplineSet
382.288085938 587.7890625 m 0
 389.297851562 587.7890625 423.25390625 587.250976562 423.666992188 587.250976562 c 0
 426.217773438 587.250976562 430.264648438 587.250976562 431.880859375 587.7890625 c 2
 433.0859375 587.7890625 l 2
 436.118164062 587.7890625 447.287109375 589 454.8828125 589 c 0
 463.782226562 589 472.478515625 589 477.071289062 584.408203125 c 0
 484.815429688 576.665039062 487.610351562 566.779296875 487.610351562 553.173828125 c 0
 487.610351562 536.7734375 484.086914062 519.465820312 484.086914062 490.770507812 c 0
 484.086914062 483.973632812 484.389648438 469.640625 484.389648438 469.426757812 c 0
 484.389648438 465.2734375 484.044921875 461.32421875 481.7421875 457.768554688 c 0
 476.642578125 449.380859375 468.278320312 445.82421875 457.3046875 445.82421875 c 0
 450.655273438 445.82421875 432.919921875 446.556640625 425.426757812 454.049804688 c 0
 418.559570312 460.91796875 418.4140625 467.095703125 418.4140625 486.84375 c 0
 418.4140625 487.721679688 418.4140625 488.626953125 418.4140625 489.559570312 c 0
 418.4140625 504.845703125 417.491210938 512.314453125 416.204101562 514.447265625 c 0
 415.2109375 516.094726562 411.444335938 517.7734375 392.764648438 518.491210938 c 0
 375.923828125 519.293945312 359.48828125 519.694335938 344.0546875 519.694335938 c 0
 313.27734375 519.694335938 286.405273438 518.067382812 268.58203125 514.981445312 c 0
 219.216796875 504.6171875 162.521484375 505.265625 140.990234375 502.51171875 c 0
 140.4921875 500.932617188 139.899414062 497.192382812 139.844726562 496.870117188 c 0
 142.30859375 493.766601562 152.397460938 481.69140625 152.528320312 481.541992188 c 0
 154.990234375 478.733398438 157.158203125 476.701171875 158.764648438 473.48828125 c 0
 159.836914062 471.34375 161.49609375 469.545898438 161.49609375 469.545898438 c 2
 161.623046875 469.482421875 169.149414062 465.5859375 171.275390625 459.202148438 c 0
 172.072265625 456.80859375 202.953125 425.66015625 208.017578125 422.056640625 c 0
 211.797851562 420.037109375 214.87890625 416.899414062 216.826171875 413.0703125 c 0
 217.139648438 412.72265625 219.411132812 410.919921875 220.833984375 410.208007812 c 0
 227.829101562 406.7109375 243.9921875 389.013671875 247.166015625 382.665039062 c 0
 249.497070312 378.00390625 251.83984375 383.0078125 259.276367188 368.1328125 c 0
 259.765625 367.154296875 262.984375 362.73828125 264.75390625 360.793945312 c 0
 269.752929688 357.185546875 273.657226562 351.504882812 276.359375 344.8671875 c 0
 278.455078125 340.715820312 283.455078125 331.83984375 284.58203125 329.627929688 c 0
 288.423828125 323.057617188 289.572265625 314.40234375 289.572265625 306.833007812 c 0
 289.572265625 297.296875 288.509765625 294.684570312 275.6796875 277.037109375 c 0
 263.510742188 258.94140625 220.184570312 220.3671875 214.469726562 208.9375 c 0
 212.407226562 204.814453125 209.390625 202.818359375 207.09375 200.796875 c 0
 203.546875 197.67578125 203.546875 197.67578125 202.543945312 197.061523438 c 0
 198.057617188 194.147460938 199.751953125 188.741210938 189.827148438 180.270507812 c 0
 184.807617188 175.986328125 185.997070312 170.2421875 176.748046875 160.990234375 c 0
 166.849609375 151.094726562 166.96484375 144.2578125 159.2109375 140.291015625 c 0
 155.168945312 136.59375 152.1015625 127.12890625 144.673828125 123.334960938 c 0
 144.416015625 123.102539062 129.961914062 101.48046875 127.8359375 92.978515625 c 0
 126.100585938 86.037109375 121.78515625 80.5966796875 118.62109375 77.4345703125 c 0
 116.637695312 75.4501953125 116.025390625 74.7158203125 114.0390625 68.4501953125 c 1
 131.874023438 66.47265625 157.547851562 67.552734375 178.504882812 64.5859375 c 0
 183.754882812 64.0048828125 191.098632812 63.736328125 191.341796875 63.7353515625 c 0
 195.047851562 63.720703125 198.537109375 63.9921875 203.200195312 64.5751953125 c 0
 259.37109375 72.236328125 341.498046875 66.7451171875 367.80078125 73.3798828125 c 0
 373.61328125 74.8466796875 378.217773438 76.017578125 384.459960938 76.017578125 c 0
 390.619140625 76.017578125 404.90625 75.546875 419.205078125 71.5947265625 c 1
 422.045898438 78.8046875 422.045898438 83.7998046875 422.045898438 97.201171875 c 0
 422.045898438 116.825195312 423.15625 128.561523438 436.018554688 134.1953125 c 0
 440.955078125 136.650390625 445.809570312 138.5625 451.490234375 138.5625 c 0
 454.466796875 138.5625 457.424804688 138.025390625 460.420898438 137.06640625 c 0
 471.377929688 134.74609375 475.862304688 129.702148438 492.463867188 111.024414062 c 1
 495.040039062 38.904296875 495.040039062 38.904296875 495.040039062 34.9345703125 c 0
 495.040039062 17.94140625 494.098632812 12.4658203125 481.41796875 1.896484375 c 0
 473.893554688 -4.3740234375 467.5859375 -7.40625 456.966796875 -7.40625 c 0
 456.697265625 -7.40625 438.533203125 -7.2255859375 430.493164062 -2.400390625 c 0
 417.49609375 5.3984375 381.056640625 5.5283203125 380.551757812 5.5283203125 c 0
 355.620117188 5.5283203125 376.0625 3.814453125 302.625 3.814453125 c 0
 301.694335938 3.814453125 300.77734375 3.814453125 299.875976562 3.814453125 c 0
 217.391601562 3.814453125 233.096679688 -5.4345703125 201.1484375 -5.4345703125 c 0
 178.8515625 -5.4345703125 141.801757812 1.392578125 121.862304688 1.392578125 c 2
 121.65234375 1.392578125 l 2
 105.83203125 1.83203125 56.9951171875 3.1884765625 43.068359375 12.0673828125 c 0
 40.1982421875 13.572265625 35.3837890625 17.115234375 33.787109375 17.9130859375 c 0
 23.794921875 22.91015625 20 31.794921875 20 43.9169921875 c 0
 20 62.8623046875 22.5859375 70.328125 31.80859375 78.0126953125 c 0
 36.3232421875 80.271484375 36.0146484375 90.2685546875 46.1708984375 96.0615234375 c 0
 47.2412109375 98.1982421875 47.6943359375 99.8447265625 48.6298828125 101.715820312 c 0
 49.2529296875 102.962890625 63.6875 126.536132812 63.9736328125 127.39453125 c 0
 66.98046875 136.413085938 75.93359375 147.048828125 78.4384765625 153.845703125 c 0
 80.337890625 160.963867188 85.208984375 165.475585938 87.5625 167.829101562 c 0
 93.361328125 173.627929688 96.216796875 183.484375 104.025390625 187.385742188 c 0
 106.169921875 188.458007812 107.96875 190.119140625 107.96875 190.119140625 c 1
 112.201171875 198.58203125 125.989257812 216.470703125 126.1328125 216.759765625 c 0
 132.731445312 229.956054688 135.025390625 223.088867188 138.155273438 232.474609375 c 1
 144.147460938 241.462890625 144.600585938 242.143554688 148.700195312 244.236328125 c 0
 151.846679688 247.06640625 152.677734375 253.54296875 163.331054688 262.672851562 c 0
 164.923828125 264.0390625 166.01953125 265.178710938 166.157226562 265.323242188 c 0
 171.481445312 275.711914062 200.286132812 296.85546875 206.091796875 311.372070312 c 0
 206.857421875 312.51953125 207.473632812 313.443359375 208.245117188 315.202148438 c 1
 201.3828125 322.0625 200.543945312 322.900390625 198.791992188 326.404296875 c 0
 197.21484375 329.559570312 195.564453125 331.516601562 174.752929688 352.326171875 c 0
 168.803710938 358.276367188 164.323242188 362.870117188 160.859375 366.422851562 c 0
 152.850585938 374.634765625 150.403320312 376.790039062 148.83203125 377.575195312 c 0
 136.966796875 383.5078125 144.981445312 382.096679688 134.791992188 392.2890625 c 0
 133.88671875 393.194335938 132.423828125 394.55859375 130.765625 396.099609375 c 0
 126.735351562 399.844726562 121.655273438 404.430664062 118.356445312 408.830078125 c 0
 105.8125 425.5546875 85.3798828125 443.284179688 76.0673828125 460.978515625 c 0
 74.625 463.720703125 73.0693359375 466.12109375 73.0322265625 466.158203125 c 0
 64.9599609375 474.227539062 61.7744140625 493.890625 54.43359375 511.033203125 c 0
 51.5166015625 518.328125 51.4853515625 524.505859375 51.4853515625 530.357421875 c 0
 51.4853515625 530.482421875 51.4853515625 530.608398438 51.4853515625 530.733398438 c 0
 51.4853515625 546.961914062 55.017578125 551.16796875 71.662109375 558.10546875 c 0
 90.7666015625 566.913085938 92.6220703125 567.76953125 144.420898438 570.419921875 c 0
 204.182617188 573.478515625 204.182617188 573.478515625 226.62890625 579.090820312 c 0
 249.135742188 584.71875 295.952148438 588.022460938 355.247070312 588.022460938 c 0
 364.01171875 588.022460938 373.040039062 587.946289062 382.288085938 587.7890625 c 0
EndSplineSet
EndChar

StartChar: asterisk
Encoding: 42 42 107
Width: 475
VWidth: 680
Flags: W
LayerCount: 2
Fore
SplineSet
65 418 m 0
 65 424 82 442 93 442 c 0
 98 442 103 440 111 434 c 0
 127 422 138 416 157 400 c 0
 175 385 187 377 192 374 c 0
 196 372 196 372 195 380 c 0
 195 384 193 435 193 457 c 0
 193 475 195 508 206 518 c 0
 210 521 214 524 215 524 c 0
 221 524 251 517 255 515 c 0
 261 512 268 487 268 475 c 0
 268 450 269 482 276 385 c 2
 278 370 l 1
 339 444 356 451 370 451 c 0
 387 451 409 412 409 401 c 0
 409 393 402 386 380 363 c 0
 352 335 331 309 331 304 c 0
 331 302 396 299 401 299 c 0
 418 299 420 303 427 303 c 0
 443 303 455 263 455 257 c 0
 455 246 448 230 440 230 c 0
 438 230 436 229 436 228 c 0
 436 224 417 221 393 221 c 0
 383 221 372 221 362 222 c 2
 343 224 l 1
 374 187 382 177 394 168 c 0
 403 161 408 156 408 150 c 0
 408 141 386 107 384 107 c 0
 379 107 376 101 359 101 c 0
 344 101 320 128 312 138 c 0
 312 138 291 161 280 175 c 1
 278 162 l 2
 278 161 269 17 267 13 c 0
 264 8 258 0 248 0 c 0
 191 0 191 12 191 54 c 0
 191 142 204 172 192 155 c 0
 188 150 132 97 132 99 c 0
 132 104 118 79 100 79 c 0
 94 79 88 81 80 86 c 0
 59 100 57 103 57 115 c 0
 57 134 67 136 67 142 c 0
 67 143 67 145 68 145 c 0
 69 145 87 163 107 184 c 2
 144 222 l 1
 111 222 l 2
 108 222 104 222 100 222 c 0
 11 222 0 222 0 259 c 0
 0 284 2 284 57 294 c 0
 111 304 142 302 155 304 c 0
 160 305 65 377 65 418 c 0
EndSplineSet
EndChar

StartChar: exclam
Encoding: 33 33 108
Width: 162
VWidth: 780
Flags: W
LayerCount: 2
Fore
SplineSet
36 248 m 0
 36 285 38 361 38 428 c 0
 38 464 37 484 36 487 c 0
 36 488 25 558 25 559 c 0
 25 573 33 576 59 584 c 0
 70 587 75 589 79 589 c 0
 94 589 101 568 105 556 c 0
 117 519 118 516 118 463 c 0
 118 461 118 337 118 282 c 0
 118 244 118 225 118 224 c 0
 118 187 101 202 101 191 c 0
 101 186 90 181 84 181 c 0
 74 181 47 193 42 200 c 0
 38 206 36 214 36 248 c 0
5 14 m 0
 5 68 59 97 71 97 c 0
 89 97 82 89 88 89 c 0
 92 89 108 64 110 64 c 0
 111 64 132 53 132 18 c 0
 132 11 129 0 124 -5 c 0
 117 -12 94 -40 88 -40 c 0
 78 -40 87 -49 58 -49 c 0
 29 -49 35 -38 26 -38 c 0
 18 -38 5 -11 5 14 c 0
EndSplineSet
EndChar

StartChar: question
Encoding: 63 63 109
Width: 388
VWidth: 804
Flags: W
LayerCount: 2
Fore
SplineSet
62 419 m 0
 62 419 56 407 46 407 c 0
 15 407 8 417 0 427 c 1
 4 454 l 2
 6 472 8 482 11 487 c 0
 26 514 50 540 50 541 c 0
 50 545 101 579 102 581 c 0
 104 585 132 591 135 596 c 0
 138 600 196 611 232 611 c 0
 233 611 232 611 233 611 c 0
 246 611 281 602 287 597 c 0
 289 595 291 593 292 593 c 0
 303 592 319 576 329 572 c 0
 334 570 348 553 348 549 c 0
 348 548 368 527 368 484 c 0
 368 428 332 376 331 375 c 0
 329 373 328 371 327 369 c 0
 325 363 295 330 278 316 c 0
 237 281 174 247 173 246 c 0
 167 241 168 242 170 232 c 0
 172 225 189 182 189 169 c 0
 189 153 176 148 159 143 c 0
 146 139 137 137 133 137 c 0
 127 137 114 149 112 157 c 0
 110 166 106 168 103 180 c 0
 102 185 99 192 98 195 c 0
 98 196 87 219 87 253 c 0
 87 264 89 266 99 286 c 0
 110 307 195 346 234 383 c 0
 249 397 274 433 280 449 c 0
 283 457 287 478 287 485 c 0
 287 487 286 488 286 488 c 0
 285 488 283 492 282 498 c 0
 274 527 223 530 217 530 c 0
 206 530 193 528 178 524 c 0
 148 517 132 508 107 483 c 0
 68 445 87 450 64 423 c 0
 63 422 62 420 62 419 c 0
106 29 m 0
 106 47 142 86 151 90 c 0
 160 94 174 99 214 53 c 0
 223 42 224 41 224 31 c 2
 224 21 l 1
 205 -1 l 2
 189 -19 180 -29 157 -29 c 0
 156 -29 156 -29 155 -29 c 0
 154 -29 110 5 108 17 c 0
 108 17 106 28 106 29 c 0
EndSplineSet
EndChar

StartChar: numbersign
Encoding: 35 35 110
Width: 502
VWidth: 745
Flags: W
LayerCount: 2
Fore
SplineSet
54 355 m 0
 63 355 106 369 117 369 c 0
 119 369 122 370 122 371 c 0
 122 374 146 373 149 379 c 0
 154 388 154 432 157 448 c 0
 157 449 173 542 173 543 c 0
 173 549 181 560 185 561 c 0
 186 561 192 562 199 562 c 0
 218 562 226 562 230 557 c 0
 239 545 235 477 239 475 c 0
 239 475 239 473 239 471 c 0
 239 460 232 389 232 388 c 0
 232 384 233 383 235 383 c 0
 240 383 237 386 270 388 c 2
 294 390 l 1
 300 422 l 2
 306 450 314 479 325 512 c 0
 330 529 334 537 342 542 c 2
 350 547 l 1
 367 542 l 2
 385 537 392 534 392 513 c 0
 392 512 389 472 376 397 c 1
 375 389 l 1
 386 389 l 2
 399 389 427 392 438 392 c 0
 464 392 452 379 458 379 c 0
 460 379 465 370 465 365 c 0
 465 359 472 350 472 343 c 0
 472 299 361 313 361 309 c 0
 360 308 349 229 349 223 c 0
 349 221 372 226 425 226 c 0
 452 226 465 226 465 182 c 0
 465 150 457 149 421 147 c 0
 404 146 386 145 380 145 c 0
 366 145 358 141 347 141 c 0
 342 141 338 140 337 139 c 0
 334 134 331 76 331 48 c 0
 331 24 337 28 332 16 c 0
 330 10 301 -7 294 -6 c 0
 271 -3 266 -2 253 18 c 0
 250 22 250 25 250 38 c 0
 250 39 251 117 253 125 c 0
 254 129 254 129 252 128 c 0
 244 125 200 122 200 117 c 0
 200 111 193 36 193 16 c 0
 193 9 192 -40 172 -46 c 0
 170 -47 167 -49 166 -50 c 0
 164 -53 146 -53 144 -53 c 0
 124 -53 118 -40 118 -40 c 0
 118 -34 103 -31 103 -14 c 0
 104 7 109 -19 114 55 c 0
 115 79 116 91 118 105 c 1
 105 104 l 2
 86 103 70 100 51 100 c 0
 38 100 10 100 10 142 c 0
 10 165 59 170 64 175 c 0
 65 176 77 179 90 181 c 0
 126 186 124 186 126 195 c 0
 127 198 142 296 135 296 c 0
 124 296 52 282 46 282 c 0
 35 282 32 277 24 277 c 0
 14 277 0 297 0 306 c 0
 0 310 1 322 2 324 c 0
 3 325 45 355 54 355 c 0
264 211 m 0
 264 213 276 284 278 300 c 0
 279 307 279 308 275 308 c 0
 273 308 260 306 246 305 c 2
 221 304 l 1
 218 281 l 2
 218 279 207 204 207 203 c 0
 206 200 208 201 224 204 c 0
 247 209 264 209 264 211 c 0
EndSplineSet
EndChar

StartChar: at
Encoding: 64 64 111
Width: 522
VWidth: 721
Flags: W
LayerCount: 2
Fore
SplineSet
385 128 m 0
 400 128 402 113 406 113 c 0
 407 113 408 112 408 111 c 0
 408 109 425 91 413 82 c 0
 412 81 410 78 409 75 c 0
 404 54 291 16 206 16 c 0
 185 16 161 18 156 20 c 0
 155 20 124 29 102 44 c 0
 79 60 61 88 58 88 c 0
 55 88 39 115 39 120 c 0
 39 124 30 136 21 172 c 0
 16 192 15 200 15 241 c 0
 15 290 32 365 122 480 c 0
 135 497 190 558 300 558 c 0
 330 558 386 527 387 527 c 0
 401 522 456 463 469 421 c 0
 470 416 472 413 473 413 c 0
 475 413 481 388 483 383 c 0
 489 371 492 347 492 322 c 0
 492 253 467 223 466 222 c 0
 463 219 456 210 449 202 c 0
 438 190 431 182 428 182 c 0
 414 182 412 172 388 172 c 0
 385 172 355 172 349 180 c 0
 349 180 320 200 318 217 c 0
 317 221 317 225 316 225 c 0
 309 225 272 177 211 177 c 0
 180 177 159 205 159 206 c 0
 156 221 147 218 147 247 c 0
 147 273 147 307 177 351 c 0
 189 368 209 391 212 391 c 0
 215 391 230 405 234 405 c 0
 235 405 236 406 236 407 c 0
 236 407 255 421 282 421 c 0
 322 421 337 407 338 407 c 0
 341 407 357 392 357 390 c 0
 357 385 370 377 370 367 c 0
 370 362 369 349 368 346 c 0
 367 344 368 341 371 338 c 0
 393 314 380 253 389 253 c 0
 390 253 414 266 414 314 c 0
 414 370 385 417 384 418 c 0
 375 431 347 460 339 464 c 0
 338 464 310 479 274 479 c 0
 273 479 234 478 197 445 c 0
 165 417 119 345 101 297 c 0
 94 279 91 257 91 234 c 0
 91 205 96 154 132 119 c 0
 146 105 160 92 216 92 c 0
 284 92 370 128 385 128 c 0
300 349 m 0
 298 350 296 350 293 350 c 0
 286 350 278 347 268 340 c 0
 250 329 250 328 236 305 c 0
 232 298 220 279 220 255 c 0
 220 248 254 266 270 287 c 0
 275 294 281 301 283 303 c 0
 289 309 287 317 297 335 c 0
 303 346 303 348 300 349 c 0
EndSplineSet
EndChar

StartChar: dollar
Encoding: 36 36 112
Width: 434
VWidth: 807
Flags: W
LayerCount: 2
Fore
SplineSet
101 519 m 0
 101 519 132 536 145 536 c 0
 152 536 150 587 161 602 c 0
 165 608 180 612 187 598 c 0
 190 592 191 585 191 564 c 2
 192 538 l 1
 202 538 l 2
 208 538 215 537 217 537 c 0
 223 537 220 550 223 555 c 0
 228 562 229 593 243 593 c 0
 266 593 267 578 267 571 c 0
 267 560 265 546 265 540 c 0
 265 532 267 530 276 530 c 0
 288 530 332 522 335 519 c 0
 337 517 339 517 340 517 c 0
 344 517 352 499 352 493 c 0
 352 489 350 486 345 475 c 0
 338 460 335 454 319 454 c 0
 310 454 297 455 278 458 c 2
 260 461 l 1
 261 451 l 2
 261 449 261 447 261 444 c 0
 261 415 257 400 257 400 c 0
 257 399 258 399 262 399 c 0
 269 399 280 400 289 400 c 0
 329 400 388 359 397 294 c 0
 398 286 399 272 399 255 c 0
 399 235 398 212 397 202 c 0
 391 156 368 121 368 120 c 0
 368 118 339 74 304 58 c 0
 275 45 266 41 264 41 c 0
 263 41 256 40 256 24 c 0
 256 24 256 -2 256 -4 c 0
 256 -31 252 -9 252 -38 c 0
 252 -46 250 -49 244 -49 c 0
 231 -49 237 -38 228 -28 c 0
 226 -25 222 -18 219 -13 c 0
 211 5 211 5 211 7 c 0
 211 7 210 23 202 20 c 0
 200 19 192 19 182 19 c 0
 180 19 177 19 175 19 c 2
 152 19 l 1
 152 0 l 2
 150 -32 147 -47 138 -60 c 0
 131 -70 112 -61 112 -61 c 0
 111 -60 111 -55 111 -50 c 0
 111 -29 106 -60 105 -1 c 2
 104 34 l 1
 91 43 l 2
 50 70 25 114 24 117 c 0
 20 127 18 121 7 155 c 0
 2 170 0 176 0 181 c 0
 0 181 4 211 6 213 c 0
 8 216 34 224 42 224 c 0
 46 224 48 222 48 218 c 0
 48 210 62 193 69 180 c 0
 79 161 86 152 97 140 c 0
 107 129 108 129 109 134 c 0
 111 139 110 154 113 172 c 0
 114 177 122 250 122 258 c 0
 122 264 121 266 118 266 c 0
 98 266 97 275 89 275 c 0
 86 275 66 288 66 290 c 0
 66 300 36 298 36 390 c 0
 36 413 40 402 40 411 c 0
 40 427 59 477 76 493 c 0
 84 500 80 504 92 511 c 0
 104 517 98 519 101 519 c 0
207 441 m 0
 207 465 214 463 209 466 c 0
 207 467 203 467 198 467 c 2
 190 467 l 1
 190 457 l 2
 190 442 187 436 185 395 c 2
 183 367 l 1
 192 372 l 2
 198 375 201 377 201 380 c 0
 201 408 207 418 207 441 c 0
114 375 m 0
 114 350 128 346 129 346 c 0
 137 346 135 401 140 444 c 0
 141 450 141 456 141 456 c 1
 138 456 131 445 124 429 c 0
 117 413 114 406 114 375 c 0
315 295 m 0
 315 295 303 320 285 320 c 0
 285 320 250 320 250 307 c 0
 250 306 247 217 247 197 c 0
 247 178 247 155 247 130 c 2
 247 118 l 1
 259 124 l 2
 267 128 276 135 287 146 c 0
 302 161 303 163 308 180 c 0
 314 200 317 222 317 249 c 0
 317 267 315 291 315 295 c 0
195 101 m 0
 195 109 193 83 193 152 c 0
 193 177 194 216 194 239 c 0
 194 262 193 281 193 281 c 0
 193 281 189 281 184 279 c 0
 173 275 174 277 168 217 c 0
 163 164 159 118 156 98 c 1
 174 97 l 2
 178 97 181 97 184 97 c 0
 192 97 195 98 195 101 c 0
EndSplineSet
EndChar

StartChar: percent
Encoding: 37 37 113
Width: 521
VWidth: 657
Flags: W
LayerCount: 2
Fore
SplineSet
76 254 m 0
 61 254 5 269 5 352 c 0
 5 416 31 453 32 454 c 0
 32 454 51 488 69 491 c 0
 88 494 97 505 134 505 c 0
 169 505 177 499 203 480 c 0
 215 464 l 0
 215 459 226 446 226 422 c 0
 226 378 193 331 189 328 c 0
 182 322 157 285 118 263 c 0
 109 258 88 254 76 254 c 0
156 421 m 1
 146 430 145 433 137 433 c 0
 136 432 l 0
 113 432 102 415 90 415 c 0
 81 415 79 412 74 390 c 0
 72 382 71 375 71 366 c 0
 71 347 71 321 82 321 c 0
 100 321 148 378 154 410 c 2
 156 421 l 1
374 456 m 0
 380 456 388 469 402 469 c 0
 421 469 426 462 431 462 c 0
 445 462 450 435 450 425 c 0
 450 425 449 418 449 415 c 0
 449 408 443 397 439 397 c 0
 438 397 329 287 329 288 c 0
 329 288 220 174 209 159 c 0
 199 145 163 107 142 79 c 0
 142 78 109 36 96 36 c 0
 94 36 55 53 55 69 c 0
 55 83 61 97 105 156 c 0
 146 211 192 264 202 270 c 0
 210 274 201 272 268 339 c 0
 327 398 363 436 364 441 c 0
 365 447 371 456 374 456 c 0
266 94 m 0
 266 96 273 235 368 235 c 0
 374 236 390 222 395 222 c 0
 397 222 400 219 402 216 c 0
 405 211 407 210 418 208 c 0
 432 206 464 193 471 187 c 0
 488 172 501 156 501 148 c 0
 501 146 500 146 500 135 c 0
 499 105 473 75 473 75 c 0
 470 72 465 67 463 64 c 0
 462 63 405 -2 342 -2 c 0
 294 -2 272 51 272 52 c 0
 272 59 266 80 266 94 c 0
424 127 m 0
 424 131 350 146 349 146 c 0
 345 146 336 118 336 93 c 0
 336 63 346 66 354 69 c 0
 397 83 424 126 424 127 c 0
EndSplineSet
EndChar

StartChar: one
Encoding: 49 49 114
Width: 146
VWidth: 733
Flags: W
LayerCount: 2
Fore
SplineSet
25 386 m 0
 25 409 22 520 22 521 c 0
 22 560 24 561 57 567 c 0
 66 569 73 569 78 569 c 0
 90 569 94 564 96 551 c 0
 106 495 106 494 106 444 c 0
 106 403 101 48 95 34 c 0
 92 26 83 19 76 19 c 0
 67 19 36 24 28 27 c 0
 25 28 15 36 15 47 c 0
 15 48 18 63 21 187 c 0
 25 374 25 374 25 386 c 0
EndSplineSet
EndChar

StartChar: integral
Encoding: 8747 8747 115
Width: 553
VWidth: 1064
Flags: W
LayerCount: 2
Fore
SplineSet
34 -132 m 0
 34 -130 21 -111 21 -109 c 0
 21 -107 4 -83 2 -77 c 0
 0 -73 0 -70 1 -60 c 0
 1 -58 31 -27 47 -30 c 0
 50 -30 54 -31 55 -31 c 0
 57 -32 84 -67 100 -84 c 2
 112 -96 l 1
 124 -83 l 2
 160 -45 189 11 196 59 c 0
 205 127 256 371 259 404 c 0
 261 433 265 433 265 447 c 0
 265 455 275 501 279 533 c 0
 279 534 295 651 296 665 c 0
 299 694 317 740 331 754 c 0
 333 756 364 782 384 778 c 0
 405 774 453 782 468 765 c 0
 471 762 474 760 475 760 c 0
 485 760 524 695 527 692 c 0
 541 680 527 659 524 658 c 0
 516 655 528 646 507 633 c 0
 502 630 498 629 493 629 c 0
 478 629 455 649 453 653 c 0
 445 670 440 678 432 687 c 2
 423 697 l 1
 412 697 401 698 390 698 c 1
 386 684 l 2
 378 661 370 616 368 587 c 0
 366 553 335 359 328 326 c 0
 321 292 317 258 314 251 c 0
 310 245 311 225 309 218 c 0
 296 157 280 50 272 23 c 0
 268 9 255 -33 250 -37 c 0
 248 -39 227 -83 223 -88 c 0
 221 -90 179 -147 165 -155 c 0
 134 -173 126 -173 118 -173 c 0
 92 -173 86 -172 77 -166 c 0
 72 -163 67 -160 64 -159 c 0
 59 -158 34 -135 34 -132 c 0
EndSplineSet
EndChar

StartChar: equal
Encoding: 61 61 116
Width: 510
VWidth: 596
Flags: W
LayerCount: 2
Fore
SplineSet
323 440 m 0
 397 440 402 453 439 453 c 0
 468 453 470 440 472 423 c 0
 474 412 475 404 475 399 c 0
 475 377 449 374 449 374 c 0
 424 374 410 361 331 360 c 0
 203 357 172 357 171 356 c 0
 170 356 121 346 67 346 c 0
 33 346 47 351 36 351 c 0
 33 351 28 354 23 359 c 2
 15 366 l 1
 15 384 l 2
 15 394 15 403 15 404 c 0
 15 410 25 416 35 417 c 0
 52 419 66 422 72 424 c 0
 92 431 230 440 323 440 c 0
356 256 m 0
 408 256 435 267 457 267 c 0
 486 267 483 248 489 245 c 0
 492 243 488 233 488 217 c 0
 488 212 l 0
 488 195 482 190 461 188 c 0
 432 186 419 175 366 175 c 0
 323 175 274 183 247 183 c 0
 223 183 52 169 50 169 c 0
 37 169 34 170 30 174 c 0
 27 177 25 179 25 180 c 0
 25 181 25 183 24 183 c 0
 22 183 16 211 16 218 c 0
 16 223 19 221 19 224 c 0
 19 234 66 246 67 246 c 0
 69 246 71 247 71 248 c 0
 73 255 180 262 251 262 c 0
 310 262 310 256 356 256 c 0
EndSplineSet
EndChar

StartChar: approxequal
Encoding: 8776 8776 117
Width: 628
VWidth: 658
Flags: W
LayerCount: 2
Fore
SplineSet
0 338 m 0
 0 362 21 378 21 385 c 0
 21 389 44 416 53 422 c 0
 98 455 102 459 143 469 c 0
 156 472 166 475 167 476 c 0
 168 477 177 477 189 477 c 0
 211 477 254 469 257 465 c 0
 259 462 304 456 387 393 c 0
 405 379 412 374 420 374 c 0
 449 374 485 415 499 431 c 0
 522 457 525 459 535 459 c 0
 541 459 584 438 584 418 c 0
 584 395 551 365 512 329 c 0
 506 324 491 316 489 314 c 0
 484 308 447 294 437 294 c 0
 418 294 441 292 424 292 c 0
 401 292 375 297 353 317 c 0
 331 337 279 372 259 380 c 0
 237 389 202 396 185 396 c 0
 184 396 129 394 86 341 c 0
 84 339 55 302 38 302 c 0
 29 302 0 319 0 338 c 0
452 135 m 0
 443 135 435 129 411 129 c 0
 410 129 350 130 316 166 c 0
 304 179 299 182 273 191 c 0
 263 195 246 201 236 206 c 0
 216 216 196 221 181 221 c 0
 178 221 142 220 131 193 c 0
 131 193 118 169 103 169 c 0
 102 169 l 0
 97 169 86 172 77 175 c 0
 62 180 57 182 57 191 c 0
 57 196 59 203 61 213 c 0
 68 242 70 246 84 260 c 0
 95 272 130 301 183 301 c 0
 223 301 279 276 280 276 c 0
 283 274 296 269 308 265 c 0
 343 252 346 250 367 229 c 0
 376 220 380 219 396 214 c 2
 415 208 l 1
 434 213 l 1
 516 232 531 302 556 302 c 0
 563 302 608 279 608 259 c 0
 608 244 551 173 516 160 c 0
 513 159 476 135 452 135 c 0
EndSplineSet
EndChar

StartChar: notequal
Encoding: 8800 8800 118
Width: 514
VWidth: 697
Flags: W
LayerCount: 2
Fore
SplineSet
174 439 m 0
 217 439 248 439 260 436 c 1
 284 484 l 2
 304 524 313 541 321 542 c 0
 324 542 325 543 326 543 c 0
 327 545 330 541 342 541 c 0
 353 541 350 537 357 537 c 0
 366 537 377 518 377 505 c 0
 377 486 350 439 350 437 c 0
 350 436 388 435 416 435 c 0
 435 435 459 436 459 436 c 0
 473 436 477 433 485 425 c 2
 494 416 l 1
 494 395 l 2
 494 383 493 373 493 372 c 0
 492 364 479 354 392 354 c 0
 376 354 327 355 326 355 c 0
 319 355 319 356 309 355 c 1
 292 320 l 2
 282 301 274 284 274 283 c 0
 274 283 315 283 360 283 c 0
 428 283 454 283 455 283 c 0
 486 283 493 247 493 246 c 0
 493 240 488 227 484 223 c 0
 482 221 473 209 471 206 c 0
 469 203 460 202 435 202 c 0
 412 202 373 203 342 203 c 0
 315 203 296 202 256 199 c 2
 237 198 l 1
 232 187 l 2
 213 143 172 56 165 45 c 0
 160 37 154 33 146 33 c 0
 133 33 91 50 99 66 c 0
 102 72 102 87 105 92 c 0
 108 97 104 91 127 145 c 0
 137 168 144 187 144 187 c 0
 144 187 145 188 144 188 c 0
 143 188 85 178 60 178 c 0
 53 178 34 181 34 182 c 0
 34 189 24 174 17 216 c 0
 16 224 15 227 15 230 c 0
 15 236 23 245 23 245 c 0
 35 257 180 271 181 272 c 0
 182 272 194 303 211 337 c 0
 217 348 222 358 222 359 c 0
 222 360 210 361 194 361 c 0
 165 361 93 357 92 357 c 0
 83 357 73 357 64 358 c 0
 8 362 0 367 0 393 c 0
 0 419 6 429 23 432 c 0
 44 436 104 439 174 439 c 0
EndSplineSet
EndChar

StartChar: asciitilde
Encoding: 126 126 119
Width: 553
VWidth: 597
Flags: W
LayerCount: 2
Fore
SplineSet
377 353 m 0
 402 353 446 394 446 402 c 0
 446 419 468 433 472 432 c 0
 478 431 479 437 492 437 c 0
 503 437 516 433 516 428 c 0
 516 425 526 425 526 422 c 0
 526 419 533 417 533 409 c 0
 533 403 528 372 528 372 c 0
 528 370 515 358 508 346 c 0
 494 322 425 272 379 272 c 0
 336 272 307 291 306 291 c 0
 305 291 236 338 217 346 c 0
 210 349 201 351 192 351 c 0
 129 351 91 285 67 273 c 0
 63 271 59 268 57 266 c 0
 53 261 45 258 37 258 c 0
 31 258 28 260 15 274 c 0
 1 290 0 290 0 300 c 0
 0 322 18 327 18 334 c 0
 18 337 57 377 69 385 c 0
 78 392 112 412 117 415 c 0
 118 415 145 432 184 432 c 0
 239 432 260 410 269 410 c 0
 279 410 338 353 377 353 c 0
EndSplineSet
EndChar

StartChar: lessequal
Encoding: 8804 8804 120
Width: 439
VWidth: 729
Flags: W
LayerCount: 2
Fore
SplineSet
297 548 m 0
 302 548 326 577 337 577 c 0
 347 577 381 548 381 540 c 0
 381 524 368 516 369 513 c 0
 371 511 350 490 350 487 c 0
 350 483 222 357 182 321 c 0
 163 304 155 298 155 296 c 0
 155 295 157 295 158 295 c 0
 160 295 295 309 341 309 c 0
 354 309 365 308 366 307 c 0
 367 304 388 302 389 299 c 0
 390 296 396 293 396 283 c 0
 396 273 387 243 382 236 c 0
 380 233 378 231 378 232 c 0
 378 235 374 228 360 228 c 0
 353 228 351 229 341 229 c 0
 254 229 118 205 61 205 c 0
 33 205 26 210 12 229 c 0
 8 235 5 242 5 249 c 0
 5 264 15 270 15 274 c 0
 15 281 136 387 209 458 c 0
 270 518 271 518 271 519 c 0
 271 522 294 548 297 548 c 0
357 155 m 0
 385 155 380 160 389 160 c 0
 402 160 406 140 413 132 c 0
 417 128 419 126 419 108 c 0
 419 103 415 74 338 74 c 0
 306 74 281 78 224 78 c 0
 133 78 110 68 72 68 c 0
 28 68 26 81 23 105 c 0
 22 111 22 114 22 117 c 0
 22 134 41 138 43 138 c 0
 45 138 73 157 236 157 c 0
 295 157 334 155 357 155 c 0
EndSplineSet
EndChar

StartChar: greaterequal
Encoding: 8805 8805 121
Width: 472
VWidth: 744
Flags: W
LayerCount: 2
Fore
SplineSet
111 294 m 0
 166 294 303 307 303 311 c 0
 303 312 301 313 298 314 c 0
 287 319 160 447 142 472 c 0
 133 484 77 524 77 555 c 0
 77 564 78 566 90 580 c 0
 102 594 103 595 111 595 c 0
 141 595 237 487 238 486 c 0
 248 474 300 420 300 420 c 0
 301 420 371 353 380 353 c 0
 382 353 409 329 418 326 c 0
 427 322 425 316 431 309 c 0
 434 306 436 295 436 285 c 0
 436 278 435 272 433 269 c 0
 425 257 375 236 347 234 c 0
 346 234 263 224 260 224 c 0
 257 224 258 224 255 224 c 0
 224 224 203 215 131 215 c 0
 98 215 60 216 58 218 c 0
 50 224 17 222 17 250 c 0
 17 255 19 262 21 274 c 0
 23 285 27 303 44 303 c 0
 59 303 79 294 111 294 c 0
390 98 m 0
 300 98 296 103 211 103 c 0
 165 103 109 102 98 100 c 0
 79 97 64 96 52 96 c 0
 24 96 22 102 17 134 c 0
 16 140 15 144 15 147 c 0
 15 157 24 164 27 166 c 0
 50 179 164 183 192 183 c 0
 244 183 364 178 366 178 c 0
 434 177 432 177 436 162 c 0
 440 148 447 145 447 136 c 0
 447 98 409 98 390 98 c 0
EndSplineSet
EndChar

StartChar: bar_greater
Encoding: 1114134 -1 122
Width: 519
VWidth: 191
Flags: W
LayerCount: 2
Fore
SplineSet
190 561 m 0
 190 606 204 607 218 607 c 0
 272 607 267 593 277 593 c 0
 283 593 327 545 327 539 c 0
 327 530 430 418 430 414 c 0
 430 411 456 382 458 382 c 0
 462 382 464 376 473 372 c 0
 482 369 494 346 497 344 c 0
 498 343 499 336 499 327 c 0
 499 311 497 285 484 285 c 0
 481 285 469 267 466 267 c 0
 462 267 391 194 373 172 c 0
 319 106 275 20 258 16 c 0
 255 15 252 15 249 15 c 0
 241 15 235 18 223 26 c 0
 203 40 201 44 201 57 c 0
 201 64 203 67 209 76 c 0
 210 77 267 167 305 215 c 0
 311 223 319 232 323 237 c 0
 330 247 388 307 399 315 c 2
 406 321 l 1
 398 328 l 2
 382 343 295 448 294 449 c 0
 244 514 228 533 216 533 c 0
 211 533 202 542 199 542 c 0
 199 542 190 550 190 561 c 0
106 245 m 0
 106 245 106 229 106 228 c 0
 106 118 102 61 91 51 c 0
 83 44 76 40 68 40 c 0
 64 40 32 50 30 52 c 0
 20 66 20 66 20 79 c 0
 20 81 23 84 25 244 c 0
 26 344 31 536 31 539 c 0
 31 542 31 543 31 546 c 0
 31 595 39 597 65 602 c 0
 74 604 83 606 85 606 c 0
 89 606 96 599 96 596 c 0
 96 595 97 594 98 594 c 0
 102 594 107 547 111 544 c 0
 112 544 112 536 112 523 c 0
 112 452 106 357 106 245 c 0
EndSplineSet
Ligature2: "liga" bar greater
EndChar

StartChar: less_bar
Encoding: 1114135 -1 123
Width: 524
VWidth: 171
Flags: W
LayerCount: 2
Fore
SplineSet
14 261 m 0
 14 265 0 275 0 287 c 0
 0 304 33 363 53 386 c 0
 57 391 63 397 66 401 c 0
 74 413 117 460 145 488 c 0
 255 598 225 606 266 629 c 0
 270 631 272 633 275 633 c 0
 279 633 284 631 294 627 c 0
 316 619 318 616 318 601 c 0
 318 559 252 483 224 454 c 0
 223 453 68 295 93 295 c 0
 102 295 163 234 164 225 c 0
 164 224 204 171 228 134 c 0
 249 102 256 93 265 76 c 0
 271 65 276 59 279 57 c 0
 288 53 293 42 293 31 c 0
 293 18 285 12 285 4 c 0
 285 -1 275 -12 270 -12 c 0
 269 -12 268 -13 268 -14 c 0
 268 -17 258 -20 252 -20 c 0
 245 -20 225 -10 219 -4 c 0
 205 10 208 34 117 154 c 0
 87 193 77 204 60 218 c 0
 42 233 14 258 14 261 c 0
427 -25 m 0
 426 -25 377 -21 377 6 c 0
 377 10 399 369 400 377 c 0
 405 409 414 577 415 579 c 0
 419 585 414 598 423 611 c 0
 426 615 433 627 467 627 c 0
 482 627 485 620 489 599 c 0
 489 599 494 578 494 561 c 0
 494 556 461 15 458 14 c 0
 457 14 456 9 456 5 c 0
 456 -11 442 -25 427 -25 c 0
EndSplineSet
Ligature2: "liga" less bar
EndChar

StartChar: u1F382
Encoding: 127874 127874 124
Width: 644
VWidth: 931
Flags: W
LayerCount: 2
Fore
SplineSet
16 336 m 0
 16 339 0 347 0 374 c 0
 0 393 6 388 13 411 c 0
 24 450 45 437 52 447 c 0
 68 465 90 479 118 479 c 0
 141 479 152 468 152 468 c 0
 158 459 162 473 183 475 c 0
 190 476 194 476 193 478 c 0
 192 479 193 479 195 478 c 0
 197 476 200 475 205 476 c 0
 218 478 221 478 221 486 c 0
 221 512 220 512 222 516 c 0
 226 524 229 535 232 535 c 0
 233 535 234 536 234 537 c 0
 234 544 261 566 275 569 c 0
 289 573 290 573 300 574 c 0
 309 575 311 575 312 580 c 0
 314 587 321 595 321 598 c 0
 321 601 342 636 342 636 c 0
 344 638 365 665 400 681 c 0
 413 687 417 689 421 689 c 0
 427 689 424 693 437 694 c 0
 463 698 456 702 479 702 c 0
 498 702 505 727 522 710 c 0
 525 707 527 705 528 705 c 0
 531 705 528 700 530 692 c 0
 533 682 526 663 530 653 c 0
 534 643 528 648 524 638 c 0
 523 635 521 634 519 634 c 0
 517 634 512 633 509 632 c 0
 504 631 502 632 497 637 c 0
 490 644 471 653 462 653 c 0
 461 653 442 653 410 638 c 0
 388 628 369 602 368 602 c 0
 367 602 366 600 366 598 c 0
 366 593 354 585 354 578 c 0
 354 576 356 574 360 574 c 0
 375 574 404 563 407 556 c 0
 407 555 409 555 410 555 c 0
 415 555 427 536 427 533 c 0
 427 530 436 523 436 499 c 0
 436 492 434 484 434 477 c 0
 434 471 436 470 442 469 c 0
 454 467 456 471 476 471 c 0
 497 471 496 462 529 462 c 0
 530 462 l 0
 558 462 568 457 604 422 c 0
 613 414 619 405 619 403 c 0
 619 396 624 401 624 380 c 0
 624 360 620 368 619 351 c 0
 618 336 615 340 615 336 c 0
 615 328 586 315 586 313 c 0
 586 312 583 311 581 311 c 0
 572 311 577 307 557 306 c 0
 549 306 558 304 541 236 c 0
 541 235 512 124 512 120 c 0
 512 119 502 68 502 35 c 0
 502 31 507 18 503 12 c 0
 501 9 483 1 478 1 c 0
 468 1 453 4 442 1 c 0
 424 -4 412 12 412 7 c 0
 412 7 390 -3 380 5 c 0
 376 8 372 9 368 9 c 0
 359 9 359 3 341 3 c 0
 334 3 329 4 327 6 c 0
 324 9 317 10 317 7 c 0
 317 4 295 -5 287 -5 c 0
 270 -5 271 16 255 6 c 0
 251 3 241 2 233 2 c 0
 225 2 218 3 218 6 c 0
 218 8 217 9 214 9 c 0
 203 9 186 -3 171 -3 c 0
 159 -3 158 5 150 1 c 0
 140 -4 132 -5 130 -4 c 0
 129 -3 117 0 117 5 c 0
 117 8 97 21 89 70 c 0
 86 89 83 90 83 98 c 0
 83 106 76 131 73 175 c 0
 73 176 66 244 57 307 c 2
 55 325 l 1
 33 324 16 336 16 336 c 0
151 413 m 0
 151 413 137 415 137 418 c 0
 137 419 135 420 134 420 c 0
 131 420 123 428 123 431 c 0
 123 439 90 431 86 409 c 0
 85 403 82 398 80 398 c 0
 75 398 81 392 66 392 c 0
 57 392 56 392 53 385 c 0
 45 370 51 368 69 368 c 0
 79 368 85 370 85 370 c 0
 89 370 91 367 97 351 c 0
 99 346 103 343 103 347 c 0
 103 348 115 365 128 365 c 0
 135 365 137 359 140 359 c 0
 141 359 144 356 147 352 c 0
 159 336 167 355 176 354 c 0
 177 354 180 353 182 353 c 0
 184 353 186 352 186 350 c 0
 186 341 204 348 204 351 c 0
 204 352 206 353 208 353 c 0
 214 353 215 358 231 358 c 0
 247 358 243 353 246 353 c 0
 253 353 249 333 288 352 c 0
 297 356 307 359 314 359 c 0
 325 359 324 353 328 353 c 0
 329 353 331 352 331 351 c 0
 331 351 331 342 348 350 c 2
 358 354 l 1
 342 363 342 363 348 374 c 0
 353 383 356 386 363 382 c 0
 379 372 379 373 375 367 c 2
 372 362 l 1
 382 364 387 364 391 362 c 0
 397 359 404 353 404 350 c 0
 404 346 407 345 410 347 c 0
 411 348 444 359 449 359 c 0
 462 359 469 345 469 345 c 0
 469 338 488 353 505 353 c 0
 509 353 512 353 512 351 c 0
 512 342 525 337 537 348 c 0
 550 359 561 353 568 369 c 0
 570 374 571 378 571 381 c 0
 571 386 568 390 559 398 c 0
 544 413 540 415 518 416 c 0
 492 418 485 423 471 423 c 0
 462 423 453 421 445 421 c 0
 428 421 413 431 396 431 c 0
 387 431 383 428 371 428 c 0
 356 428 349 433 339 433 c 0
 323 433 281 426 280 426 c 0
 264 426 264 436 254 429 c 0
 251 427 245 425 239 425 c 0
 222 425 227 432 202 432 c 0
 180 432 184 426 179 426 c 0
 177 426 176 425 176 424 c 0
 176 421 157 413 151 413 c 0
157 57 m 0
 157 77 151 95 151 110 c 0
 151 122 147 127 143 157 c 0
 142 168 134 242 131 260 c 0
 128 282 129 343 128 343 c 0
 127 343 121 332 113 328 c 0
 107 325 106 325 113 289 c 0
 120 253 123 211 135 146 c 0
 135 145 151 51 151 51 c 0
 151 47 152 46 152 46 c 1
 152 47 155 48 156 48 c 0
 157 48 157 52 157 57 c 0
445 243 m 0
 445 251 451 259 451 271 c 0
 451 290 466 310 453 322 c 0
 444 332 446 338 441 336 c 0
 424 328 424 328 423 327 c 0
 422 325 417 325 409 325 c 0
 397 325 397 325 390 333 c 0
 386 338 383 340 381 340 c 0
 378 340 377 333 377 319 c 0
 377 317 377 307 377 307 c 0
 377 269 372 247 370 216 c 0
 358 72 359 75 351 57 c 0
 348 49 349 49 362 54 c 0
 366 55 368 56 371 56 c 0
 381 56 392 48 404 52 c 0
 412 55 412 55 415 74 c 0
 424 135 425 145 425 148 c 0
 425 161 445 241 445 243 c 0
223 195 m 2
 223 274 223 339 222 339 c 0
 220 339 197 322 181 330 c 0
 167 337 164 323 151 323 c 0
 147 323 147 323 148 320 c 0
 149 319 157 256 157 255 c 0
 158 220 184 59 184 57 c 0
 185 48 185 39 185 39 c 0
 186 38 205 50 216 50 c 2
 223 50 l 1
 223 195 l 2
339 324 m 0
 324 324 324 331 320 331 c 0
 314 331 317 343 298 332 c 0
 289 327 275 319 264 319 c 0
 251 319 239 329 248 320 c 0
 253 315 247 47 257 47 c 0
 258 47 261 49 268 49 c 0
 276 49 283 47 283 44 c 0
 283 43 286 43 290 43 c 0
 294 43 297 43 297 44 c 0
 297 47 321 56 329 56 c 2
 336 56 l 1
 335 81 l 2
 335 84 335 86 335 89 c 0
 335 186 351 270 351 272 c 0
 353 295 363 328 361 329 c 0
 360 330 351 324 339 324 c 0
499 266 m 0
 499 271 510 303 510 309 c 0
 510 311 509 311 507 311 c 0
 505 311 502 315 498 320 c 2
 492 329 l 1
 484 324 l 2
 477 319 477 320 473 292 c 0
 473 290 464 239 460 228 c 0
 459 226 446 180 429 50 c 1
 439 51 l 2
 451 53 451 53 451 63 c 0
 451 75 457 100 457 111 c 0
 457 135 499 264 499 266 c 0
297 410 m 0
 297 416 311 424 315 424 c 0
 318 424 329 410 329 407 c 0
 329 403 314 392 309 392 c 0
 305 392 297 405 297 410 c 0
262 386 m 1
 241 398 242 401 249 411 c 0
 253 416 257 420 258 420 c 0
 262 420 277 409 277 406 c 0
 277 404 273 399 269 394 c 2
 262 386 l 1
396 410 m 0
 405 426 423 405 423 402 c 0
 423 398 422 396 413 386 c 1
 404 391 l 2
 397 395 394 398 394 402 c 0
 394 404 394 407 396 410 c 0
206 376 m 0
 198 376 190 392 190 396 c 0
 190 404 210 415 212 414 c 0
 215 414 230 393 230 390 c 0
 230 389 213 376 206 376 c 0
510 395 m 0
 508 406 517 408 526 408 c 0
 532 408 533 405 535 394 c 0
 536 386 536 386 522 384 c 0
 514 383 512 385 510 395 c 0
84 395 m 0
 88 404 88 404 107 395 c 1
 103 387 l 2
 99 378 99 378 89 382 c 0
 81 385 80 385 84 395 c 0
134 395 m 0
 142 397 143 396 145 390 c 0
 147 382 143 378 135 379 c 0
 128 380 128 380 128 387 c 0
 128 393 129 394 134 395 c 0
479 393 m 0
 483 401 493 393 489 388 c 0
 484 382 475 386 479 393 c 0
472 368 m 0
 472 371 478 381 481 381 c 0
 483 381 486 379 494 374 c 0
 502 369 502 367 495 359 c 2
 489 353 l 1
 482 357 l 2
 475 361 472 365 472 368 c 0
EndSplineSet
EndChar

StartChar: two
Encoding: 50 50 125
Width: 421
VWidth: 797
Flags: W
LayerCount: 2
Fore
SplineSet
315 442 m 0
 315 460 304 483 304 495 c 0
 304 499 295 512 291 514 c 0
 287 516 257 525 242 525 c 0
 222 525 190 517 175 509 c 0
 164 502 144 496 135 488 c 0
 94 452 68 426 68 427 c 0
 68 433 66 417 55 426 c 0
 40 437 23 438 18 452 c 0
 17 455 17 458 17 460 c 0
 17 463 18 467 20 474 c 0
 27 494 32 500 60 527 c 0
 108 573 179 601 210 603 c 0
 211 603 261 606 266 607 c 0
 267 607 267 606 267 605 c 0
 267 604 269 603 271 603 c 0
 276 603 310 595 311 593 c 0
 315 588 318 592 344 574 c 0
 358 564 369 551 368 547 c 0
 368 546 390 504 390 491 c 0
 390 477 395 479 395 443 c 0
 395 365 368 329 368 328 c 0
 368 325 327 271 327 270 c 0
 327 264 235 173 229 166 c 0
 217 152 147 81 132 68 c 2
 122 59 l 1
 132 61 l 2
 138 62 145 62 148 62 c 0
 150 62 339 58 343 56 c 0
 352 52 360 58 362 55 c 0
 363 53 384 54 384 48 c 0
 384 43 401 32 401 22 c 0
 401 14 394 4 394 -3 c 0
 394 -24 360 -31 360 -29 c 0
 359 -27 316 -21 305 -21 c 0
 290 -21 280 -23 267 -23 c 0
 253 -23 251 -20 226 -20 c 0
 225 -20 225 -20 224 -20 c 0
 177 -20 147 -19 146 -19 c 0
 105 -19 119 -24 85 -27 c 0
 63 -28 64 -31 60 -31 c 0
 58 -31 55 -30 53 -30 c 0
 53 -30 22 -16 17 -11 c 0
 10 -4 2 17 2 26 c 0
 2 29 1 32 0 33 c 0
 -3 35 10 54 10 58 c 0
 10 63 121 171 122 172 c 0
 132 183 161 209 212 265 c 0
 219 273 262 312 273 331 c 0
 275 334 276 336 277 336 c 0
 278 336 315 390 315 442 c 0
EndSplineSet
EndChar

StartChar: period
Encoding: 46 46 126
Width: 136
VWidth: 153
Flags: W
LayerCount: 2
Fore
SplineSet
0 25 m 0
 0 30 4 36 4 43 c 0
 4 46 6 56 8 64 c 0
 12 79 14 80 30 95 c 0
 41 105 48 112 57 112 c 0
 71 112 84 93 91 93 c 0
 96 93 105 84 105 80 c 0
 105 74 116 65 116 45 c 0
 116 21 90 -14 80 -16 c 0
 75 -17 66 -27 56 -27 c 0
 50 -27 40 -24 36 -23 c 0
 14 -16 12 -13 4 11 c 0
 2 18 0 22 0 25 c 0
EndSplineSet
EndChar

StartChar: comma
Encoding: 44 44 127
Width: 178
VWidth: 172
Flags: W
LayerCount: 2
Fore
SplineSet
74 18 m 0
 74 33 72 48 72 57 c 0
 72 70 82 81 82 81 c 0
 84 82 118 94 126 94 c 0
 146 94 158 39 158 19 c 0
 158 -33 121 -97 113 -108 c 0
 110 -112 108 -116 107 -117 c 0
 104 -125 69 -162 63 -163 c 0
 63 -163 37 -169 36 -169 c 0
 27 -169 0 -147 0 -132 c 0
 1 -122 5 -119 5 -113 c 0
 5 -112 4 -111 4 -110 c 0
 4 -103 16 -90 22 -90 c 0
 27 -90 74 -40 74 18 c 0
EndSplineSet
EndChar

StartChar: semicolon
Encoding: 59 59 128
Width: 185
VWidth: 657
Flags: W
LayerCount: 2
Fore
SplineSet
63 437 m 0
 63 438 90 463 100 463 c 0
 112 463 122 454 127 454 c 0
 133 454 165 451 165 402 c 0
 165 378 153 376 153 370 c 0
 153 367 138 351 139 351 c 0
 145 351 125 341 120 337 c 0
 114 331 108 328 98 328 c 0
 92 328 84 330 76 332 c 0
 52 338 59 355 52 355 c 0
 47 355 42 392 42 392 c 0
 42 397 45 411 47 411 c 0
 49 411 48 418 57 428 c 0
 60 432 63 436 63 437 c 0
83 -159 m 0
 83 -159 63 -181 45 -181 c 0
 38 -181 31 -179 27 -176 c 0
 24 -174 19 -171 15 -169 c 0
 0 -163 0 -140 0 -140 c 0
 0 -139 0 -140 12 -110 c 0
 14 -104 17 -100 24 -97 c 0
 32 -93 33 -92 44 -69 c 0
 85 17 59 47 73 75 c 0
 78 85 82 87 101 91 c 0
 101 91 118 95 123 95 c 0
 142 95 146 77 151 53 c 0
 154 40 155 27 155 18 c 0
 155 1 151 5 150 -5 c 0
 148 -17 140 -50 138 -52 c 0
 138 -52 112 -117 99 -136 c 0
 90 -150 90 -155 86 -156 c 0
 84 -157 83 -158 83 -159 c 0
EndSplineSet
EndChar

StartChar: colon
Encoding: 58 58 129
Width: 138
VWidth: 618
Flags: W
LayerCount: 2
Fore
SplineSet
78 378 m 0
 67 378 63 370 50 370 c 0
 37 370 6 396 6 396 c 0
 5 397 5 400 5 402 c 0
 5 422 30 475 45 485 c 0
 48 487 54 488 59 488 c 0
 69 488 68 485 81 485 c 0
 84 485 l 0
 96 485 106 479 106 472 c 0
 106 470 107 469 108 469 c 0
 108 469 118 462 118 445 c 0
 118 422 94 378 78 378 c 0
22 141 m 0
 29 141 33 164 58 164 c 0
 60 164 114 164 114 118 c 0
 114 83 87 75 82 67 c 0
 81 64 79 62 77 62 c 0
 76 62 74 61 74 60 c 0
 74 57 63 54 55 54 c 0
 54 54 6 60 6 103 c 0
 6 122 20 141 22 141 c 0
EndSplineSet
EndChar

StartChar: quoteright
Encoding: 8217 8217 130
Width: 165
VWidth: 824
Flags: W
LayerCount: 2
Fore
SplineSet
44 686 m 0
 62 723 79 757 103 759 c 0
 107 759 138 740 143 734 c 0
 143 733 145 730 145 722 c 0
 145 710 142 699 135 689 c 0
 134 688 82 592 77 559 c 0
 75 547 74 538 57 538 c 0
 56 538 14 540 8 553 c 0
 7 555 5 557 4 557 c 0
 2 557 0 567 0 575 c 0
 0 593 22 641 44 686 c 0
EndSplineSet
EndChar

StartChar: quoteleft
Encoding: 8216 8216 131
Width: 162
VWidth: 825
Flags: W
LayerCount: 2
Fore
SplineSet
0 700 m 0
 0 701 6 749 24 749 c 0
 28 749 35 747 51 743 c 0
 106 729 86 706 108 687 c 0
 112 684 125 648 126 638 c 0
 127 628 142 576 142 540 c 0
 142 496 125 496 102 496 c 0
 81 496 80 496 73 502 c 0
 62 511 61 513 59 542 c 0
 57 591 43 643 28 659 c 0
 20 668 18 671 18 673 c 0
 18 675 18 675 17 675 c 0
 16 675 14 676 14 677 c 0
 14 679 0 690 0 700 c 0
EndSplineSet
EndChar

StartChar: three
Encoding: 51 51 132
Width: 455
VWidth: 786
Flags: W
LayerCount: 2
Fore
SplineSet
105 502 m 0
 91 502 97 505 74 505 c 0
 47 505 42 508 37 530 c 0
 35 539 34 544 34 548 c 0
 34 565 51 569 65 572 c 0
 75 574 86 577 88 578 c 0
 102 585 306 593 306 600 c 0
 306 601 308 602 310 601 c 0
 321 597 345 603 363 588 c 0
 364 587 367 585 369 584 c 0
 377 580 381 567 381 554 c 0
 381 537 374 534 374 527 c 0
 374 521 363 517 361 511 c 0
 360 509 359 507 358 507 c 0
 357 507 353 506 348 503 c 0
 338 498 336 496 284 430 c 0
 272 414 272 414 255 392 c 1
 261 391 267 390 267 388 c 0
 267 387 319 375 326 369 c 0
 331 366 351 360 354 356 c 0
 360 349 367 354 389 330 c 0
 402 315 402 315 407 298 c 0
 413 279 420 237 420 220 c 0
 420 210 417 217 417 196 c 0
 417 196 417 188 417 187 c 0
 417 121 385 82 386 82 c 0
 388 82 364 47 355 36 c 0
 347 26 314 -9 258 -14 c 0
 238 -15 232 -19 213 -19 c 0
 194 -19 172 -15 147 -7 c 0
 84 13 62 20 32 70 c 0
 25 81 19 91 18 92 c 0
 18 92 0 127 0 147 c 0
 0 175 26 180 35 182 c 2
 52 185 l 1
 61 181 l 2
 66 179 70 175 71 173 c 0
 71 172 97 110 112 96 c 0
 119 89 137 80 165 70 c 2
 189 62 l 1
 216 63 l 2
 244 64 266 68 276 73 c 0
 295 83 332 142 332 158 c 0
 332 167 337 181 338 203 c 0
 338 223 332 268 328 275 c 0
 321 287 254 314 225 314 c 0
 208 314 178 308 178 308 c 0
 168 308 140 331 140 348 c 0
 140 356 145 377 149 382 c 0
 150 383 210 464 210 464 c 0
 210 468 243 508 243 509 c 0
 243 510 241 510 236 510 c 0
 184 510 106 502 105 502 c 0
EndSplineSet
EndChar

StartChar: quotesingle
Encoding: 39 39 133
Width: 109
VWidth: 781
Flags: W
LayerCount: 2
Fore
SplineSet
4 622 m 0
 4 642 0 663 0 672 c 0
 0 677 1 679 3 683 c 0
 13 701 14 702 31 704 c 0
 39 705 47 706 54 706 c 0
 75 706 74 705 81 661 c 0
 85 635 87 612 87 601 c 0
 87 600 84 593 84 546 c 0
 84 510 85 499 87 496 c 0
 88 494 89 493 89 490 c 0
 89 476 77 475 75 471 c 0
 74 469 73 468 71 468 c 0
 70 468 57 455 40 455 c 0
 19 455 9 478 8 481 c 0
 7 484 5 488 4 491 c 0
 3 494 3 503 3 530 c 0
 3 562 4 620 4 622 c 0
EndSplineSet
EndChar

StartChar: quotedbl
Encoding: 34 34 134
Width: 223
VWidth: 780
Flags: W
LayerCount: 2
Fore
SplineSet
116 634 m 0
 116 645 112 658 112 659 c 0
 112 664 116 676 118 683 c 0
 120 692 122 693 141 700 c 0
 152 704 160 706 166 706 c 0
 171 706 175 704 178 701 c 0
 183 696 203 643 203 635 c 0
 203 629 198 618 196 606 c 0
 189 552 185 507 185 492 c 2
 185 474 l 1
 177 468 166 460 134 460 c 0
 123 460 117 462 113 467 c 0
 104 477 102 479 102 498 c 0
 102 538 116 613 116 634 c 0
0 509 m 0
 0 554 5 590 6 622 c 0
 6 634 7 650 8 657 c 0
 12 683 12 683 18 689 c 0
 24 695 24 695 46 695 c 0
 67 695 69 695 74 690 c 0
 81 684 84 678 84 671 c 0
 84 668 83 668 83 664 c 0
 83 651 87 647 87 629 c 0
 87 612 83 584 82 526 c 0
 81 483 81 481 76 474 c 0
 71 466 70 466 41 461 c 0
 33 460 28 459 25 459 c 0
 22 459 21 459 18 461 c 0
 4 470 0 478 0 509 c 0
EndSplineSet
EndChar

StartChar: four
Encoding: 52 52 135
Width: 419
VWidth: 775
Flags: W
LayerCount: 2
Fore
SplineSet
85 253 m 0
 66 253 0 258 0 337 c 0
 0 384 12 398 17 435 c 0
 23 481 34 513 35 533 c 0
 36 556 44 579 52 588 c 0
 57 593 58 593 75 593 c 0
 116 593 116 587 116 531 c 0
 116 502 115 498 112 496 c 0
 106 492 112 488 95 419 c 0
 90 401 80 341 80 335 c 0
 80 334 82 334 85 334 c 0
 125 334 190 372 278 372 c 2
 296 372 l 1
 298 387 l 2
 299 399 300 434 300 465 c 0
 300 523 295 561 295 562 c 0
 295 571 296 575 299 575 c 0
 300 575 301 576 300 577 c 0
 299 578 299 579 299 579 c 1
 302 579 338 588 350 588 c 0
 360 588 367 588 377 536 c 0
 382 514 383 503 383 492 c 0
 383 441 372 277 372 193 c 0
 372 134 374 121 384 44 c 2
 389 3 l 1
 384 -4 381 -7 372 -10 c 0
 360 -14 338 -19 331 -19 c 0
 326 -19 318 -10 317 -9 c 0
 311 -4 303 4 303 43 c 0
 303 72 291 51 291 197 c 0
 291 199 291 202 291 204 c 0
 291 240 291 275 291 280 c 0
 291 292 292 292 277 292 c 0
 219 292 192 273 174 273 c 0
 173 273 111 253 85 253 c 0
EndSplineSet
EndChar

StartChar: five
Encoding: 53 53 136
Width: 482
VWidth: 800
Flags: W
LayerCount: 2
Fore
SplineSet
111 323 m 0
 110 323 83 331 83 394 c 0
 83 396 88 542 90 563 c 0
 91 575 97 587 101 589 c 0
 103 590 128 591 144 591 c 0
 166 591 155 586 169 587 c 0
 301 595 377 599 416 610 c 0
 423 612 427 613 430 613 c 0
 447 613 458 587 458 582 c 0
 460 570 462 569 462 564 c 0
 462 554 452 540 440 535 c 0
 395 516 194 511 175 504 c 0
 168 502 166 501 166 439 c 0
 166 427 167 422 168 422 c 0
 169 422 193 440 246 440 c 0
 285 440 314 427 315 427 c 0
 318 425 320 424 321 424 c 0
 322 424 349 410 367 384 c 0
 374 374 384 355 384 351 c 0
 384 350 384 348 385 348 c 0
 386 348 399 324 399 267 c 0
 399 229 395 182 390 170 c 0
 386 160 383 150 383 147 c 0
 383 124 344 68 344 67 c 0
 344 64 310 32 305 30 c 0
 303 29 301 27 301 26 c 0
 301 25 262 -13 183 -13 c 0
 125 -13 96 9 84 11 c 0
 75 13 75 18 70 18 c 0
 62 18 20 62 20 65 c 0
 20 68 13 72 11 80 c 0
 9 88 6 88 6 94 c 0
 6 101 0 112 0 123 c 0
 0 139 11 161 13 177 c 0
 15 190 17 192 31 192 c 0
 48 192 52 189 52 176 c 0
 52 169 53 164 55 161 c 0
 62 154 71 127 91 105 c 0
 97 98 103 93 104 93 c 0
 105 93 149 67 178 67 c 0
 194 67 237 73 255 91 c 0
 256 92 260 95 262 97 c 0
 283 114 304 162 305 163 c 0
 305 163 318 216 318 247 c 0
 318 308 311 343 272 356 c 0
 262 359 254 361 246 361 c 0
 220 361 178 339 170 330 c 0
 164 323 141 317 127 317 c 0
 115 317 117 323 111 323 c 0
EndSplineSet
EndChar

StartChar: six
Encoding: 54 54 137
Width: 436
VWidth: 804
Flags: W
LayerCount: 2
Fore
SplineSet
182 583 m 0
 182 583 218 611 235 611 c 0
 242 611 253 610 272 606 c 0
 279 605 293 594 293 589 c 0
 293 584 298 582 298 577 c 0
 298 572 296 556 294 546 c 0
 293 542 284 538 278 538 c 0
 260 538 270 531 254 531 c 0
 243 531 233 524 202 497 c 0
 168 467 152 444 136 403 c 0
 131 389 125 375 123 372 c 0
 109 341 98 275 98 256 c 0
 98 253 99 252 99 252 c 0
 101 252 204 297 258 297 c 0
 325 297 347 270 357 270 c 0
 361 270 388 243 389 238 c 0
 390 235 393 231 396 228 c 0
 397 228 416 208 416 160 c 0
 416 98 380 63 380 58 c 0
 380 49 329 6 326 6 c 0
 325 6 274 -29 212 -29 c 0
 156 -29 105 9 99 14 c 0
 72 35 43 80 34 113 c 0
 32 120 30 127 29 129 c 0
 26 135 15 161 15 235 c 0
 15 288 37 398 65 448 c 0
 80 474 108 524 145 557 c 0
 159 569 179 583 182 583 c 0
217 52 m 0
 275 52 332 107 332 154 c 0
 332 180 330 184 325 190 c 0
 320 196 304 216 259 216 c 0
 211 216 103 171 103 164 c 0
 103 157 116 122 125 106 c 0
 145 70 187 52 217 52 c 0
EndSplineSet
EndChar

StartChar: seven
Encoding: 55 55 138
Width: 402
VWidth: 783
Flags: W
LayerCount: 2
Fore
SplineSet
76 508 m 0
 65 508 54 504 31 504 c 0
 11 504 8 510 2 539 c 0
 1 545 0 550 0 554 c 0
 0 564 0 581 82 590 c 0
 113 593 113 594 113 593 c 0
 113 592 129 591 148 591 c 0
 258 590 359 589 359 585 c 0
 359 584 360 583 362 583 c 0
 364 583 365 582 365 581 c 0
 365 574 382 579 382 558 c 0
 382 557 382 527 379 527 c 0
 365 504 l 0
 365 502 316 434 277 319 c 0
 270 299 270 309 263 280 c 0
 256 251 248 230 242 202 c 0
 242 200 205 31 190 -1 c 0
 178 -29 178 -29 176 -29 c 0
 172 -29 171 -38 156 -38 c 0
 154 -38 106 -24 106 1 c 0
 106 15 120 25 129 64 c 0
 129 66 164 229 167 235 c 0
 171 243 196 347 203 358 c 0
 205 361 209 377 221 401 c 0
 225 410 229 416 229 417 c 0
 229 421 274 507 273 509 c 0
 272 510 128 513 127 513 c 0
 99 513 98 509 76 508 c 0
EndSplineSet
EndChar

StartChar: eight
Encoding: 56 56 139
Width: 396
VWidth: 787
Flags: W
LayerCount: 2
Fore
SplineSet
170 596 m 0
 179 596 176 601 204 601 c 0
 247 601 273 574 274 574 c 0
 277 573 296 543 296 539 c 0
 296 536 298 541 304 535 c 0
 306 533 308 531 308 532 c 0
 308 539 331 501 337 470 c 0
 341 450 341 440 341 429 c 0
 341 415 330 383 323 378 c 0
 314 371 310 360 288 342 c 0
 279 335 272 330 272 329 c 0
 272 328 335 277 335 269 c 0
 335 268 353 241 358 218 c 0
 358 218 366 176 366 175 c 0
 366 163 363 137 359 125 c 0
 356 114 336 69 332 65 c 0
 330 63 324 56 320 50 c 0
 315 43 272 -17 160 -17 c 0
 83 -17 55 17 50 17 c 0
 41 17 13 66 13 75 c 0
 13 82 5 76 5 124 c 0
 5 181 23 207 24 208 c 0
 28 212 37 239 51 261 c 0
 61 277 95 312 111 324 c 2
 118 330 l 1
 108 336 l 2
 80 353 34 390 34 444 c 0
 34 496 77 539 78 540 c 0
 78 540 102 561 112 569 c 0
 124 579 161 596 170 596 c 0
222 512 m 0
 215 520 212 521 206 521 c 0
 206 521 185 521 175 515 c 0
 150 502 114 465 114 450 c 0
 114 441 120 427 129 419 c 0
 137 411 191 378 196 378 c 0
 197 378 242 403 254 420 c 0
 263 432 255 470 246 475 c 0
 239 479 237 485 237 494 c 0
 237 503 231 506 231 504 c 0
 231 503 227 507 222 512 c 0
240 251 m 0
 224 266 202 283 196 283 c 0
 195 283 104 244 89 138 c 2
 85 113 l 1
 91 99 l 2
 100 77 105 65 164 65 c 0
 200 65 226 72 244 87 c 0
 245 88 283 121 283 162 c 0
 283 212 265 228 240 251 c 0
EndSplineSet
EndChar

StartChar: nine
Encoding: 57 57 140
Width: 405
VWidth: 811
Flags: W
LayerCount: 2
Fore
SplineSet
239 283 m 0
 239 288 251 322 251 326 c 0
 251 327 187 293 156 290 c 0
 139 288 148 287 133 287 c 0
 85 287 0 302 0 408 c 0
 0 436 4 445 18 479 c 0
 45 545 114 592 126 595 c 0
 130 596 159 612 181 615 c 0
 214 619 215 619 239 614 c 0
 268 608 306 584 307 580 c 0
 308 577 309 577 310 577 c 0
 312 577 317 572 332 555 c 0
 337 549 345 540 349 536 c 0
 356 529 356 527 357 515 c 2
 358 502 l 1
 370 496 l 2
 376 493 381 490 382 489 c 0
 383 488 385 477 385 469 c 0
 385 454 375 444 375 438 c 0
 375 434 370 429 369 421 c 0
 365 401 338 347 332 317 c 0
 331 314 266 90 260 62 c 0
 251 18 243 2 243 2 c 0
 243 2 237 -23 220 -23 c 0
 216 -23 210 -21 195 -16 c 2
 170 -8 l 1
 167 -2 164 6 161 12 c 1
 169 37 l 2
 179 74 184 77 186 99 c 0
 187 115 228 249 230 253 c 0
 233 258 239 278 239 283 c 0
291 463 m 0
 291 473 261 538 203 538 c 0
 174 538 86 487 83 409 c 0
 83 404 82 401 82 398 c 0
 82 368 109 368 119 368 c 0
 199 368 291 446 291 463 c 0
EndSplineSet
EndChar

StartChar: zero
Encoding: 48 48 141
Width: 474
VWidth: 774
Flags: W
LayerCount: 2
Fore
SplineSet
138 579 m 0
 147 579 154 597 195 597 c 0
 219 597 214 592 223 592 c 0
 229 592 252 581 252 578 c 0
 252 578 256 578 262 572 c 0
 274 559 322 555 331 545 c 0
 338 537 357 534 381 502 c 0
 426 444 438 332 438 312 c 0
 438 284 439 279 439 279 c 0
 439 231 434 219 425 191 c 0
 414 157 407 143 407 142 c 0
 407 141 364 63 318 40 c 0
 294 27 294 27 293 27 c 0
 288 27 267 15 261 15 c 0
 245 15 262 9 210 9 c 0
 190 9 163 9 116 38 c 0
 102 47 69 80 65 89 c 0
 62 96 42 129 42 134 c 0
 42 141 15 180 15 252 c 0
 15 340 30 361 30 378 c 0
 30 392 57 467 69 488 c 0
 94 530 94 531 102 539 c 0
 107 545 111 551 111 552 c 0
 111 555 136 579 138 579 c 0
294 472 m 0
 238 503 204 472 184 506 c 0
 180 512 157 482 157 482 c 0
 142 460 122 405 118 397 c 0
 117 396 97 335 97 273 c 0
 97 246 97 246 106 186 c 0
 107 173 141 107 180 95 c 0
 191 92 202 89 213 89 c 0
 259 89 320 125 348 213 c 2
 355 236 l 1
 355 277 l 2
 355 335 348 382 330 426 c 0
 319 454 313 461 294 472 c 0
EndSplineSet
EndChar

